<svg width="25" height="29" viewBox="0 0 25 29" fill="none" xmlns="http://www.w3.org/2000/svg">
<path d="M2.73358 12.4396C2.64139 12.5336 2.53139 12.6082 2.41002 12.6591C2.28865 12.7101 2.15834 12.7363 2.02671 12.7363C1.89508 12.7363 1.76477 12.7101 1.64339 12.6591C1.52202 12.6082 1.41202 12.5336 1.31983 12.4396C1.13218 12.2487 1.02703 11.9917 1.02703 11.724C1.02703 11.4563 1.13218 11.1994 1.31983 11.0085L10.0648 2.17505C12.0368 0.643853 14.0204 -0.0912968 15.9953 0.00875316C18.4835 0.136353 20.4207 1.08465 22.065 2.6405C23.7412 4.2268 24.8258 6.49025 24.8258 9.23365C24.8258 11.3391 24.2139 13.1922 22.9219 14.8365L10.5926 27.5385C9.34558 28.5607 7.95938 29.0552 6.47458 28.9957C4.58958 28.9174 3.18743 28.3084 2.14488 27.2775C0.923981 26.0725 0.175781 24.5921 0.175781 22.6012C0.175781 21.0178 0.722431 19.5562 1.85053 18.1845L12.7023 7.10505C13.5723 6.17705 14.4235 5.62605 15.2935 5.49265C15.8742 5.40119 16.4684 5.45313 17.0244 5.64394C17.5804 5.83476 18.0813 6.15865 18.4835 6.5874C19.2549 7.40375 19.5855 8.42165 19.4695 9.5802C19.3897 10.3705 19.0664 11.0984 18.4719 11.7958L8.49588 22.0154C8.40429 22.1097 8.29484 22.1848 8.17392 22.2364C8.05299 22.288 7.92301 22.3149 7.79155 22.3157C7.6601 22.3166 7.52979 22.2912 7.40824 22.2411C7.28669 22.191 7.17633 22.1173 7.08358 22.0241C6.89477 21.8343 6.78805 21.578 6.78642 21.3103C6.7848 21.0426 6.88839 20.785 7.07488 20.593L17.003 10.4256C17.293 10.0848 17.4453 9.74115 17.4815 9.37575C17.5395 8.79575 17.4003 8.368 17.0393 7.98665C16.8569 7.79134 16.6291 7.64414 16.3762 7.55813C16.1232 7.47211 15.8529 7.44997 15.5893 7.49365C15.2369 7.5473 14.7439 7.86775 14.1364 8.51445L3.32953 19.5446C2.55088 20.4944 2.17388 21.5021 2.17388 22.6027C2.17388 23.986 2.67413 24.9763 3.53978 25.8304C4.22853 26.5119 5.16378 26.9179 6.55578 26.9759C7.54178 27.015 8.45528 26.6888 9.24988 26.045L21.4255 13.5025C22.3608 12.3033 22.8277 10.8925 22.8277 9.2351C22.8277 7.0862 21.991 5.3433 20.6991 4.1195C19.3796 2.8696 17.8716 2.133 15.8952 2.0315C14.4336 1.9561 12.901 2.5245 11.3756 3.6932L2.73358 12.4411V12.4396Z" fill="#646464"/>
</svg>
