<svg width="43" height="27" viewBox="0 0 43 27" fill="none" xmlns="http://www.w3.org/2000/svg">
<path d="M39.1211 4.25H26.8711V0.75H39.1211V4.25ZM42.1416 21.75C41.3681 24.0198 38.5908 27 33.2148 27C27.8353 27 23.4778 23.9743 23.4778 17.0688C23.4778 10.2262 27.5466 6.70875 33.0433 6.70875C38.4368 6.70875 41.7303 9.82725 42.4496 14.4543C42.5861 15.3398 42.6403 16.5332 42.6158 18.1992H28.5686C28.7961 23.8185 34.6638 23.9953 36.5976 21.75H42.1416ZM28.6911 14.75H37.3798C37.1961 12.0428 35.3918 10.8668 33.0451 10.8668C30.4796 10.8668 29.0603 12.2107 28.6911 14.75ZM11.9366 26.979H0.621094V0.78675H12.7888C22.3718 0.9285 22.5538 10.3138 17.5488 12.8722C23.6056 15.0773 23.8086 26.979 11.9366 26.979ZM5.87109 11.25H12.1431C16.5321 11.25 17.2286 6 11.5971 6H5.87109V11.25ZM11.8053 16.5H5.87109V21.778H11.7178C17.0641 21.778 16.7368 16.5 11.8053 16.5Z" fill="white"/>
</svg>
