<svg width="186" height="201" viewBox="0 0 186 201" fill="none" xmlns="http://www.w3.org/2000/svg">
<path d="M69.0871 160.801L79.249 153.547L79.2506 131.162L69.0871 160.801ZM55.4642 109.114L65.6367 101.891L52.0239 100.61L55.4642 109.114ZM69.0873 138.403L69.0871 160.801L79.2506 131.162L69.0873 138.403ZM41.8439 107.832L55.4642 109.114L52.0239 100.61L41.8439 107.832ZM87.4385 112.125L97.5935 104.898L98.1751 104.097L87.4385 112.125ZM88.0203 111.323L98.1751 104.097L98.7693 103.142L88.0203 111.323ZM88.6149 110.368L98.7693 103.142L99.3763 102.032L88.6149 110.368ZM89.222 109.257L99.3763 102.032L99.9958 100.768L89.222 109.257ZM89.8419 107.993L99.9958 100.768L100.628 99.3495L89.8419 107.993ZM90.4743 106.573L100.628 99.3495L101.273 97.7767L90.4743 106.573ZM91.1195 105L101.273 97.7767L101.931 96.0494L91.1195 105ZM91.7773 103.272L101.931 96.0494L102.601 94.1677L91.7773 103.272ZM92.4478 101.389L102.601 94.1677L103.284 92.1315L92.4478 101.389ZM93.131 99.3514L103.284 92.1315L103.979 89.9408L93.131 99.3514ZM93.8268 97.1595L103.979 89.9408L104.688 87.5957L93.8268 97.1595ZM94.5353 94.813L104.688 87.5957L105.409 85.096L94.5353 94.813ZM95.2565 92.3119L105.409 85.096L106.143 82.4316L95.2565 92.3119ZM58.9124 168.065L69.0871 160.801L69.0873 138.403L58.9124 168.065ZM88.0203 111.323L87.4385 112.125L98.1751 104.097L88.0203 111.323ZM95.9916 89.646L106.143 82.4316L106.833 79.7731L95.9916 89.646ZM128.885 116.027L139.017 108.795L97.5935 104.898L128.885 116.027ZM88.6149 110.368L88.0203 111.323L98.7693 103.142L88.6149 110.368ZM89.222 109.257L88.6149 110.368L99.3763 102.032L89.222 109.257ZM96.6813 86.986L106.833 79.7731L107.477 77.1206L96.6813 86.986ZM89.8419 107.993L89.222 109.257L99.9958 100.768L89.8419 107.993ZM90.4743 106.573L89.8419 107.993L100.628 99.3495L90.4743 106.573ZM97.3256 84.332L107.477 77.1206L108.076 74.4741L97.3256 84.332ZM91.1195 105L90.4743 106.573L101.273 97.7767L91.1195 105ZM97.9245 81.684L108.076 74.4741L108.629 71.8337L97.9245 81.684ZM91.7773 103.272L91.1195 105L101.931 96.0494L91.7773 103.272ZM98.478 79.042L108.629 71.8337L109.137 69.1992L98.478 79.042ZM92.4478 101.389L91.7773 103.272L102.601 94.1677L92.4478 101.389ZM87.4385 112.125L128.885 116.027L97.5935 104.898L87.4385 112.125ZM45.2788 116.347L55.4642 109.114L41.8439 107.832L45.2788 116.347ZM98.986 76.406L109.137 69.1992L109.6 66.5707L98.986 76.406ZM93.131 99.3514L92.4478 101.389L103.284 92.1315L93.131 99.3514ZM99.4486 73.776L109.6 66.5707L110.017 63.9482L99.4486 73.776ZM93.8268 97.1595L93.131 99.3514L103.979 89.9408L93.8268 97.1595ZM99.8657 71.152L110.017 63.9482L110.388 61.3318L99.8657 71.152ZM94.5353 94.813L93.8268 97.1595L104.688 87.5957L94.5353 94.813ZM100.237 68.5341L110.388 61.3318L110.715 58.7214L100.237 68.5341ZM95.2565 92.3119L94.5353 94.813L105.409 85.096L95.2565 92.3119ZM100.564 65.9221L110.715 58.7214L110.995 56.117L100.564 65.9221ZM95.9916 89.646L95.2565 92.3119L106.143 82.4316L95.9916 89.646ZM100.845 63.3162L110.995 56.117L111.231 53.5186L100.845 63.3162ZM96.6813 86.986L95.9916 89.646L106.833 79.7731L96.6813 86.986ZM97.3256 84.332L96.6813 86.986L107.477 77.1206L97.3256 84.332ZM58.9112 145.654L58.9124 168.065L69.0873 138.403L58.9112 145.654ZM97.9245 81.684L97.3256 84.332L108.076 74.4741L97.9245 81.684ZM101.08 60.7163L111.231 53.5186L113.236 31.6598L101.08 60.7163ZM31.651 115.063L45.2788 116.347L41.8439 107.832L31.651 115.063ZM98.478 79.042L97.9245 81.684L108.629 71.8337L98.478 79.042ZM175.239 170.839L185.342 163.572L185.379 113.157L175.239 170.839ZM98.986 76.406L98.478 79.042L109.137 69.1992L98.986 76.406ZM99.4486 73.776L98.986 76.406L109.6 66.5707L99.4486 73.776ZM99.8657 71.152L99.4486 73.776L110.017 63.9482L99.8657 71.152ZM100.237 68.5341L99.8657 71.152L110.388 61.3318L100.237 68.5341ZM100.564 65.9221L100.237 68.5341L110.715 58.7214L100.564 65.9221ZM100.845 63.3162L100.564 65.9221L110.995 56.117L100.845 63.3162ZM77.2706 119.361L87.4385 112.125L88.0203 111.323L77.2706 119.361ZM77.8527 118.559L88.0203 111.323L88.6149 110.368L77.8527 118.559ZM101.08 60.7163L100.845 63.3162L111.231 53.5186L101.08 60.7163ZM78.4475 117.603L88.6149 110.368L89.222 109.257L78.4475 117.603ZM79.0549 116.492L89.222 109.257L89.8419 107.993L79.0549 116.492ZM175.273 120.394L185.379 113.157L168.103 111.531L175.273 120.394ZM79.675 115.227L89.8419 107.993L90.4743 106.573L79.675 115.227ZM80.3078 113.807L90.4743 106.573L91.1195 105L80.3078 113.807ZM80.9532 112.232L91.1195 105L91.7773 103.272L80.9532 112.232ZM81.6112 110.503L91.7773 103.272L92.4478 101.389L81.6112 110.503ZM82.282 108.619L92.4478 101.389L93.131 99.3514L82.282 108.619ZM103.085 38.8448L101.08 60.7163L113.236 31.6598L103.085 38.8448ZM82.9654 106.58L93.131 99.3514L93.8268 97.1595L82.9654 106.58ZM83.6614 104.387L93.8268 97.1595L94.5353 94.813L83.6614 104.387ZM157.987 118.767L168.103 111.531L168.168 8.74728L157.987 118.767ZM84.3702 102.039L94.5353 94.813L95.2565 92.3119L84.3702 102.039ZM175.273 120.394L175.239 170.839L185.379 113.157L175.273 120.394ZM85.0916 99.537L95.2565 92.3119L95.9916 89.646L85.0916 99.537ZM157.987 118.767L175.273 120.394L168.103 111.531L157.987 118.767ZM48.7248 175.338L58.9124 168.065L58.9112 145.654L48.7248 175.338ZM77.8527 118.559L77.2706 119.361L88.0203 111.323L77.8527 118.559ZM85.8269 96.8695L95.9916 89.646L96.6813 86.986L85.8269 96.8695ZM118.74 123.268L128.885 116.027L87.4385 112.125L118.74 123.268ZM78.4475 117.603L77.8527 118.559L88.6149 110.368L78.4475 117.603ZM79.0549 116.492L78.4475 117.603L89.222 109.257L79.0549 116.492ZM86.5169 94.208L96.6813 86.986L97.3256 84.332L86.5169 94.208ZM79.675 115.227L79.0549 116.492L89.8419 107.993L79.675 115.227ZM80.3078 113.807L79.675 115.227L90.4743 106.573L80.3078 113.807ZM87.1613 91.5525L97.3256 84.332L97.9245 81.684L87.1613 91.5525ZM80.9532 112.232L80.3078 113.807L91.1195 105L80.9532 112.232ZM87.7604 88.9029L97.9245 81.684L98.478 79.042L87.7604 88.9029ZM81.6112 110.503L80.9532 112.232L91.7773 103.272L81.6112 110.503ZM88.314 86.2594L98.478 79.042L98.986 76.406L88.314 86.2594ZM82.282 108.619L81.6112 110.503L92.4478 101.389L82.282 108.619ZM77.2706 119.361L118.74 123.268L87.4385 112.125L77.2706 119.361ZM35.0805 123.588L45.2788 116.347L31.651 115.063L35.0805 123.588ZM88.8221 83.6219L98.986 76.406L99.4486 73.776L88.8221 83.6219ZM82.9654 106.58L82.282 108.619L93.131 99.3514L82.9654 106.58ZM74.9057 8.16525L158.045 15.9223L85.0741 1L74.9057 8.16525ZM89.2848 80.9904L99.4486 73.776L99.8657 71.152L89.2848 80.9904ZM83.6614 104.387L82.9654 106.58L93.8268 97.1595L83.6614 104.387ZM158.045 15.9223L168.168 8.74728L85.0741 1L158.045 15.9223ZM89.702 78.3649L99.8657 71.152L100.237 68.5341L89.702 78.3649ZM84.3702 102.039L83.6614 104.387L94.5353 94.813L84.3702 102.039ZM90.0738 75.7455L100.237 68.5341L100.564 65.9221L90.0738 75.7455ZM85.0916 99.537L84.3702 102.039L95.2565 92.3119L85.0916 99.537ZM90.4001 73.132L100.564 65.9221L100.845 63.3162L90.4001 73.132ZM85.8269 96.8695L85.0916 99.537L95.9916 89.646L85.8269 96.8695ZM90.6809 70.5246L100.845 63.3162L101.08 60.7163L90.6809 70.5246ZM86.5169 94.208L85.8269 96.8695L96.6813 86.986L86.5169 94.208ZM87.1613 91.5525L86.5169 94.208L97.3256 84.332L87.1613 91.5525ZM48.7221 152.913L48.7248 175.338L58.9112 145.654L48.7221 152.913ZM87.7604 88.9029L87.1613 91.5525L97.9245 81.684L87.7604 88.9029ZM90.9162 67.9232L101.08 60.7163L103.085 38.8448L90.9162 67.9232ZM21.4452 122.303L35.0805 123.588L31.651 115.063L21.4452 122.303ZM88.314 86.2594L87.7604 88.9029L98.478 79.042L88.314 86.2594ZM165.122 178.116L175.239 170.839L175.273 120.394L165.122 178.116ZM88.8221 83.6219L88.314 86.2594L98.986 76.406L88.8221 83.6219ZM89.2848 80.9904L88.8221 83.6219L99.4486 73.776L89.2848 80.9904ZM89.702 78.3649L89.2848 80.9904L99.8657 71.152L89.702 78.3649ZM158.045 15.9223L157.987 118.767L168.168 8.74728L158.045 15.9223ZM90.0738 75.7455L89.702 78.3649L100.237 68.5341L90.0738 75.7455ZM90.4001 73.132L90.0738 75.7455L100.564 65.9221L90.4001 73.132ZM90.6809 70.5246L90.4001 73.132L100.845 63.3162L90.6809 70.5246ZM67.0899 126.606L77.2706 119.361L77.8527 118.559L67.0899 126.606ZM67.6723 125.804L77.8527 118.559L78.4475 117.603L67.6723 125.804ZM90.9162 67.9232L90.6809 70.5246L101.08 60.7163L90.9162 67.9232ZM68.2673 124.847L78.4475 117.603L79.0549 116.492L68.2673 124.847ZM68.875 123.736L79.0549 116.492L79.675 115.227L68.875 123.736ZM165.153 127.641L175.273 120.394L157.987 118.767L165.153 127.641ZM69.4953 122.47L79.675 115.227L80.3078 113.807L69.4953 122.47ZM70.1283 121.049L80.3078 113.807L80.9532 112.232L70.1283 121.049ZM70.774 119.473L80.9532 112.232L81.6112 110.503L70.774 119.473ZM71.4323 117.743L81.6112 110.503L82.282 108.619L71.4323 117.743ZM72.1033 115.858L82.282 108.619L82.9654 106.58L72.1033 115.858ZM92.9209 46.039L90.9162 67.9232L103.085 38.8448L92.9209 46.039ZM72.7869 113.819L82.9654 106.58L83.6614 104.387L72.7869 113.819ZM73.4832 111.624L83.6614 104.387L84.3702 102.039L73.4832 111.624ZM147.858 126.011L157.987 118.767L158.045 15.9223L147.858 126.011ZM74.1922 109.275L84.3702 102.039L85.0916 99.537L74.1922 109.275ZM165.153 127.641L165.122 178.116L175.273 120.394L165.153 127.641ZM74.9138 106.771L85.0916 99.537L85.8269 96.8695L74.9138 106.771ZM147.858 126.011L165.153 127.641L157.987 118.767L147.858 126.011ZM38.5244 182.62L48.7248 175.338L48.7221 152.913L38.5244 182.62ZM67.6723 125.804L67.0899 126.606L77.8527 118.559L67.6723 125.804ZM75.6494 104.102L85.8269 96.8695L86.5169 94.208L75.6494 104.102ZM108.582 130.518L118.74 123.268L77.2706 119.361L108.582 130.518ZM68.2673 124.847L67.6723 125.804L78.4475 117.603L68.2673 124.847ZM68.875 123.736L68.2673 124.847L79.0549 116.492L68.875 123.736ZM76.3395 101.439L86.5169 94.208L87.1613 91.5525L76.3395 101.439ZM69.4953 122.47L68.875 123.736L79.675 115.227L69.4953 122.47ZM70.1283 121.049L69.4953 122.47L80.3078 113.807L70.1283 121.049ZM76.9842 98.7821L87.1613 91.5525L87.7604 88.9029L76.9842 98.7821ZM70.774 119.473L70.1283 121.049L80.9532 112.232L70.774 119.473ZM77.5834 96.1311L87.7604 88.9029L88.314 86.2594L77.5834 96.1311ZM71.4323 117.743L70.774 119.473L81.6112 110.503L71.4323 117.743ZM78.1371 93.486L88.314 86.2594L88.8221 83.6219L78.1371 93.486ZM72.1033 115.858L71.4323 117.743L82.282 108.619L72.1033 115.858ZM67.0899 126.606L108.582 130.518L77.2706 119.361L67.0899 126.606ZM24.8693 130.839L35.0805 123.588L21.4452 122.303L24.8693 130.839ZM78.6453 90.847L88.8221 83.6219L89.2848 80.9904L78.6453 90.847ZM72.7869 113.819L72.1033 115.858L82.9654 106.58L72.7869 113.819ZM64.7243 15.3396L147.909 23.1065L74.9057 8.16525L64.7243 15.3396ZM79.1081 88.214L89.2848 80.9904L89.702 78.3649L79.1081 88.214ZM73.4832 111.624L72.7869 113.819L83.6614 104.387L73.4832 111.624ZM147.909 23.1065L158.045 15.9223L74.9057 8.16525L147.909 23.1065ZM79.5254 85.587L89.702 78.3649L90.0738 75.7455L79.5254 85.587ZM74.1922 109.275L73.4832 111.624L84.3702 102.039L74.1922 109.275ZM79.8972 82.966L90.0738 75.7455L90.4001 73.132L79.8972 82.966ZM74.9138 106.771L74.1922 109.275L85.0916 99.537L74.9138 106.771ZM80.2235 80.351L90.4001 73.132L90.6809 70.5246L80.2235 80.351ZM75.6494 104.102L74.9138 106.771L85.8269 96.8695L75.6494 104.102ZM80.5043 77.7421L90.6809 70.5246L90.9162 67.9232L80.5043 77.7421ZM76.3395 101.439L75.6494 104.102L86.5169 94.208L76.3395 101.439ZM76.9842 98.7821L76.3395 101.439L87.1613 91.5525L76.9842 98.7821ZM38.5202 160.182L38.5244 182.62L48.7221 152.913L38.5202 160.182ZM77.5834 96.1311L76.9842 98.7821L87.7604 88.9029L77.5834 96.1311ZM80.7396 75.1392L90.9162 67.9232L92.9209 46.039L80.7396 75.1392ZM11.2266 129.552L24.8693 130.839L21.4452 122.303L11.2266 129.552ZM78.1371 93.486L77.5834 96.1311L88.314 86.2594L78.1371 93.486ZM154.993 185.401L165.122 178.116L165.153 127.641L154.993 185.401ZM78.6453 90.847L78.1371 93.486L88.8221 83.6219L78.6453 90.847ZM79.1081 88.214L78.6453 90.847L89.2848 80.9904L79.1081 88.214ZM79.5254 85.587L79.1081 88.214L89.702 78.3649L79.5254 85.587ZM147.909 23.1065L147.858 126.011L158.045 15.9223L147.909 23.1065ZM79.8972 82.966L79.5254 85.587L90.0738 75.7455L79.8972 82.966ZM80.2235 80.351L79.8972 82.966L90.4001 73.132L80.2235 80.351ZM80.5043 77.7421L80.2235 80.351L90.6809 70.5246L80.5043 77.7421ZM56.8962 133.861L67.0899 126.606L67.6723 125.804L56.8962 133.861ZM57.4789 133.058L67.6723 125.804L68.2673 124.847L57.4789 133.058ZM80.7396 75.1392L80.5043 77.7421L90.9162 67.9232L80.7396 75.1392ZM58.0742 132.101L68.2673 124.847L68.875 123.736L58.0742 132.101ZM58.6822 130.989L68.875 123.736L69.4953 122.47L58.6822 130.989ZM155.021 134.896L165.153 127.641L147.858 126.011L155.021 134.896ZM59.3028 129.722L69.4953 122.47L70.1283 121.049L59.3028 129.722ZM59.936 128.3L70.1283 121.049L70.774 119.473L59.936 128.3ZM60.5819 126.724L70.774 119.473L71.4323 117.743L60.5819 126.724ZM61.2405 124.993L71.4323 117.743L72.1033 115.858L61.2405 124.993ZM61.9117 123.107L72.1033 115.858L72.7869 113.819L61.9117 123.107ZM82.7439 53.2422L80.7396 75.1392L92.9209 46.039L82.7439 53.2422ZM62.5956 121.066L72.7869 113.819L73.4832 111.624L62.5956 121.066ZM63.2921 118.87L73.4832 111.624L74.1922 109.275L63.2921 118.87ZM137.716 133.265L147.858 126.011L147.909 23.1065L137.716 133.265ZM64.0013 116.52L74.1922 109.275L74.9138 106.771L64.0013 116.52ZM155.021 134.896L154.993 185.401L165.153 127.641L155.021 134.896ZM64.7232 114.014L74.9138 106.771L75.6494 104.102L64.7232 114.014ZM137.716 133.265L155.021 134.896L147.858 126.011L137.716 133.265ZM28.311 189.911L38.5244 182.62L38.5202 160.182L28.311 189.911ZM57.4789 133.058L56.8962 133.861L67.6723 125.804L57.4789 133.058ZM65.459 111.344L75.6494 104.102L76.3395 101.439L65.459 111.344ZM98.4108 137.778L108.582 130.518L67.0899 126.606L98.4108 137.778ZM58.0742 132.101L57.4789 133.058L68.2673 124.847L58.0742 132.101ZM58.6822 130.989L58.0742 132.101L68.875 123.736L58.6822 130.989ZM66.1493 108.679L76.3395 101.439L76.9842 98.7821L66.1493 108.679ZM59.3028 129.722L58.6822 130.989L69.4953 122.47L59.3028 129.722ZM59.936 128.3L59.3028 129.722L70.1283 121.049L59.936 128.3ZM66.7942 106.021L76.9842 98.7821L77.5834 96.1311L66.7942 106.021ZM60.5819 126.724L59.936 128.3L70.774 119.473L60.5819 126.724ZM67.3935 103.368L77.5834 96.1311L78.1371 93.486L67.3935 103.368ZM61.2405 124.993L60.5819 126.724L71.4323 117.743L61.2405 124.993ZM67.9474 100.722L78.1371 93.486L78.6453 90.847L67.9474 100.722ZM61.9117 123.107L61.2405 124.993L72.1033 115.858L61.9117 123.107ZM56.8962 133.861L98.4108 137.778L67.0899 126.606L56.8962 133.861ZM14.6452 138.099L24.8693 130.839L11.2266 129.552L14.6452 138.099ZM68.4557 98.0812L78.6453 90.847L79.1081 88.214L68.4557 98.0812ZM62.5956 121.066L61.9117 123.107L72.7869 113.819L62.5956 121.066ZM54.5301 22.523L137.761 30.2997L64.7243 15.3396L54.5301 22.523ZM68.9186 95.4467L79.1081 88.214L79.5254 85.587L68.9186 95.4467ZM63.2921 118.87L62.5956 121.066L73.4832 111.624L63.2921 118.87ZM137.761 30.2997L147.909 23.1065L64.7243 15.3396L137.761 30.2997ZM69.3359 92.8182L79.5254 85.587L79.8972 82.966L69.3359 92.8182ZM64.0013 116.52L63.2921 118.87L74.1922 109.275L64.0013 116.52ZM69.7077 90.1956L79.8972 82.966L80.2235 80.351L69.7077 90.1956ZM64.7232 114.014L64.0013 116.52L74.9138 106.771L64.7232 114.014ZM70.034 87.5792L80.2235 80.351L80.5043 77.7421L70.034 87.5792ZM65.459 111.344L64.7232 114.014L75.6494 104.102L65.459 111.344ZM70.3148 84.9687L80.5043 77.7421L80.7396 75.1392L70.3148 84.9687ZM66.1493 108.679L65.459 111.344L76.3395 101.439L66.1493 108.679ZM66.7942 106.021L66.1493 108.679L76.9842 98.7821L66.7942 106.021ZM28.3054 167.46L28.311 189.911L38.5202 160.182L28.3054 167.46Z" fill="#323232"/>
<path d="M28 190L56 170" stroke="#707070"/>
<path d="M67.3986 103.368L66.7992 106.021L77.5885 96.1308L67.3986 103.368ZM70.5552 82.364L80.7447 75.1389L82.749 53.2419L70.5552 82.364ZM1 136.81L14.6502 138.098L11.2316 129.551L1 136.81Z" fill="#323232"/>
<path d="M55.4692 109.115L65.6418 101.892M11.2316 129.552L1 136.81L11.2316 129.552ZM24.8743 130.839L14.6502 138.099L24.8743 130.839ZM21.4503 122.303L11.2316 129.552L21.4503 122.303ZM35.0855 123.589L24.8743 130.839L35.0855 123.589ZM31.6561 115.063L21.4503 122.303L31.6561 115.063ZM45.2838 116.347L35.0855 123.589L45.2838 116.347ZM41.8489 107.832L31.6561 115.063L41.8489 107.832ZM55.4692 109.115L45.2838 116.347L55.4692 109.115ZM41.8489 107.832L52.0289 100.611L41.8489 107.832ZM65.6418 101.892L52.0289 100.611L65.6418 101.892Z" stroke="#707070" stroke-linecap="round"/>
<path d="M67.9445 100.722L67.3906 103.368L78.1342 93.486L67.9445 100.722ZM144.848 192.696L154.99 185.401L155.018 134.896L144.848 192.696ZM68.4528 98.0811L67.9445 100.722L78.6425 90.8469L68.4528 98.0811Z" fill="#323232"/>
<path d="M1 136.81L1.02117 187.322L28.316 189.911L1 136.81Z" fill="#323232"/>
<path d="M68.9242 95.4462L68.4613 98.0807L79.1137 88.2135L68.9242 95.4462ZM69.3415 92.8176L68.9242 95.4462L79.531 85.5865L69.3415 92.8176ZM137.766 30.2992L137.721 133.264L147.915 23.106L137.766 30.2992ZM69.7133 90.1951L69.3415 92.8176L79.9028 82.9655L69.7133 90.1951ZM70.0397 87.5786L69.7133 90.1951L80.2291 80.3505L70.0397 87.5786ZM70.3205 84.9682L70.0397 87.5786L80.5099 77.7416L70.3205 84.9682ZM46.6953 141.124L56.9019 133.86L57.4845 133.058L46.6953 141.124ZM47.2782 140.321L57.4845 133.058L58.0798 132.1L47.2782 140.321ZM70.5557 82.3637L70.3205 84.9682L80.7452 75.1386L70.5557 82.3637ZM47.8738 139.363L58.0798 132.1L58.6878 130.988L47.8738 139.363Z" fill="#323232"/>
<path d="M1 136.81L28.316 189.911L28.3105 167.46L1 136.81Z" fill="#323232"/>
<path d="M48.482 138.251L58.6878 130.989L59.3084 129.722L48.482 138.251ZM144.881 142.162L155.026 134.897L137.721 133.265L144.881 142.162ZM49.1029 136.984L59.3084 129.722L59.9416 128.301L49.1029 136.984ZM49.7364 135.561L59.9416 128.301L60.5875 126.724L49.7364 135.561ZM50.3825 133.984L60.5875 126.724L61.2461 124.993L50.3825 133.984ZM51.0413 132.252L61.2461 124.993L61.9173 123.107L51.0413 132.252ZM51.7128 130.365L61.9173 123.107L62.6012 121.066L51.7128 130.365ZM72.5598 60.4549L70.5557 82.3646L82.7496 53.2425L72.5598 60.4549ZM52.3969 128.323L62.6012 121.066L63.2977 118.871L52.3969 128.323ZM53.0937 126.126L63.2977 118.871L64.0069 116.52L53.0937 126.126ZM127.566 140.528L137.721 133.265L137.766 30.3L127.566 140.528ZM53.8031 123.774L64.0069 116.52L64.7288 114.015L53.8031 123.774ZM144.881 142.162L144.856 192.696L155.026 134.897L144.881 142.162ZM54.5252 121.267L64.7288 114.015L65.4646 111.344L54.5252 121.267ZM127.566 140.528L144.881 142.162L137.721 133.265L127.566 140.528ZM47.2782 140.322L46.6953 141.125L57.4845 133.058L47.2782 140.322Z" fill="#323232"/>
<path d="M97.6055 104.897L98.1871 104.096" stroke="#707070" stroke-linecap="round"/>
<path d="M55.2604 118.595L65.4637 111.344L66.154 108.68L55.2604 118.595ZM88.2318 145.046L98.4155 137.778L56.901 133.861L88.2318 145.046ZM47.8729 139.364L47.2773 140.322L58.0789 132.101L47.8729 139.364Z" fill="#323232"/>
<path d="M98.1836 104.097L98.7778 103.142" stroke="#707070" stroke-linecap="round"/>
<path d="M48.4832 138.251L47.875 139.364L58.689 130.989L48.4832 138.251Z" fill="#323232"/>
<path d="M98.7695 103.141L99.3764 102.032" stroke="#707070" stroke-linecap="round"/>
<path d="M55.9542 115.929L66.1573 108.68L66.8021 106.021L55.9542 115.929ZM49.1052 136.984L48.4844 138.251L59.3107 129.722L49.1052 136.984Z" fill="#323232"/>
<path d="M99.3828 102.032L100.002 100.768" stroke="#707070" stroke-linecap="round"/>
<path d="M15.5594 136.85L14.6484 138.099L47.2759 140.321L15.5594 136.85Z" fill="#323232"/>
<path d="M49.7312 135.561L49.0977 136.984L59.9364 128.301L49.7312 135.561Z" fill="#323232"/>
<path d="M100.008 100.768L100.64 99.3499" stroke="#707070" stroke-linecap="round"/>
<path d="M56.5987 113.269L66.8017 106.021L67.401 103.368L56.5987 113.269ZM50.3844 133.984L49.7383 135.561L60.5894 126.724L50.3844 133.984Z" fill="#323232"/>
<path d="M100.637 99.3494L101.282 97.7766" stroke="#707070" stroke-linecap="round"/>
<path d="M57.1953 110.615L67.3981 103.368L67.952 100.722L57.1953 110.615Z" fill="#323232"/>
<path d="M1 136.81L28.3105 167.46L107.364 174.942L1 136.81Z" fill="#323232"/>
<path d="M51.0377 132.252L50.3789 133.984L61.2425 124.993L51.0377 132.252Z" fill="#323232"/>
<path d="M101.277 97.7768L101.935 96.0496" stroke="#707070" stroke-linecap="round"/>
<path d="M57.75 107.966L67.9527 100.721L68.461 98.0808L57.75 107.966Z" fill="#323232"/>
<path d="M14.6502 138.099L1 136.81L107.364 174.942L14.6502 138.099Z" fill="#323232"/>
<path d="M51.7066 130.364L51.0352 132.251L61.9111 123.107L51.7066 130.364Z" fill="#323232"/>
<path d="M101.93 96.0497L102.6 94.168" stroke="#707070" stroke-linecap="round"/>
<path d="M46.6953 141.125L88.2327 145.047L56.9019 133.861L46.6953 141.125Z" fill="#323232"/>
<path d="M58.2491 105.325L68.4517 98.0816L68.9145 95.447L58.2491 105.325ZM52.3872 128.323L51.7031 130.365L62.5915 121.066L52.3872 128.323Z" fill="#323232"/>
<path d="M14.6484 138.099L46.693 141.124L47.2759 140.321L14.6484 138.099Z" fill="#323232"/>
<path d="M44.332 29.7152L127.608 37.5018L54.5391 22.5227L44.332 29.7152ZM58.7251 102.688L68.9275 95.4464L69.3449 92.8179L58.7251 102.688ZM53.0971 126.125L52.4003 128.322L63.3011 118.87L53.0971 126.125ZM127.608 37.5018L137.77 30.2995L54.5391 22.5227L127.608 37.5018ZM59.1425 100.058L69.3449 92.8179L69.7167 90.1954L59.1425 100.058ZM53.8065 123.774L53.0971 126.125L64.0103 116.52L53.8065 123.774ZM59.5144 97.4342L69.7167 90.1954L70.043 87.5789L59.5144 97.4342ZM54.5286 121.267L53.8065 123.774L64.7322 114.014L54.5286 121.267ZM59.8407 94.8162L70.043 87.5789L70.3238 84.9684L59.8407 94.8162ZM55.2647 118.595L54.5286 121.267L65.468 111.344L55.2647 118.595ZM60.1215 92.2042L70.3238 84.9684L70.5591 82.364L60.1215 92.2042Z" fill="#323232"/>
<path d="M46.693 141.124L14.6484 138.099L107.362 174.943L46.693 141.124Z" fill="#323232"/>
<path d="M55.9523 115.929L55.2617 118.595L66.1554 108.68L55.9523 115.929Z" fill="#323232"/>
<path d="M47.8785 139.364L48.4867 138.251L49.1076 136.983L47.8785 139.364ZM16.4799 135.427L15.5664 136.85L62.3617 67.6763L16.4799 135.427Z" fill="#323232"/>
<path d="M56.5864 113.269L55.9414 115.929L66.7894 106.021L56.5864 113.269Z" fill="#323232"/>
<path d="M47.8674 139.364L49.0965 136.983L50.3761 133.984L47.8674 139.364ZM17.3847 133.831L16.4688 135.427L62.3506 67.6763L17.3847 133.831ZM47.2718 140.321L47.8674 139.364L53.0873 126.126L47.2718 140.321ZM49.0965 136.983L49.73 135.561L50.3761 133.984L49.0965 136.983ZM18.3032 132.06L17.3847 133.831L62.3506 67.6763L18.3032 132.06Z" fill="#323232"/>
<path d="M57.2011 110.615L56.6016 113.269L67.4039 103.368L57.2011 110.615ZM60.3581 89.5983L70.5605 82.364L72.5645 60.4543L60.3581 89.5983Z" fill="#323232"/>
<path d="M19.2257 130.115L18.3047 132.06L62.3521 67.6763L19.2257 130.115ZM47.8689 139.364L50.3776 133.984L53.0888 126.126L47.8689 139.364Z" fill="#323232"/>
<path d="M57.7493 107.967L57.1953 110.615L67.952 100.722L57.7493 107.967ZM134.7 200L144.855 192.696L144.88 142.162L134.7 200Z" fill="#323232"/>
<path d="M20.1618 127.996L19.2383 130.115L62.3647 67.6763L20.1618 127.996ZM50.3902 133.984L51.049 132.252L51.7205 130.365L50.3902 133.984ZM21.0878 125.703L20.1618 127.996L62.3647 67.6763L21.0878 125.703Z" fill="#323232"/>
<path d="M58.2585 105.324L57.75 107.966L68.461 98.0808L58.2585 105.324Z" fill="#323232"/>
<path d="M50.3872 133.984L51.7175 130.365L53.0984 126.126L50.3872 133.984ZM15.5664 136.85L47.2829 140.321L62.3617 67.6763L15.5664 136.85ZM22.0133 123.236L21.0847 125.703L62.3617 67.6763L22.0133 123.236Z" fill="#323232"/>
<path d="M58.7246 102.689L58.2617 105.325L68.9271 95.447L58.7246 102.689Z" fill="#323232"/>
<path d="M51.7081 130.365L52.3922 128.323L53.089 126.126L51.7081 130.365ZM22.935 120.595L22.0039 123.236L62.3524 67.6763L22.935 120.595Z" fill="#323232"/>
<path d="M59.144 100.058L58.7266 102.688L69.3464 92.8179L59.144 100.058Z" fill="#323232"/>
<path d="M23.8711 117.78L22.9375 120.595L62.3549 67.6763L23.8711 117.78Z" fill="#323232"/>
<path d="M127.603 37.5024L127.564 140.528L137.764 30.3L127.603 37.5024ZM59.5086 97.4348L59.1367 100.059L69.711 90.196L59.5086 97.4348Z" fill="#323232"/>
<path d="M53.0877 126.126L53.7971 123.774L54.5192 121.267L53.0877 126.126ZM24.8033 114.791L23.8672 117.78L62.351 67.6763L24.8033 114.791Z" fill="#323232"/>
<path d="M59.838 94.8167L59.5117 97.4347L70.0404 87.5793L59.838 94.8167Z" fill="#323232"/>
<path d="M25.755 111.627L24.8164 114.791L62.3641 67.6763L25.755 111.627ZM53.1008 126.126L54.5323 121.267L55.9589 115.929L53.1008 126.126Z" fill="#323232"/>
<path d="M60.1128 92.2041L59.832 94.816L70.3152 84.9683L60.1128 92.2041Z" fill="#323232"/>
<path d="M62.3591 67.6763L26.6899 108.256L25.75 111.627L62.3591 67.6763ZM54.5273 121.267L55.2633 118.595L55.9539 115.929L54.5273 121.267ZM88.2348 145.046L46.6974 141.124L107.366 174.943L88.2348 145.046Z" fill="#323232"/>
<path d="M60.3602 89.5988L60.125 92.2047L70.5627 82.3645L60.3602 89.5988Z" fill="#323232"/>
<path d="M62.3489 67.6763L27.5589 104.761L26.6797 108.256L62.3489 67.6763ZM53.0855 126.126L55.9437 115.929L58.2506 105.325L53.0855 126.126ZM62.3489 67.6763L28.3775 101.144L27.5589 104.761L62.3489 67.6763ZM47.2701 140.321L53.0855 126.126L62.3489 67.6763L47.2701 140.321Z" fill="#323232"/>
<path d="M134.723 149.436L144.881 142.162L127.566 140.528L134.723 149.436Z" fill="#323232"/>
<path d="M55.949 115.929L56.594 113.269L57.1935 110.615L55.949 115.929ZM62.3542 67.6763L29.1407 97.4035L28.3828 101.144L62.3542 67.6763ZM55.949 115.929L57.1935 110.615L58.256 105.325L55.949 115.929ZM62.3542 67.6763L29.8378 93.54L29.1407 97.4035L62.3542 67.6763ZM107.362 174.943L107.356 197.407L134.699 200L107.362 174.943ZM57.1935 110.615L57.7475 107.967L58.256 105.325L57.1935 110.615ZM62.3542 67.6763L30.4743 89.5535L29.8378 93.54L62.3542 67.6763ZM62.3542 67.6763L31.0501 85.4441L30.4743 89.5535L62.3542 67.6763Z" fill="#323232"/>
<path d="M62.3592 67.6759L60.3555 89.5983L72.5619 60.4543L62.3592 67.6759Z" fill="#323232"/>
<path d="M58.2566 105.325L58.7196 102.689L59.137 100.059L58.2566 105.325ZM62.3549 67.6763L31.5659 81.2116L31.0508 85.4441L62.3549 67.6763ZM53.0915 126.126L58.2566 105.325L62.3549 67.6763L53.0915 126.126ZM58.2566 105.325L59.137 100.059L59.8352 94.8167L58.2566 105.325ZM62.3549 67.6763L32.0202 76.856L31.5659 81.2116L62.3549 67.6763Z" fill="#323232"/>
<path d="M117.398 147.8L127.566 140.528L127.605 37.5022L117.398 147.8Z" fill="#323232"/>
<path d="M59.1367 100.058L59.5086 97.4342L59.8349 94.8162L59.1367 100.058Z" fill="#323232"/>
<path d="M134.724 149.435L134.703 199.999L144.883 142.161L134.724 149.435Z" fill="#323232"/>
<path d="M175.246 170.84L185.35 163.572M144.858 192.696L134.703 200L144.858 192.696ZM155 185.401L144.858 192.696L155 185.401ZM165.129 178.116L155 185.401L165.129 178.116ZM175.246 170.84L165.129 178.116L175.246 170.84ZM185.35 163.572L185.387 113.157L185.35 163.572Z" stroke="#707070" stroke-linecap="round"/>
<path d="M117.398 147.8L134.722 149.436L127.566 140.528L117.398 147.8Z" fill="#323232"/>
<path d="M175.274 120.394L185.381 113.156M144.877 142.161L134.719 149.435L144.877 142.161ZM155.022 134.896L144.877 142.161L155.022 134.896ZM165.155 127.64L155.022 134.896L165.155 127.64ZM175.274 120.394L165.155 127.64L175.274 120.394ZM185.381 113.156L168.105 111.531L185.381 113.156Z" stroke="#707070" stroke-linecap="round"/>
<path d="M59.8402 94.8167L60.121 92.2047L60.3563 89.5987L59.8402 94.8167ZM107.367 174.943L134.704 200L117.402 147.8L107.367 174.943ZM58.2617 105.325L59.8402 94.8167L62.36 67.6763L58.2617 105.325ZM59.8402 94.8167L60.3563 89.5987L62.36 67.6763L59.8402 94.8167Z" fill="#323232"/>
<path d="M34.1094 36.9172L117.432 44.7137L44.3294 29.7156L34.1094 36.9172Z" fill="#323232"/>
<path d="M134.701 200L134.722 149.436L117.398 147.8L134.701 200Z" fill="#323232"/>
<path d="M117.434 44.7137L127.608 37.5022L44.332 29.7156L117.434 44.7137Z" fill="#323232"/>
<path d="M168.174 8.74728L85.0805 1M44.3294 29.7155L34.1094 36.9171L44.3294 29.7155ZM54.5365 22.523L44.3294 29.7155L54.5365 22.523ZM64.7307 15.3396L54.5365 22.523L64.7307 15.3396ZM74.912 8.16525L64.7307 15.3396L74.912 8.16525ZM74.912 8.16525L85.0805 1L74.912 8.16525Z" stroke="#707070" stroke-linecap="round"/>
<path d="M117.436 44.7135L32.421 72.3771L32.0273 76.8557L117.436 44.7135ZM117.436 44.7135L32.7539 67.7754L32.421 72.3771L117.436 44.7135ZM88.2377 145.046L107.369 174.942L117.436 44.7135L88.2377 145.046ZM117.436 44.7135L33.0261 63.0506L32.7539 67.7754L117.436 44.7135ZM62.362 67.676L117.436 44.7135L32.0273 76.8557L62.362 67.676ZM107.369 174.942L117.404 147.8L117.436 44.7135L107.369 174.942ZM117.436 44.7135L34.1136 36.917L33.0261 63.0506L117.436 44.7135ZM88.2473 70.1041L88.2377 145.046L117.436 44.7135L88.2473 70.1041Z" fill="#323232"/>
<path d="M117.43 44.7137L117.398 147.8L127.605 37.5022L117.43 44.7137Z" fill="#323232"/>
<path d="M157.992 118.767L168.108 111.531M127.605 37.5024L117.43 44.7139L127.605 37.5024ZM127.566 140.528L117.398 147.8L127.566 140.528ZM137.766 30.3L127.605 37.5024L137.766 30.3ZM137.721 133.265L127.566 140.528L137.721 133.265ZM147.915 23.1068L137.766 30.3L147.915 23.1068ZM147.863 126.011L137.721 133.265L147.863 126.011ZM158.05 15.9226L147.915 23.1068L158.05 15.9226ZM157.992 118.767L147.863 126.011L157.992 118.767ZM158.05 15.9226L168.173 8.74756L158.05 15.9226ZM168.108 111.531L168.173 8.74756L168.108 111.531Z" stroke="#707070" stroke-linecap="round"/>
<path d="M62.3516 67.6759L88.2368 70.104L117.425 44.7134L62.3516 67.6759Z" fill="#323232"/>
<path d="M25.7474 111.627L26.6873 108.256M1.02117 187.322L1 136.81L1.02117 187.322ZM28.316 189.911L1.02117 187.322L28.316 189.911ZM60.1175 92.2044L59.8368 94.8164L60.1175 92.2044ZM60.3528 89.5984L60.1175 92.2044L60.3528 89.5984ZM59.5104 97.4344L59.1386 100.058L59.5104 97.4344ZM59.5104 97.4344L59.8368 94.8164L59.5104 97.4344ZM58.7212 102.688L58.2582 105.324L58.7212 102.688ZM58.7212 102.688L59.1386 100.058L58.7212 102.688ZM57.7498 107.967L57.1958 110.615L57.7498 107.967ZM57.7498 107.967L58.2582 105.324L57.7498 107.967ZM56.5963 113.269L55.9513 115.929L56.5963 113.269ZM56.5963 113.269L57.1958 110.615L56.5963 113.269ZM55.2607 118.595L54.5247 121.267L55.2607 118.595ZM55.2607 118.595L55.9513 115.929L55.2607 118.595ZM53.8026 123.774L53.0931 126.126L53.8026 123.774ZM53.8026 123.774L54.5247 121.267L53.8026 123.774ZM52.3963 128.322L51.7122 130.364L52.3963 128.322ZM52.3963 128.322L53.0931 126.126L52.3963 128.322ZM51.0408 132.251L50.382 133.984L51.0408 132.251ZM51.0408 132.251L51.7122 130.364L51.0408 132.251ZM49.7358 135.561L49.1023 136.983L49.7358 135.561ZM49.7358 135.561L50.382 133.984L49.7358 135.561ZM48.4815 138.251L47.8733 139.363L48.4815 138.251ZM48.4815 138.251L49.1023 136.983L48.4815 138.251ZM34.1081 36.917L117.43 44.7135L34.1081 36.917ZM33.0206 63.0506L34.1081 36.917L33.0206 63.0506ZM134.722 149.436L134.701 200L134.722 149.436ZM117.398 147.8L134.722 149.436L117.398 147.8ZM107.358 197.407L107.364 174.942L107.358 197.407ZM107.358 197.407L134.701 200L107.358 197.407ZM28.3105 167.46L28.316 189.911L28.3105 167.46ZM62.3565 67.676L60.3528 89.5984L62.3565 67.676ZM32.7484 67.7754L33.0206 63.0506L32.7484 67.7754ZM28.3105 167.46L107.364 174.942L28.3105 167.46ZM32.4155 72.3771L32.7484 67.7754L32.4155 72.3771ZM117.398 147.8L117.43 44.7135L117.398 147.8ZM14.6502 138.099L1 136.81L14.6502 138.099ZM47.2777 140.321L47.8733 139.363L47.2777 140.321ZM32.0218 76.8557L32.4155 72.3771L32.0218 76.8557ZM46.6948 141.124L47.2777 140.321L46.6948 141.124ZM88.2322 145.046L46.6948 141.124L88.2322 145.046ZM15.5612 136.85L14.6502 138.099L15.5612 136.85ZM88.2418 70.1041L88.2322 145.046L88.2418 70.1041ZM16.4746 135.427L15.5612 136.85L16.4746 135.427ZM88.2418 70.1041L62.3565 67.676L88.2418 70.1041ZM17.3906 133.83L16.4746 135.427L17.3906 133.83ZM18.309 132.06L17.3906 133.83L18.309 132.06ZM31.5674 81.2113L32.0218 76.8557L31.5674 81.2113ZM19.23 130.115L18.309 132.06L19.23 130.115ZM31.0524 85.4438L31.5674 81.2113L31.0524 85.4438ZM20.1535 127.996L19.23 130.115L20.1535 127.996ZM30.4766 89.5533L31.0524 85.4438L30.4766 89.5533ZM21.0795 125.703L20.1535 127.996L21.0795 125.703ZM29.8401 93.5397L30.4766 89.5533L29.8401 93.5397ZM22.008 123.236L21.0795 125.703L22.008 123.236ZM29.1429 97.4032L29.8401 93.5397L29.1429 97.4032ZM22.9391 120.595L22.008 123.236L22.9391 120.595ZM28.3851 101.144L29.1429 97.4032L28.3851 101.144ZM23.8726 117.78L22.9391 120.595L23.8726 117.78ZM27.5665 104.761L28.3851 101.144L27.5665 104.761ZM24.8088 114.791L23.8726 117.78L24.8088 114.791ZM26.6873 108.256L27.5665 104.761L26.6873 108.256ZM25.7474 111.627L24.8088 114.791L25.7474 111.627Z" stroke="#707070" stroke-linecap="round"/>
<path d="M47 140L88 111" stroke="#707070"/>
</svg>
