<svg width="34" height="34" viewBox="0 0 34 34" fill="none" xmlns="http://www.w3.org/2000/svg">
<path d="M4.08894 12.5357C5.04187 8.6981 8.08482 5.7309 11.9446 4.87563L12.5876 4.73315C15.4948 4.08895 18.5078 4.08895 21.415 4.73315L22.058 4.87563C25.9178 5.7309 28.9607 8.6981 29.9137 12.5357C30.6416 15.4674 30.6416 18.5326 29.9137 21.4643C28.9607 25.3019 25.9178 28.2691 22.058 29.1244L21.415 29.2668C18.5078 29.911 15.4948 29.911 12.5876 29.2668L11.9446 29.1244C8.08482 28.2691 5.04187 25.3019 4.08894 21.4643C3.36098 18.5326 3.36098 15.4674 4.08894 12.5357Z" stroke="white" stroke-width="1.5"/>
<path fill-rule="evenodd" clip-rule="evenodd" d="M17.0003 9.91675C17.542 9.91675 17.9811 10.3304 17.9811 10.8407V11.5965H18.0897C19.9137 11.5965 21.25 13.0903 21.25 14.7602C21.25 15.2705 20.8109 15.6842 20.2692 15.6842C19.7276 15.6842 19.2885 15.2705 19.2885 14.7602C19.2885 13.9562 18.6732 13.4444 18.0897 13.4444H17.9811V16.353L19.3053 16.8066C20.5087 17.2188 21.25 18.3399 21.25 19.5272C21.25 21.0384 20.0389 22.4035 18.3694 22.4035H17.9811V23.1595C17.9811 23.6698 17.542 24.0834 17.0003 24.0834C16.4587 24.0834 16.0196 23.6698 16.0196 23.1595V22.4035H15.9103C14.0863 22.4035 12.75 20.9098 12.75 19.2398C12.75 18.7296 13.1891 18.3159 13.7308 18.3159C14.2724 18.3159 14.7115 18.7296 14.7115 19.2398C14.7115 20.0439 15.3268 20.5557 15.9103 20.5557H16.0196V17.6473L14.6947 17.1934C13.4913 16.7812 12.75 15.6602 12.75 14.4729C12.75 12.9616 13.9611 11.5965 15.6306 11.5965H16.0196V10.8407C16.0196 10.3304 16.4587 9.91675 17.0003 9.91675ZM16.0196 13.4444H15.6306C15.2016 13.4444 14.7115 13.8275 14.7115 14.4729C14.7115 14.9664 15.0168 15.3376 15.365 15.4569L16.0196 15.6811V13.4444ZM17.9811 18.3192V20.5557H18.3694C18.7984 20.5557 19.2885 20.1725 19.2885 19.5272C19.2885 19.0337 18.9832 18.6625 18.635 18.5432L17.9811 18.3192Z" fill="white"/>
</svg>
