<svg width="24" height="24" viewBox="0 0 24 24" fill="none" xmlns="http://www.w3.org/2000/svg">
<path d="M12.2662 8.24548C10.1254 8.24548 8.3783 9.99256 8.3783 12.1334C8.3783 14.2742 10.1254 16.0213 12.2662 16.0213C14.4071 16.0213 16.1541 14.2742 16.1541 12.1334C16.1541 9.99256 14.4071 8.24548 12.2662 8.24548ZM23.9271 12.1334C23.9271 10.5234 23.9416 8.92798 23.8512 7.32089C23.7608 5.45423 23.335 3.79756 21.97 2.43256C20.6021 1.06464 18.9483 0.641727 17.0816 0.55131C15.4716 0.460894 13.8762 0.475477 12.2691 0.475477C10.6591 0.475477 9.06372 0.460894 7.45664 0.55131C5.58997 0.641727 3.9333 1.06756 2.5683 2.43256C1.20039 3.80048 0.777469 5.45423 0.687052 7.32089C0.596636 8.93089 0.611219 10.5263 0.611219 12.1334C0.611219 13.7405 0.596636 15.3388 0.687052 16.9459C0.777469 18.8126 1.2033 20.4692 2.5683 21.8342C3.93622 23.2021 5.58997 23.6251 7.45664 23.7155C9.06664 23.8059 10.6621 23.7913 12.2691 23.7913C13.8791 23.7913 15.4746 23.8059 17.0816 23.7155C18.9483 23.6251 20.605 23.1992 21.97 21.8342C23.3379 20.4663 23.7608 18.8126 23.8512 16.9459C23.9446 15.3388 23.9271 13.7434 23.9271 12.1334ZM12.2662 18.1155C8.9558 18.1155 6.28414 15.4438 6.28414 12.1334C6.28414 8.82298 8.9558 6.15131 12.2662 6.15131C15.5766 6.15131 18.2483 8.82298 18.2483 12.1334C18.2483 15.4438 15.5766 18.1155 12.2662 18.1155ZM18.4933 7.30339C17.7204 7.30339 17.0962 6.67923 17.0962 5.90631C17.0962 5.13339 17.7204 4.50923 18.4933 4.50923C19.2662 4.50923 19.8904 5.13339 19.8904 5.90631C19.8906 6.08984 19.8546 6.27162 19.7845 6.44122C19.7144 6.61083 19.6115 6.76493 19.4817 6.89471C19.3519 7.02449 19.1978 7.12739 19.0282 7.19752C18.8586 7.26764 18.6768 7.30362 18.4933 7.30339Z" fill="#323232"/>
</svg>
