<svg width="27" height="20" viewBox="0 0 27 20" fill="none" xmlns="http://www.w3.org/2000/svg">
<path d="M9.04555 19.0667C18.8545 19.0667 24.221 11.7304 24.221 5.37034C24.221 5.16409 24.2159 4.95327 24.2058 4.74703C25.2497 4.06564 26.1507 3.22165 26.8662 2.2547C25.8939 2.64512 24.8617 2.90009 23.8046 3.01092C24.9176 2.4088 25.751 1.4629 26.1502 0.348564C25.1031 0.908605 23.9581 1.30367 22.7641 1.51681C21.9596 0.745326 20.8959 0.23451 19.7375 0.0633415C18.5791 -0.107827 17.3905 0.0701851 16.3554 0.569856C15.3204 1.06953 14.4965 1.86303 14.0112 2.82767C13.5259 3.79232 13.4063 4.87438 13.6707 5.90657C11.5506 5.81055 9.47648 5.31348 7.58286 4.44758C5.68924 3.58169 4.01838 2.3663 2.67859 0.880211C1.99764 1.93982 1.78927 3.19367 2.09583 4.38695C2.40238 5.58024 3.20086 6.6234 4.32898 7.30443C3.48206 7.28016 2.65368 7.07436 1.9123 6.70404V6.76362C1.91155 7.87559 2.33748 8.95349 3.11771 9.81408C3.89794 10.6747 4.98431 11.2648 6.19215 11.4843C5.4076 11.678 4.58419 11.7062 3.78563 11.5668C4.12645 12.5231 4.78958 13.3595 5.68246 13.9593C6.57534 14.5591 7.65343 14.8923 8.76625 14.9125C6.877 16.2519 4.54323 16.9783 2.14082 16.9749C1.71477 16.9743 1.28914 16.9508 0.866211 16.9043C3.30681 18.3175 6.14587 19.068 9.04555 19.0667Z" fill="#323232"/>
</svg>
