<svg width="24" height="24" viewBox="0 0 24 24" fill="none" xmlns="http://www.w3.org/2000/svg">
<path d="M12.2652 8.24548C10.1244 8.24548 8.37733 9.99256 8.37733 12.1334C8.37733 14.2742 10.1244 16.0213 12.2652 16.0213C14.4061 16.0213 16.1532 14.2742 16.1532 12.1334C16.1532 9.99256 14.4061 8.24548 12.2652 8.24548ZM23.9261 12.1334C23.9261 10.5234 23.9407 8.92798 23.8502 7.32089C23.7598 5.45423 23.334 3.79756 21.969 2.43256C20.6011 1.06464 18.9473 0.641727 17.0807 0.55131C15.4707 0.460894 13.8752 0.475477 12.2682 0.475477C10.6582 0.475477 9.06274 0.460894 7.45566 0.55131C5.58899 0.641727 3.93233 1.06756 2.56733 2.43256C1.19941 3.80048 0.776492 5.45423 0.686076 7.32089C0.595659 8.93089 0.610243 10.5263 0.610243 12.1334C0.610243 13.7405 0.595659 15.3388 0.686076 16.9459C0.776492 18.8126 1.20233 20.4692 2.56733 21.8342C3.93524 23.2021 5.58899 23.6251 7.45566 23.7155C9.06566 23.8059 10.6611 23.7913 12.2682 23.7913C13.8782 23.7913 15.4736 23.8059 17.0807 23.7155C18.9473 23.6251 20.604 23.1992 21.969 21.8342C23.3369 20.4663 23.7598 18.8126 23.8502 16.9459C23.9436 15.3388 23.9261 13.7434 23.9261 12.1334ZM12.2652 18.1155C8.95483 18.1155 6.28316 15.4438 6.28316 12.1334C6.28316 8.82298 8.95483 6.15131 12.2652 6.15131C15.5757 6.15131 18.2473 8.82298 18.2473 12.1334C18.2473 15.4438 15.5757 18.1155 12.2652 18.1155ZM18.4923 7.30339C17.7194 7.30339 17.0952 6.67923 17.0952 5.90631C17.0952 5.13339 17.7194 4.50923 18.4923 4.50923C19.2652 4.50923 19.8894 5.13339 19.8894 5.90631C19.8896 6.08984 19.8537 6.27162 19.7835 6.44122C19.7134 6.61083 19.6105 6.76493 19.4807 6.89471C19.351 7.02449 19.1968 7.12739 19.0272 7.19752C18.8576 7.26764 18.6759 7.30362 18.4923 7.30339Z" fill="white"/>
</svg>
