<svg width="182" height="201" viewBox="0 0 182 201" fill="none" xmlns="http://www.w3.org/2000/svg">
<path d="M79.471 158.887L90.8695 150.749L90.8806 80.99L79.471 158.887ZM79.4776 89.0863L79.471 158.887L90.8806 80.99L79.4776 89.0863ZM79.4788 76.0844L90.8826 67.9957L90.8927 4.04494L79.4788 76.0844ZM169.658 167.407L181.007 159.259L123.104 74.7916L169.658 167.407ZM79.4848 12.0961L90.8927 4.04494L58.2665 1L79.4848 12.0961ZM68.058 167.034L79.471 158.887L79.4776 89.0863L68.058 167.034ZM46.8408 9.04728L79.4848 12.0961L58.2665 1L46.8408 9.04728ZM111.718 82.8863L169.658 167.407L123.104 74.7916L111.718 82.8863ZM79.4848 12.0961L79.4788 76.0844L90.8927 4.04494L79.4848 12.0961ZM111.718 82.8863L123.104 74.7916L176.815 12.0639L111.718 82.8863ZM68.0601 97.1928L68.058 167.034L79.4776 89.0863L68.0601 97.1928ZM68.0606 84.1833L79.4788 76.0844L79.4848 12.0961L68.0606 84.1833ZM158.294 175.565L169.658 167.407L111.718 82.8863L158.294 175.565ZM165.454 20.1251L176.815 12.0639L137.616 8.40553L165.454 20.1251ZM68.0625 20.1574L79.4848 12.0961L46.8408 9.04728L68.0625 20.1574ZM56.6306 175.192L68.058 167.034L68.0601 97.1928L56.6306 175.192ZM165.454 20.1251L111.718 82.8863L176.815 12.0639L165.454 20.1251ZM126.234 16.4622L165.454 20.1251L137.616 8.40553L126.234 16.4622ZM35.4005 17.1047L68.0625 20.1574L46.8408 9.04728L35.4005 17.1047ZM100.317 90.9912L158.294 175.565L111.718 82.8863L100.317 90.9912ZM68.0625 20.1574L68.0606 84.1833L79.4848 12.0961L68.0625 20.1574ZM100.317 90.9912L111.718 82.8863L165.454 20.1251L100.317 90.9912ZM56.6283 105.31L56.6306 175.192L68.0601 97.1928L56.6283 105.31ZM56.6278 92.2924L68.0606 84.1833L68.0625 20.1574L56.6278 92.2924ZM146.916 183.733L158.294 175.565L100.317 90.9912L146.916 183.733ZM154.079 28.1966L165.454 20.1251L126.234 16.4622L154.079 28.1966ZM56.6257 28.2289L68.0625 20.1574L35.4005 17.1047L56.6257 28.2289ZM45.1887 183.36L56.6306 175.192L56.6283 105.31L45.1887 183.36ZM154.079 28.1966L100.317 90.9912L165.454 20.1251L154.079 28.1966ZM114.837 24.529L154.079 28.1966L126.234 16.4622L114.837 24.529ZM23.9458 25.1724L56.6257 28.2289L35.4005 17.1047L23.9458 25.1724ZM88.9025 99.1065L146.916 183.733L100.317 90.9912L88.9025 99.1065ZM56.6257 28.2289L56.6278 92.2924L68.0625 20.1574L56.6257 28.2289ZM88.9025 99.1065L100.317 90.9912L154.079 28.1966L88.9025 99.1065ZM45.1819 113.437L45.1887 183.36L56.6283 105.31L45.1819 113.437ZM45.1807 100.412L56.6278 92.2924L56.6257 28.2289L45.1807 100.412ZM135.524 191.912L146.916 183.733L88.9025 99.1065L135.524 191.912ZM142.69 36.2783L154.079 28.1966L114.837 24.529L142.69 36.2783ZM45.1744 36.3106L56.6257 28.2289L23.9458 25.1724L45.1744 36.3106ZM33.7323 191.538L45.1887 183.36L45.1819 113.437L33.7323 191.538ZM142.69 36.2783L88.9025 99.1065L154.079 28.1966L142.69 36.2783ZM103.426 32.6061L142.69 36.2783L114.837 24.529L103.426 32.6061ZM12.4766 33.2503L45.1744 36.3106L23.9458 25.1724L12.4766 33.2503ZM77.4733 107.232L135.524 191.912L88.9025 99.1065L77.4733 107.232ZM45.1744 36.3106L45.1807 100.412L56.6257 28.2289L45.1744 36.3106ZM77.4733 107.232L88.9025 99.1065L142.69 36.2783L77.4733 107.232ZM33.7211 121.574L33.7323 191.538L45.1819 113.437L33.7211 121.574Z" fill="#323232"/>
<path d="M1.04688 188.442L33.7359 191.539L33.7246 121.574L1.04688 188.442Z" fill="#323232"/>
<path d="M33.7305 108.542L45.1922 100.412L45.1859 36.3108L33.7305 108.542Z" fill="#323232"/>
<path d="M33.7225 108.541L1.04688 188.441L33.7246 121.574L33.7225 108.541Z" fill="#323232"/>
<path d="M124.117 200.101L135.524 191.912L77.4733 107.231L124.117 200.101ZM131.286 44.3697L142.69 36.2777L103.426 32.6055L131.286 44.3697ZM33.7087 44.402L45.1744 36.31L12.4766 33.2497L33.7087 44.402Z" fill="#323232"/>
<path d="M33.7225 108.541L33.7122 44.4023L1.04688 188.441L33.7225 108.541Z" fill="#323232"/>
<path d="M131.297 44.3703L77.4844 107.232L142.701 36.2783L131.297 44.3703Z" fill="#323232"/>
<path d="M33.7159 44.4029L1 41.3386L1.05057 188.442L33.7159 44.4029Z" fill="#323232"/>
<path d="M92.0078 40.6928L131.293 44.3697L103.433 32.6055L92.0078 40.6928ZM1 41.3378L33.7159 44.402L12.4838 33.2497L1 41.3378Z" fill="#323232"/>
<path d="M90.8999 4.04494L58.2737 1M12.4838 33.2503L1 41.3384L12.4838 33.2503ZM23.953 25.1724L12.4838 33.2503L23.953 25.1724ZM35.4077 17.1047L23.953 25.1724L35.4077 17.1047ZM46.848 9.04728L35.4077 17.1047L46.848 9.04728ZM46.848 9.04728L58.2737 1L46.848 9.04728Z" stroke="#707070" stroke-linecap="round"/>
<path d="M66.0391 115.368L124.127 200.102L77.4828 107.232L66.0391 115.368Z" fill="#323232"/>
<path d="M169.671 167.407L181.02 159.259M135.538 191.913L124.131 200.102L135.538 191.913ZM146.93 183.734L135.538 191.913L146.93 183.734ZM158.308 175.565L146.93 183.734L158.308 175.565ZM169.671 167.407L158.308 175.565L169.671 167.407ZM181.02 159.259L123.117 74.7917L181.02 159.259Z" stroke="#707070" stroke-linecap="round"/>
<path d="M33.7305 121.574L82.6001 196.167L66.039 115.367L33.7305 121.574Z" fill="#323232"/>
<path d="M33.7148 44.4028L33.7252 108.542L45.1806 36.3108L33.7148 44.4028Z" fill="#323232"/>
<path d="M79.485 76.0846L90.8888 67.996M45.1806 36.3109L33.7148 44.4029L45.1806 36.3109ZM45.1869 100.412L33.7252 108.542L45.1869 100.412ZM56.6319 28.2291L45.1806 36.3109L56.6319 28.2291ZM56.634 92.2927L45.1869 100.412L56.634 92.2927ZM68.0687 20.1576L56.6319 28.2291L68.0687 20.1576ZM68.0667 84.1835L56.634 92.2927L68.0667 84.1835ZM79.491 12.0963L68.0687 20.1576L79.491 12.0963ZM79.485 76.0846L68.0667 84.1835L79.485 76.0846ZM79.491 12.0963L90.8989 4.04517L79.491 12.0963ZM90.8888 67.996L90.8989 4.04517L90.8888 67.996Z" stroke="#707070" stroke-linecap="round"/>
<path d="M33.7326 121.574L66.0411 115.367L33.7305 108.541L33.7326 121.574Z" fill="#323232"/>
<path d="M66.0391 115.368L77.4828 107.232L131.295 44.3706L66.0391 115.368Z" fill="#323232"/>
<path d="M82.6022 196.168L124.129 200.102L66.0411 115.368L82.6022 196.168ZM66.0411 115.368L119.879 52.4731L33.7305 108.542L66.0411 115.368Z" fill="#323232"/>
<path d="M119.877 52.473L131.295 44.3708L92.01 40.6938L119.877 52.473ZM119.877 52.473L66.0391 115.368L131.295 44.3708L119.877 52.473Z" fill="#323232"/>
<path d="M111.727 82.8864L123.113 74.7917M77.4828 107.232L66.0391 115.368L77.4828 107.232ZM88.912 99.1065L77.4828 107.232L88.912 99.1065ZM100.327 90.9913L88.912 99.1065L100.327 90.9913ZM111.727 82.8864L100.327 90.9913L111.727 82.8864ZM123.113 74.7917L176.824 12.064L123.113 74.7917Z" stroke="#707070" stroke-linecap="round"/>
<path d="M119.879 52.4726L80.572 48.791L33.7305 108.542L119.879 52.4726Z" fill="#323232"/>
<path d="M82.5979 196.168L33.7283 121.574M33.7396 191.539L1.05057 188.442L33.7396 191.539ZM33.7283 121.574L33.7396 191.539L33.7283 121.574ZM1 41.3386L33.7159 44.4029L1 41.3386ZM1 41.3386L1.05057 188.442L1 41.3386ZM33.7262 108.542L80.5677 48.7912L33.7262 108.542ZM124.124 200.102L82.5979 196.168L124.124 200.102ZM66.0369 115.368L124.124 200.102L66.0369 115.368ZM33.7262 108.542L33.7159 44.4029L33.7262 108.542ZM66.0369 115.368L119.874 52.4727L66.0369 115.368Z" stroke="#707070" stroke-linecap="round"/>
<path d="M80.5781 48.7914L119.885 52.473L92.0182 40.6938L80.5781 48.7914Z" fill="#323232"/>
<path d="M165.472 20.1251L176.833 12.0639M80.5781 48.7909L119.885 52.4725L80.5781 48.7909ZM92.0182 40.6934L80.5781 48.7909L92.0182 40.6934ZM131.303 44.3703L119.885 52.4725L131.303 44.3703ZM103.444 32.6061L92.0182 40.6934L103.444 32.6061ZM142.707 36.2783L131.303 44.3703L142.707 36.2783ZM114.855 24.529L103.444 32.6061L114.855 24.529ZM154.097 28.1966L142.707 36.2783L154.097 28.1966ZM126.251 16.4622L114.855 24.529L126.251 16.4622ZM165.472 20.1251L154.097 28.1966L165.472 20.1251ZM126.251 16.4622L137.634 8.40552L126.251 16.4622ZM176.833 12.0639L137.634 8.40552L176.833 12.0639Z" stroke="#707070" stroke-linecap="round"/>
<path d="M32.3906 191.445L63.7827 170.517" stroke="#707070"/>
</svg>
