<svg width="206" height="201" viewBox="0 0 206 201" fill="none" xmlns="http://www.w3.org/2000/svg">
<path d="M78.5044 156.836L89.7632 148.805L89.7709 57.195L78.5044 156.836ZM78.5063 65.172L78.5044 156.836L89.7709 57.195L78.5063 65.172ZM122.197 125.167L133.434 117.152L172.73 64.3491L122.197 125.167ZM78.7088 11.9697L89.9766 4.02388L57.576 1L78.7088 11.9697ZM67.2314 164.877L78.5044 156.836L78.5063 65.172L67.2314 164.877ZM122.21 77.1401L133.45 69.1532L89.9766 4.02388L122.21 77.1401ZM46.2904 8.94199L78.7088 11.9697L57.576 1L46.2904 8.94199ZM78.7088 11.9697L122.21 77.1401L89.9766 4.02388L78.7088 11.9697ZM193.712 167.72L204.907 159.675L205.014 14.7601L193.712 167.72ZM161.511 72.3355L122.197 125.167L172.73 64.3491L161.511 72.3355ZM67.2274 73.1591L67.2314 164.877L78.5063 65.172L67.2274 73.1591ZM110.946 133.192L122.197 125.167L161.511 72.3355L110.946 133.192ZM67.4266 19.9255L78.7088 11.9697L46.2904 8.94199L67.4266 19.9255ZM55.9441 172.928L67.2314 164.877L67.2274 73.1591L55.9441 172.928ZM110.956 85.1369L122.21 77.1401L78.7088 11.9697L110.956 85.1369ZM34.9904 16.894L67.4266 19.9255L46.2904 8.94199L34.9904 16.894ZM193.809 22.7195L205.014 14.7601L174.573 11.9191L193.809 22.7195ZM193.809 22.7195L193.712 167.72L205.014 14.7601L193.809 22.7195ZM67.4266 19.9255L110.956 85.1369L78.7088 11.9697L67.4266 19.9255ZM163.352 19.8749L193.809 22.7195L174.573 11.9191L163.352 19.8749ZM182.502 175.774L193.712 167.72L193.809 22.7195L182.502 175.774ZM150.278 80.3321L110.946 133.192L161.511 72.3355L150.278 80.3321ZM55.9343 81.1563L55.9441 172.928L67.2274 73.1591L55.9343 81.1563ZM99.6802 141.227L110.946 133.192L150.278 80.3321L99.6802 141.227ZM56.1302 27.8915L67.4266 19.9255L34.9904 16.894L56.1302 27.8915ZM44.6426 180.989L55.9441 172.928L55.9343 81.1563L44.6426 180.989ZM99.6869 93.144L110.956 85.1369L67.4266 19.9255L99.6869 93.144ZM23.6762 24.8561L56.1302 27.8915L34.9904 16.894L23.6762 24.8561ZM182.59 30.6889L193.809 22.7195L163.352 19.8749L182.59 30.6889ZM182.59 30.6889L182.502 175.774L193.809 22.7195L182.59 30.6889ZM56.1302 27.8915L99.6869 93.144L67.4266 19.9255L56.1302 27.8915ZM152.116 27.8408L182.59 30.6889L163.352 19.8749L152.116 27.8408ZM171.278 183.839L182.502 175.774L182.59 30.6889L171.278 183.839ZM139.03 88.3388L99.6802 141.227L150.278 80.3321L139.03 88.3388ZM44.6268 89.1636L44.6426 180.989L55.9343 81.1563L44.6268 89.1636ZM88.4003 149.272L99.6802 141.227L139.03 88.3388L88.4003 149.272ZM44.8194 35.8675L56.1302 27.8915L23.6762 24.8561L44.8194 35.8675ZM33.3267 189.061L44.6426 180.989L44.6268 89.1636L33.3267 189.061ZM88.404 101.161L99.6869 93.144L56.1302 27.8915L88.404 101.161ZM12.3477 32.8283L44.8194 35.8675L23.6762 24.8561L12.3477 32.8283ZM171.357 38.6685L182.59 30.6889L152.116 27.8408L171.357 38.6685ZM171.357 38.6685L171.278 183.839L182.59 30.6889L171.357 38.6685ZM44.8194 35.8675L88.404 101.161L56.1302 27.8915L44.8194 35.8675ZM140.866 35.8167L171.357 38.6685L152.116 27.8408L140.866 35.8167ZM160.04 191.914L171.278 183.839L171.357 38.6685L160.04 191.914ZM127.769 96.3557L88.4003 149.272L139.03 88.3388L127.769 96.3557Z" fill="#323232"/>
<path d="M1.06641 186.004L33.3277 189.06L33.306 97.1809L1.06641 186.004Z" fill="#323232"/>
<path d="M33.293 97.1811L33.3146 189.06L44.6147 89.1636L33.293 97.1811Z" fill="#323232"/>
<path d="M77.1062 157.328L88.4003 149.273L127.769 96.356L77.1062 157.328ZM33.4944 43.854L44.8194 35.8678L12.3477 32.8286L33.4944 43.854Z" fill="#323232"/>
<path d="M33.4953 43.8538L1.06641 186.004L33.3061 97.1812L33.4953 43.8538Z" fill="#323232"/>
<path d="M77.1038 109.189L88.401 101.162L44.8164 35.8679L77.1038 109.189Z" fill="#323232"/>
<path d="M33.4896 43.8536L1 40.8105L1.06069 186.004L33.4896 43.8536Z" fill="#323232"/>
<path d="M1 40.8109L33.4896 43.854L12.3429 32.8286L1 40.8109Z" fill="#323232"/>
<path d="M89.9719 4.02388L57.5713 1M12.3429 32.8283L1 40.8106L12.3429 32.8283ZM23.6715 24.8561L12.3429 32.8283L23.6715 24.8561ZM34.9857 16.894L23.6715 24.8561L34.9857 16.894ZM46.2856 8.94199L34.9857 16.894L46.2856 8.94199ZM46.2856 8.94199L57.5713 1L46.2856 8.94199Z" stroke="#707070" stroke-linecap="round"/>
<path d="M160.104 46.6579L171.351 38.6682L140.86 35.8164L160.104 46.6579ZM160.104 46.6579L160.034 191.914L171.351 38.6682L160.104 46.6579ZM33.4883 43.8533L77.1007 109.188L44.8134 35.8672L33.4883 43.8533Z" fill="#323232"/>
<path d="M122.204 77.1403L133.444 69.1535M44.8134 35.8678L33.4883 43.8539L44.8134 35.8678ZM88.3979 101.161L77.1007 109.189L88.3979 101.161ZM56.1241 27.8918L44.8134 35.8678L56.1241 27.8918ZM99.6808 93.1443L88.3979 101.161L99.6808 93.1443ZM67.4205 19.9258L56.1241 27.8918L67.4205 19.9258ZM110.949 85.1372L99.6808 93.1443L110.949 85.1372ZM78.7027 11.97L67.4205 19.9258L78.7027 11.97ZM122.204 77.1403L110.949 85.1372L122.204 77.1403ZM78.7027 11.97L89.9706 4.02417L78.7027 11.97ZM133.444 69.1535L89.9706 4.02417L133.444 69.1535Z" stroke="#707070" stroke-linecap="round"/>
<path d="M33.4823 43.8538L33.293 97.1812L72.4516 156.89L33.4823 43.8538Z" fill="#323232"/>
<path d="M129.598 43.8025L160.105 46.6579L140.862 35.8164L129.598 43.8025Z" fill="#323232"/>
<path d="M77.1007 109.189L33.4883 43.8538L72.4577 156.89L77.1007 109.189Z" fill="#323232"/>
<path d="M148.789 199.999L160.041 191.914L160.112 46.658L148.789 199.999Z" fill="#323232"/>
<path d="M72.4648 156.89L77.1073 157.328L116.494 104.383L72.4648 156.89Z" fill="#323232"/>
<path d="M116.484 104.382L77.0977 157.328L127.76 96.3555L116.484 104.382Z" fill="#323232"/>
<path d="M72.4648 156.889L116.494 104.383L77.1079 109.188L72.4648 156.889ZM116.472 196.938L148.788 199.999L148.849 54.658L116.472 196.938ZM116.494 104.383L116.472 196.938L148.849 54.658L116.494 104.383Z" fill="#323232"/>
<path d="M148.844 54.6587L160.105 46.6588L129.598 43.8035L148.844 54.6587ZM148.844 54.6587L148.783 200L160.105 46.6588L148.844 54.6587Z" fill="#323232"/>
<path d="M193.713 167.719L204.909 159.675M160.041 191.914L148.789 199.999L160.041 191.914ZM171.28 183.839L160.041 191.914L171.28 183.839ZM182.504 175.774L171.28 183.839L182.504 175.774ZM193.713 167.719L182.504 175.774L193.713 167.719ZM204.909 159.675L205.016 14.7598L204.909 159.675Z" stroke="#707070" stroke-linecap="round"/>
<path d="M116.483 104.383L148.839 54.6581L77.0977 109.189L116.483 104.383ZM148.839 54.6581L118.315 51.7991L77.0977 109.189L148.839 54.6581Z" fill="#323232"/>
<path d="M77.1021 109.188L33.4896 43.8536M33.322 189.061L1.06069 186.004L33.322 189.061ZM33.3003 97.1811L33.322 189.061L33.3003 97.1811ZM1 40.8105L33.4896 43.8536L1 40.8105ZM1 40.8105L1.06069 186.004L1 40.8105ZM77.1021 109.188L118.319 51.799L77.1021 109.188ZM148.783 199.999L116.466 196.938L148.783 199.999ZM148.783 199.999L148.843 54.658L148.783 199.999ZM77.1015 157.328L72.459 156.889L77.1015 157.328ZM116.488 104.383L77.1015 157.328L116.488 104.383ZM116.488 104.383L116.466 196.938L116.488 104.383ZM72.459 156.889L33.3003 97.1811L72.459 156.889Z" stroke="#707070" stroke-linecap="round"/>
<path d="M118.316 51.7997L148.841 54.6587L129.595 43.8035L118.316 51.7997Z" fill="#323232"/>
<path d="M193.802 22.7195L205.007 14.7601M118.316 51.7991L148.841 54.6581L118.316 51.7991ZM129.595 43.8029L118.316 51.7991L129.595 43.8029ZM160.102 46.6583L148.841 54.6581L160.102 46.6583ZM140.859 35.8168L129.595 43.8029L140.859 35.8168ZM171.35 38.6686L160.102 46.6583L171.35 38.6686ZM152.109 27.8409L140.859 35.8168L152.109 27.8409ZM182.583 30.689L171.35 38.6686L182.583 30.689ZM163.345 19.875L152.109 27.8409L163.345 19.875ZM193.802 22.7195L182.583 30.689L193.802 22.7195ZM163.345 19.875L174.566 11.9192L163.345 19.875ZM205.007 14.7601L174.566 11.9192L205.007 14.7601Z" stroke="#707070" stroke-linecap="round"/>
<path d="M33 189L116 129" stroke="#707070"/>
</svg>
