<svg width="175" height="201" viewBox="0 0 175 201" fill="none" xmlns="http://www.w3.org/2000/svg">
<path d="M79.7041 159.375L91.1356 151.213L91.1563 35.6087L79.7041 159.375ZM79.7175 43.7035L79.7041 159.375L91.1563 35.6087L79.7175 43.7035ZM68.2582 167.548L79.7041 159.375L79.7175 43.7035L68.2582 167.548ZM162.595 167.206L173.981 159.034L174.075 11.7925L162.595 167.206ZM46.9751 9.07241L162.68 19.8786L58.4339 1L46.9751 9.07241ZM162.68 19.8786L174.075 11.7925L58.4339 1L162.68 19.8786ZM68.2642 51.8085L68.2582 167.548L79.7175 43.7035L68.2642 51.8085ZM162.68 19.8786L162.595 167.206L174.075 11.7925L162.68 19.8786ZM56.7978 175.732L68.2582 167.548L68.2642 51.8085L56.7978 175.732ZM151.194 175.389L162.595 167.206L162.68 19.8786L151.194 175.389ZM35.5018 17.155L151.27 27.9749L46.9751 9.07241L35.5018 17.155ZM151.27 27.9749L162.68 19.8786L46.9751 9.07241L151.27 27.9749ZM56.7964 59.9238L56.7978 175.732L68.2642 51.8085L56.7964 59.9238ZM151.27 27.9749L151.194 175.389L162.68 19.8786L151.27 27.9749ZM45.3229 183.925L56.7978 175.732L56.7964 59.9238L45.3229 183.925ZM139.779 183.582L151.194 175.389L151.27 27.9749L139.779 183.582ZM24.0141 25.2479L139.846 36.0815L35.5018 17.155L24.0141 25.2479ZM139.846 36.0815L151.27 27.9749L35.5018 17.155L139.846 36.0815ZM45.3141 68.0494L45.3229 183.925L56.7964 59.9238L45.3141 68.0494ZM139.846 36.0815L139.779 183.582L151.27 27.9749L139.846 36.0815ZM33.8335 192.129L45.3229 183.925L45.3141 68.0494L33.8335 192.129ZM128.35 191.786L139.779 183.582L139.846 36.0815L128.35 191.786ZM12.5117 33.351L128.407 44.1983L24.0141 25.2479L12.5117 33.351ZM128.407 44.1983L139.846 36.0815L24.0141 25.2479L128.407 44.1983Z" fill="#323232"/>
<path d="M1.04688 189.023L33.838 192.13L33.8217 76.1858L1.04688 189.023Z" fill="#323232"/>
<path d="M33.8203 76.1852L33.8365 192.129L45.3172 68.0493L33.8203 76.1852Z" fill="#323232"/>
<path d="M128.405 44.1979L128.348 191.785L139.843 36.0811L128.405 44.1979Z" fill="#323232"/>
<path d="M1 41.4646L1.04761 189.023L33.8225 76.1855L1 41.4646Z" fill="#323232"/>
<path d="M116.911 200L128.355 191.786L128.412 44.1984L116.911 200ZM1 41.4644L116.959 52.3255L12.5169 33.3511L1 41.4644ZM116.959 52.3255L128.412 44.1984L12.5169 33.3511L116.959 52.3255Z" fill="#323232"/>
<path d="M58.4391 1L174.08 11.7925M12.5169 33.351L1 41.4644L12.5169 33.351ZM24.0192 25.2479L12.5169 33.351L24.0192 25.2479ZM35.507 17.155L24.0192 25.2479L35.507 17.155ZM46.9803 9.07242L35.507 17.155L46.9803 9.07242ZM46.9803 9.07242L58.4391 1L46.9803 9.07242Z" stroke="#707070" stroke-linecap="round"/>
<path d="M1 41.4646L33.8225 76.1855L84.0968 80.906L1 41.4646ZM84.0805 196.889L116.911 200L116.959 52.3257L84.0805 196.889ZM84.0968 80.906L84.0805 196.889L116.959 52.3257L84.0968 80.906Z" fill="#323232"/>
<path d="M116.962 52.3254L116.914 200L128.415 44.1982L116.962 52.3254Z" fill="#323232"/>
<path d="M162.602 167.206L173.988 159.033M128.415 44.1978L116.962 52.3249L128.415 44.1978ZM128.358 191.785L116.914 199.999L128.358 191.785ZM139.854 36.0809L128.415 44.1978L139.854 36.0809ZM139.787 183.582L128.358 191.785L139.787 183.582ZM151.278 27.9744L139.854 36.0809L151.278 27.9744ZM151.202 175.388L139.787 183.582L151.202 175.388ZM162.687 19.8781L151.278 27.9744L162.687 19.8781ZM162.602 167.206L151.202 175.388L162.602 167.206ZM162.687 19.8781L174.083 11.792L162.687 19.8781ZM173.988 159.033L174.083 11.792L173.988 159.033Z" stroke="#707070" stroke-linecap="round"/>
<path d="M84.0968 80.906L116.959 52.3257L1 41.4646L84.0968 80.906Z" fill="#323232"/>
<path d="M84.0968 80.906L33.8225 76.1855M116.911 200L84.0805 196.889L116.911 200ZM116.959 52.3257L116.911 200L116.959 52.3257ZM33.8387 192.129L1.04761 189.023L33.8387 192.129ZM33.8225 76.1855L33.8387 192.129L33.8225 76.1855ZM84.0968 80.906L84.0805 196.889L84.0968 80.906ZM1 41.4646L1.04761 189.023L1 41.4646ZM1 41.4646L116.959 52.3257L1 41.4646Z" stroke="#707070" stroke-linecap="round"/>
<path d="M34 192L84 156" stroke="#707070"/>
</svg>
