<svg width="34" height="34" viewBox="0 0 34 34" fill="none" xmlns="http://www.w3.org/2000/svg">
<path d="M17.8906 9.19755C19.8197 8.6479 21.9427 9.1032 23.4192 10.5797C24.8956 12.0562 25.3509 14.1791 24.8013 16.1082M19.6183 11.6163C20.3073 11.4791 21.1009 11.7168 21.6915 12.3074C22.2821 12.8979 22.5198 13.6915 22.3826 14.3806" stroke="#323232" stroke-width="1.5" stroke-linecap="round" stroke-linejoin="round"/>
<path d="M19.8238 24.924C20.6101 25.0626 21.4185 25.0626 22.2048 24.924C23.4687 24.7013 24.4867 23.8528 24.8373 22.7299L24.9117 22.4917C24.989 22.2441 25.0282 21.988 25.0282 21.7307C25.0282 20.596 24.0134 19.6761 22.7616 19.6761H19.267C18.0152 19.6761 17.0004 20.596 17.0004 21.7307C17.0004 21.988 17.0396 22.2441 17.117 22.4917L17.1913 22.7299C17.542 23.8528 18.56 24.7013 19.8238 24.924ZM19.8238 24.924C14.3619 23.912 10.0886 19.6387 9.07657 14.1768M9.07657 14.1768C8.93802 13.3905 8.93802 12.5821 9.07657 11.7958C9.29928 10.532 10.1478 9.51396 11.2707 9.16331L11.5089 9.08893C11.7565 9.01162 12.0126 8.97241 12.2699 8.97241C13.4047 8.97241 14.3245 9.98719 14.3245 11.239L14.3245 14.7336C14.3245 15.9854 13.4046 17.0002 12.2699 17.0002C12.0126 17.0002 11.7565 16.961 11.5089 16.8837L11.2707 16.8093C10.1478 16.4586 9.29928 15.4406 9.07657 14.1768Z" stroke="#323232" stroke-width="1.5"/>
<circle cx="17" cy="17" r="16.25" stroke="#323232" stroke-width="1.5"/>
</svg>
