<svg width="159" height="132" viewBox="0 0 159 132" fill="none" xmlns="http://www.w3.org/2000/svg">
<path d="M106.204 90.9905L108.93 89.0324L108.928 21.2882L106.204 90.9905ZM103.474 92.9511L106.204 90.9905L106.198 23.2066L103.474 92.9511ZM106.198 23.2066L106.204 90.9905L108.928 21.2882L106.198 23.2066ZM100.742 94.9142L103.474 92.9511L103.464 25.1275L100.742 94.9142ZM103.464 25.1275L103.474 92.9511L106.198 23.2066L103.464 25.1275ZM154.79 95.6186L157.489 93.6547L157.585 7.27806L154.79 95.6186ZM87.0027 2.90529L154.881 9.1913L89.7447 1L87.0027 2.90529ZM98.0053 96.8798L100.742 94.9142L100.727 27.0507L98.0053 96.8798ZM100.727 27.0507L100.742 94.9142L103.464 25.1275L100.727 27.0507ZM152.087 97.5851L154.79 95.6186L154.881 9.1913L152.087 97.5851ZM154.881 9.1913L157.585 7.27806L89.7447 1L154.881 9.1913ZM84.2573 4.813L152.173 11.107L87.0027 2.90529L84.2573 4.813ZM154.881 9.1913L154.79 95.6186L157.585 7.27806L154.881 9.1913ZM95.2656 98.8478L98.0053 96.8798L97.9863 28.9764L95.2656 98.8478ZM97.9863 28.9764L98.0053 96.8798L100.727 27.0507L97.9863 28.9764Z" fill="#323232"/>
<path d="M76.0688 97.0142L95.2656 98.848L95.2422 30.9048L76.0688 97.0142Z" fill="#323232"/>
<path d="M149.381 99.554L152.087 97.5851L152.173 11.1069L149.381 99.554ZM152.173 11.1069L154.881 9.19128L87.0026 2.90527L152.173 11.1069ZM81.5083 6.72309L149.461 13.025L84.2572 4.81298L81.5083 6.72309ZM152.173 11.1069L152.087 97.5851L154.881 9.19128L152.173 11.1069Z" fill="#323232"/>
<path d="M76 10.5508L76.0686 97.0142L95.242 30.9048L76 10.5508Z" fill="#323232"/>
<path d="M95.2422 30.9047L95.2656 98.848L97.9863 28.9766L95.2422 30.9047Z" fill="#323232"/>
<path d="M106.204 90.9904L108.93 89.0323M97.9863 28.9763L95.2422 30.9045L97.9863 28.9763ZM98.0053 96.8797L95.2656 98.8477L98.0053 96.8797ZM100.727 27.0506L97.9863 28.9763L100.727 27.0506ZM100.742 94.9141L98.0053 96.8797L100.742 94.9141ZM103.464 25.1273L100.727 27.0506L103.464 25.1273ZM103.474 92.951L100.742 94.9141L103.474 92.951ZM106.198 23.2065L103.464 25.1273L106.198 23.2065ZM106.204 90.9904L103.474 92.951L106.204 90.9904ZM106.198 23.2065L108.928 21.2881L106.198 23.2065ZM108.93 89.0323L108.928 21.2881L108.93 89.0323Z" stroke="#707070" stroke-linecap="round"/>
<path d="M146.672 101.525L149.381 99.554L149.461 13.0251L146.672 101.525ZM149.461 13.0251L152.172 11.107L84.2571 4.81299L149.461 13.0251ZM78.7559 8.63564L146.746 14.9456L81.5082 6.72311L78.7559 8.63564ZM149.461 13.0251L149.381 99.554L152.172 11.107L149.461 13.0251ZM143.959 103.499L146.672 101.525L146.746 14.9456L143.959 103.499ZM146.746 14.9456L149.461 13.0251L81.5082 6.72311L146.746 14.9456Z" fill="#323232"/>
<path d="M76 10.5508L95.242 30.9048L124.728 33.66L76 10.5508Z" fill="#323232"/>
<path d="M76 10.5507L144.027 16.8686L78.7559 8.63574L76 10.5507Z" fill="#323232"/>
<path d="M124.705 101.66L143.959 103.5L144.028 16.8687L124.705 101.66Z" fill="#323232"/>
<path d="M146.746 14.9454L146.671 101.525L149.461 13.0249L146.746 14.9454Z" fill="#323232"/>
<path d="M124.728 33.6599L124.705 101.66L144.028 16.8687L124.728 33.6599Z" fill="#323232"/>
<path d="M144.027 16.8686L146.746 14.9457L78.7559 8.63574L144.027 16.8686Z" fill="#323232"/>
<path d="M89.7445 1L157.585 7.27806M78.7559 8.63565L76 10.5506L78.7559 8.63565ZM81.5082 6.72311L78.7559 8.63565L81.5082 6.72311ZM84.2571 4.813L81.5082 6.72311L84.2571 4.813ZM87.0025 2.90529L84.2571 4.813L87.0025 2.90529ZM87.0025 2.90529L89.7445 1L87.0025 2.90529Z" stroke="#707070" stroke-linecap="round"/>
<path d="M124.728 33.66L144.027 16.8687L76 10.5508L124.728 33.66Z" fill="#323232"/>
<path d="M124.728 33.66L95.242 30.9048M143.959 103.5L124.704 101.66L143.959 103.5ZM95.2654 98.848L76.0686 97.0142L95.2654 98.848ZM95.242 30.9048L95.2654 98.848L95.242 30.9048ZM124.728 33.66L124.704 101.66L124.728 33.66ZM76 10.5508L76.0686 97.0142L76 10.5508ZM76 10.5508L144.027 16.8687L76 10.5508Z" stroke="#707070" stroke-linecap="round"/>
<path d="M144.027 16.8688L143.958 103.5L146.746 14.9458L144.027 16.8688Z" fill="#323232"/>
<path d="M154.79 95.6184L157.489 93.6544M144.027 16.8683L143.958 103.499L144.027 16.8683ZM146.746 14.9454L144.027 16.8683L146.746 14.9454ZM146.671 101.525L143.958 103.499L146.671 101.525ZM149.461 13.0248L146.746 14.9454L149.461 13.0248ZM149.381 99.5538L146.671 101.525L149.381 99.5538ZM152.172 11.1067L149.461 13.0248L152.172 11.1067ZM152.087 97.5849L149.381 99.5538L152.087 97.5849ZM154.881 9.19107L152.172 11.1067L154.881 9.19107ZM154.79 95.6184L152.087 97.5849L154.79 95.6184ZM154.881 9.19107L157.585 7.27783L154.881 9.19107ZM157.489 93.6544L157.585 7.27783L157.489 93.6544Z" stroke="#707070" stroke-linecap="round"/>
<path d="M59.2422 117.982L59.2537 50.2039L56.5144 116.025L59.2422 117.982ZM59.2537 50.2039L56.5215 48.2861L56.5144 116.025L59.2537 50.2039ZM61.9735 119.942L61.9894 52.1241L59.2422 117.982L61.9735 119.942ZM61.9894 52.1241L59.2537 50.2039L59.2422 117.982L61.9894 52.1241ZM12.5437 99.1738L9.83998 97.2243L9.50263 97.7056L12.5437 99.1738ZM12.2061 99.6554L9.50263 97.7056L9.16439 98.1356L12.2061 99.6554ZM12.8762 98.6567L10.1723 96.7075L9.83998 97.2243L12.8762 98.6567ZM11.8677 100.086L9.16439 98.1356L8.82946 98.5397L11.8677 100.086ZM13.2037 98.1041L10.4996 96.1552L10.1723 96.7075L13.2037 98.1041ZM11.5326 100.49L8.82946 98.5397L8.49784 98.9177L11.5326 100.49ZM11.2007 100.868L8.49784 98.9177L8.16953 99.2698L11.2007 100.868ZM13.5262 97.516L10.8218 95.5675L10.4996 96.1552L13.5262 97.516ZM10.8722 101.221L8.16953 99.2698L7.84452 99.5958L10.8722 101.221ZM13.8436 96.8924L11.139 94.9443L10.8218 95.5675L13.8436 96.8924ZM10.547 101.547L7.84452 99.5958L7.52282 99.8959L10.547 101.547ZM14.156 96.2332L11.4512 94.2855L11.139 94.9443L14.156 96.2332ZM10.2251 101.847L7.52282 99.8959L7.20444 100.17L10.2251 101.847ZM9.90654 102.121L7.20444 100.17L6.88935 100.418L9.90654 102.121ZM14.4633 95.5386L11.7583 93.5913L11.4512 94.2855L14.4633 95.5386ZM78.4463 29.9047L75.7025 28L20.0212 33.1523L78.4463 29.9047ZM9.59127 102.37L6.88935 100.418L6.57758 100.64L9.59127 102.37ZM14.7656 94.8084L12.0604 92.8616L11.7583 93.5913L14.7656 94.8084ZM64.7083 121.905L64.7285 54.0468L61.9735 119.942L64.7083 121.905ZM4.03578 103.512L1.33695 101.559L1 121.308L4.03578 103.512ZM9.27932 102.592L6.57758 100.64L6.26911 100.836L9.27932 102.592ZM15.0629 94.0428L12.3575 92.0964L12.0604 92.8616L15.0629 94.0428ZM8.97066 102.788L6.26911 100.836L5.96395 101.006L8.97066 102.788ZM8.66533 102.958L5.96395 101.006L5.66209 101.15L8.66533 102.958ZM15.3551 93.2416L12.6495 91.2957L12.3575 92.0964L15.3551 93.2416ZM8.3633 103.103L5.66209 101.15L5.3752 101.253L8.3633 103.103ZM15.6423 92.4049L12.9365 90.4595L12.6495 91.2957L15.6423 92.4049ZM8.07624 103.205L5.3752 101.253L5.07494 101.343L8.07624 103.205ZM7.77582 103.295L5.07494 101.343L4.76132 101.421L7.77582 103.295ZM15.9245 91.5326L13.2185 89.5878L12.9365 90.4595L15.9245 91.5326ZM7.46202 103.373L4.76132 101.421L4.43432 101.486L7.46202 103.373ZM7.13484 103.438L4.43432 101.486L4.09396 101.538L7.13484 103.438ZM16.5312 89.5116L13.8247 87.568L13.2185 89.5878L16.5312 89.5116ZM3.6974 123.273L4.03578 103.512L1 121.308L3.6974 123.273ZM6.79429 103.491L4.09396 101.538L3.74023 101.579L6.79429 103.491ZM6.44036 103.531L3.74023 101.579L3.37312 101.607L6.44036 103.531ZM6.07305 103.559L3.37312 101.607L2.99264 101.622L6.07305 103.559ZM17.1128 87.2667L14.4058 85.3244L13.8247 87.568L17.1128 87.2667ZM5.69236 103.575L2.99264 101.622L2.59878 101.625L5.69236 103.575ZM5.29829 103.578L2.59878 101.625L2.19155 101.616L5.29829 103.578ZM4.89084 103.568L2.19155 101.616L1.77094 101.594L4.89084 103.568ZM17.6691 84.7977L14.9617 82.8569L14.4058 85.3244L17.6691 84.7977ZM4.47001 103.546L1.77094 101.594L1.33695 101.559L4.47001 103.546ZM18.2003 82.1046L15.4924 80.1655L14.9617 82.8569L18.2003 82.1046ZM12.2061 99.6554L12.5437 99.1738L9.50263 97.7056L12.2061 99.6554ZM12.5437 99.1738L12.8762 98.6567L9.83998 97.2243L12.5437 99.1738ZM11.8677 100.086L12.2061 99.6554L9.16439 98.1356L11.8677 100.086ZM12.8762 98.6567L13.2037 98.1041L10.1723 96.7075L12.8762 98.6567ZM11.5326 100.49L11.8677 100.086L8.82946 98.5397L11.5326 100.49ZM11.2007 100.868L11.5326 100.49L8.49784 98.9177L11.2007 100.868ZM13.2037 98.1041L13.5262 97.516L10.4996 96.1552L13.2037 98.1041ZM10.8722 101.221L11.2007 100.868L8.16953 99.2698L10.8722 101.221ZM13.5262 97.516L13.8436 96.8924L10.8218 95.5675L13.5262 97.516ZM10.547 101.547L10.8722 101.221L7.84452 99.5958L10.547 101.547ZM13.8436 96.8924L14.156 96.2332L11.139 94.9443L13.8436 96.8924ZM10.2251 101.847L10.547 101.547L7.52282 99.8959L10.2251 101.847ZM9.90654 102.121L10.2251 101.847L7.20444 100.17L9.90654 102.121ZM14.156 96.2332L14.4633 95.5386L11.4512 94.2855L14.156 96.2332ZM9.59127 102.37L9.90654 102.121L6.88935 100.418L9.59127 102.37ZM14.4633 95.5386L14.7656 94.8084L11.7583 93.5913L14.4633 95.5386ZM9.27932 102.592L9.59127 102.37L6.57758 100.64L9.27932 102.592ZM8.97066 102.788L9.27932 102.592L6.26911 100.836L8.97066 102.788ZM14.7656 94.8084L15.0629 94.0428L12.0604 92.8616L14.7656 94.8084ZM18.7063 79.1874L15.9979 77.25L15.4924 80.1655L18.7063 79.1874ZM8.66533 102.958L8.97066 102.788L5.96395 101.006L8.66533 102.958ZM15.0629 94.0428L15.3551 93.2416L12.3575 92.0964L15.0629 94.0428ZM8.3633 103.103L8.66533 102.958L5.66209 101.15L8.3633 103.103ZM15.3551 93.2416L15.6423 92.4049L12.6495 91.2957L15.3551 93.2416ZM8.07624 103.205L8.3633 103.103L5.3752 101.253L8.07624 103.205ZM7.77582 103.295L8.07624 103.205L5.07494 101.343L7.77582 103.295ZM15.6423 92.4049L15.9245 91.5326L12.9365 90.4595L15.6423 92.4049ZM7.46202 103.373L7.77582 103.295L4.76132 101.421L7.46202 103.373ZM7.13484 103.438L7.46202 103.373L4.43432 101.486L7.13484 103.438ZM15.9245 91.5326L16.5312 89.5116L13.2185 89.5878L15.9245 91.5326ZM6.79429 103.491L7.13484 103.438L4.09396 101.538L6.79429 103.491ZM19.1871 76.0458L16.4783 74.1103L15.9979 77.25L19.1871 76.0458ZM6.44036 103.531L6.79429 103.491L3.74023 101.579L6.44036 103.531ZM16.5312 89.5116L17.1128 87.2667L13.8247 87.568L16.5312 89.5116ZM6.07305 103.559L6.44036 103.531L3.37312 101.607L6.07305 103.559ZM5.69236 103.575L6.07305 103.559L2.99264 101.622L5.69236 103.575ZM5.29829 103.578L5.69236 103.575L2.59878 101.625L5.29829 103.578ZM64.7285 54.0468L61.9894 52.1241L61.9735 119.942L64.7285 54.0468ZM17.1128 87.2667L17.6691 84.7977L14.4058 85.3244L17.1128 87.2667ZM4.89084 103.568L5.29829 103.578L2.19155 101.616L4.89084 103.568ZM19.6428 72.68L16.9336 70.7465L16.4783 74.1103L19.6428 72.68ZM4.47001 103.546L4.89084 103.568L1.77094 101.594L4.47001 103.546ZM4.03578 103.512L4.47001 103.546L1.33695 101.559L4.03578 103.512ZM17.6691 84.7977L18.2003 82.1046L14.9617 82.8569L17.6691 84.7977ZM20.0734 69.0897L17.3636 67.1583L16.9336 70.7465L20.0734 69.0897ZM18.2003 82.1046L18.7063 79.1874L15.4924 80.1655L18.2003 82.1046ZM18.7063 79.1874L19.1871 76.0458L15.9979 77.25L18.7063 79.1874ZM20.4787 65.2748L17.7686 63.3457L17.3636 67.1583L20.4787 65.2748ZM19.1871 76.0458L19.6428 72.68L16.4783 74.1103L19.1871 76.0458ZM20.859 61.2352L18.1483 59.3085L17.7686 63.3457L20.859 61.2352ZM19.6428 72.68L20.0734 69.0897L16.9336 70.7465L19.6428 72.68ZM15.2509 101.126L12.5437 99.1738L12.2061 99.6554L15.2509 101.126ZM14.9131 101.608L12.2061 99.6554L11.8677 100.086L14.9131 101.608ZM15.5836 100.608L12.8762 98.6567L12.5437 99.1738L15.5836 100.608ZM14.5744 102.038L11.8677 100.086L11.5326 100.49L14.5744 102.038ZM15.9113 100.055L13.2037 98.1041L12.8762 98.6567L15.9113 100.055ZM14.2391 102.443L11.5326 100.49L11.2007 100.868L14.2391 102.443ZM13.907 102.821L11.2007 100.868L10.8722 101.221L13.907 102.821ZM16.234 99.4669L13.5262 97.516L13.2037 98.1041L16.234 99.4669ZM13.5783 103.174L10.8722 101.221L10.547 101.547L13.5783 103.174ZM16.5516 98.8429L13.8436 96.8924L13.5262 97.516L16.5516 98.8429ZM13.2529 103.5L10.547 101.547L10.2251 101.847L13.2529 103.5ZM16.8642 98.1834L14.156 96.2332L13.8436 96.8924L16.8642 98.1834ZM12.9308 103.801L10.2251 101.847L9.90654 102.121L12.9308 103.801ZM12.6121 104.075L9.90654 102.121L9.59127 102.37L12.6121 104.075ZM17.1717 97.4883L14.4633 95.5386L14.156 96.2332L17.1717 97.4883ZM81.1937 31.8118L78.4463 29.9047L22.7345 35.0635L81.1937 31.8118ZM12.2966 104.324L9.59127 102.37L9.27932 102.592L12.2966 104.324ZM17.4743 96.7577L14.7656 94.8084L14.4633 95.5386L17.4743 96.7577ZM67.4465 123.87L67.471 55.9719L64.7083 121.905L67.4465 123.87ZM6.73803 105.467L4.03578 103.512L3.6974 123.273L6.73803 105.467ZM11.9845 104.546L9.27932 102.592L8.97066 102.788L11.9845 104.546ZM17.7717 95.9916L15.0629 94.0428L14.7656 94.8084L17.7717 95.9916ZM11.6756 104.742L8.97066 102.788L8.66533 102.958L11.6756 104.742ZM21.2141 56.9708L18.503 55.0466L18.1483 59.3085L21.2141 56.9708ZM11.3701 104.913L8.66533 102.958L8.3633 103.103L11.3701 104.913ZM18.0642 95.1899L15.3551 93.2416L15.0629 94.0428L18.0642 95.1899ZM11.0679 105.057L8.3633 103.103L8.07624 103.205L11.0679 105.057ZM18.3516 94.3527L15.6423 92.4049L15.3551 93.2416L18.3516 94.3527ZM10.7807 105.16L8.07624 103.205L7.77582 103.295L10.7807 105.16ZM20.0734 69.0897L20.4787 65.2748L17.3636 67.1583L20.0734 69.0897ZM10.4801 105.25L7.77582 103.295L7.46202 103.373L10.4801 105.25ZM18.634 93.4799L15.9245 91.5326L15.6423 92.4049L18.634 93.4799ZM10.1661 105.328L7.46202 103.373L7.13484 103.438L10.1661 105.328ZM9.83878 105.393L7.13484 103.438L6.79429 103.491L9.83878 105.393ZM19.2412 91.4577L16.5312 89.5116L15.9245 91.5326L19.2412 91.4577ZM6.39822 125.239L6.73803 105.467L3.6974 123.273L6.39822 125.239ZM9.49804 105.446L6.79429 103.491L6.44036 103.531L9.49804 105.446ZM9.14391 105.486L6.44036 103.531L6.07305 103.559L9.14391 105.486ZM8.7764 105.514L6.07305 103.559L5.69236 103.575L8.7764 105.514ZM19.8231 89.2113L17.1128 87.2667L16.5312 89.5116L19.8231 89.2113ZM8.39551 105.53L5.69236 103.575L5.29829 103.578L8.39551 105.53ZM21.544 52.4814L18.8325 50.5599L18.503 55.0466L21.544 52.4814ZM20.4787 65.2748L20.859 61.2352L17.7686 63.3457L20.4787 65.2748ZM8.00122 105.533L5.29829 103.578L4.89084 103.568L8.00122 105.533ZM7.59355 105.523L4.89084 103.568L4.47001 103.546L7.59355 105.523ZM20.3799 86.7409L17.6691 84.7977L17.1128 87.2667L20.3799 86.7409ZM7.17249 105.501L4.47001 103.546L4.03578 103.512L7.17249 105.501ZM22.7345 35.0635L78.4463 29.9047L20.0212 33.1523L22.7345 35.0635ZM20.9116 84.0462L18.2003 82.1046L17.6691 84.7977L20.9116 84.0462ZM14.9131 101.608L15.2509 101.126L12.2061 99.6554L14.9131 101.608ZM15.2509 101.126L15.5836 100.608L12.5437 99.1738L15.2509 101.126ZM14.5744 102.038L14.9131 101.608L11.8677 100.086L14.5744 102.038ZM15.5836 100.608L15.9113 100.055L12.8762 98.6567L15.5836 100.608ZM14.2391 102.443L14.5744 102.038L11.5326 100.49L14.2391 102.443ZM13.907 102.821L14.2391 102.443L11.2007 100.868L13.907 102.821ZM15.9113 100.055L16.234 99.4669L13.2037 98.1041L15.9113 100.055ZM13.5783 103.174L13.907 102.821L10.8722 101.221L13.5783 103.174ZM16.234 99.4669L16.5516 98.8429L13.5262 97.516L16.234 99.4669ZM13.2529 103.5L13.5783 103.174L10.547 101.547L13.2529 103.5ZM20.859 61.2352L21.2141 56.9708L18.1483 59.3085L20.859 61.2352ZM16.5516 98.8429L16.8642 98.1834L13.8436 96.8924L16.5516 98.8429ZM12.9308 103.801L13.2529 103.5L10.2251 101.847L12.9308 103.801ZM12.6121 104.075L12.9308 103.801L9.90654 102.121L12.6121 104.075ZM16.8642 98.1834L17.1717 97.4883L14.156 96.2332L16.8642 98.1834ZM12.2966 104.324L12.6121 104.075L9.59127 102.37L12.2966 104.324ZM17.1717 97.4883L17.4743 96.7577L14.4633 95.5386L17.1717 97.4883ZM11.9845 104.546L12.2966 104.324L9.27932 102.592L11.9845 104.546ZM11.6756 104.742L11.9845 104.546L8.97066 102.788L11.6756 104.742ZM17.4743 96.7577L17.7717 95.9916L14.7656 94.8084L17.4743 96.7577ZM21.418 81.1272L18.7063 79.1874L18.2003 82.1046L21.418 81.1272ZM11.3701 104.913L11.6756 104.742L8.66533 102.958L11.3701 104.913ZM17.7717 95.9916L18.0642 95.1899L15.0629 94.0428L17.7717 95.9916ZM11.0679 105.057L11.3701 104.913L8.3633 103.103L11.0679 105.057ZM18.0642 95.1899L18.3516 94.3527L15.3551 93.2416L18.0642 95.1899ZM10.7807 105.16L11.0679 105.057L8.07624 103.205L10.7807 105.16ZM10.4801 105.25L10.7807 105.16L7.77582 103.295L10.4801 105.25ZM18.3516 94.3527L18.634 93.4799L15.6423 92.4049L18.3516 94.3527ZM10.1661 105.328L10.4801 105.25L7.46202 103.373L10.1661 105.328ZM9.83878 105.393L10.1661 105.328L7.13484 103.438L9.83878 105.393ZM18.634 93.4799L19.2412 91.4577L15.9245 91.5326L18.634 93.4799ZM9.49804 105.446L9.83878 105.393L6.79429 103.491L9.49804 105.446ZM21.8993 77.9838L19.1871 76.0458L18.7063 79.1874L21.8993 77.9838ZM9.14391 105.486L9.49804 105.446L6.44036 103.531L9.14391 105.486ZM21.2141 56.9708L21.544 52.4814L18.503 55.0466L21.2141 56.9708ZM19.2412 91.4577L19.8231 89.2113L16.5312 89.5116L19.2412 91.4577ZM8.7764 105.514L9.14391 105.486L6.07305 103.559L8.7764 105.514ZM8.39551 105.53L8.7764 105.514L5.69236 103.575L8.39551 105.53ZM8.00122 105.533L8.39551 105.53L5.29829 103.578L8.00122 105.533ZM67.471 55.9719L64.7285 54.0468L64.7083 121.905L67.471 55.9719ZM19.8231 89.2113L20.3799 86.7409L17.1128 87.2667L19.8231 89.2113ZM7.59355 105.523L8.00122 105.533L4.89084 103.568L7.59355 105.523ZM22.3555 74.616L19.6428 72.68L19.1871 76.0458L22.3555 74.616ZM7.17249 105.501L7.59355 105.523L4.47001 103.546L7.17249 105.501ZM6.73803 105.467L7.17249 105.501L4.03578 103.512L6.73803 105.467ZM20.3799 86.7409L20.9116 84.0462L17.6691 84.7977L20.3799 86.7409ZM22.7345 35.0635L20.0212 33.1523L18.8325 50.5599L22.7345 35.0635ZM22.7865 71.0235L20.0734 69.0897L19.6428 72.68L22.7865 71.0235ZM20.9116 84.0462L21.418 81.1272L18.2003 82.1046L20.9116 84.0462ZM21.418 81.1272L21.8993 77.9838L18.7063 79.1874L21.418 81.1272ZM21.544 52.4814L22.7345 35.0635L18.8325 50.5599L21.544 52.4814ZM23.1923 67.2063L20.4787 65.2748L20.0734 69.0897L23.1923 67.2063ZM21.8993 77.9838L22.3555 74.616L19.1871 76.0458L21.8993 77.9838ZM23.5731 63.1644L20.859 61.2352L20.4787 65.2748L23.5731 63.1644ZM22.3555 74.616L22.7865 71.0235L19.6428 72.68L22.3555 74.616Z" fill="#323232"/>
<path d="M70.188 125.837L89.3808 124.004L89.4565 37.5479L70.188 125.837Z" fill="#323232"/>
<path d="M17.9617 103.08L15.2511 101.126L14.9133 101.608L17.9617 103.08ZM17.6237 103.563L14.9133 101.608L14.5746 102.038L17.6237 103.563ZM18.2946 102.563L15.5838 100.609L15.2511 101.126L18.2946 102.563ZM17.2848 103.994L14.5746 102.038L14.2393 102.443L17.2848 103.994ZM18.6225 102.009L15.9115 100.056L15.5838 100.609L18.6225 102.009ZM16.9492 104.398L14.2393 102.443L13.9073 102.822L16.9492 104.398ZM16.617 104.777L13.9073 102.822L13.5785 103.174L16.617 104.777ZM18.9454 101.421L16.2342 99.4671L15.9115 100.056L18.9454 101.421ZM16.2881 105.13L13.5785 103.174L13.2531 103.501L16.2881 105.13ZM19.2632 100.796L16.5518 98.8431L16.2342 99.4671L19.2632 100.796ZM15.9625 105.457L13.2531 103.501L12.9311 103.801L15.9625 105.457ZM19.576 100.136L16.8644 98.1836L16.5518 98.8431L19.576 100.136ZM15.6402 105.757L12.9311 103.801L12.6123 104.075L15.6402 105.757ZM15.3212 106.032L12.6123 104.075L12.2968 104.324L15.3212 106.032ZM19.8838 99.4407L17.172 97.4885L16.8644 98.1836L19.8838 99.4407ZM83.9447 33.7215L81.1939 31.812L25.4515 36.9773L83.9447 33.7215ZM15.0056 106.28L12.2968 104.324L11.9847 104.546L15.0056 106.28ZM20.1865 98.7097L17.4745 96.7579L17.172 97.4885L20.1865 98.7097ZM70.1883 125.837L70.2173 57.8997L67.4467 123.87L70.1883 125.837ZM9.44392 107.425L6.73825 105.467L6.39844 125.239L9.44392 107.425ZM14.6933 106.503L11.9847 104.546L11.6759 104.743L14.6933 106.503ZM20.4842 97.943L17.772 95.9918L17.4745 96.7579L20.4842 97.943ZM14.3843 106.699L11.6759 104.743L11.3703 104.913L14.3843 106.699ZM23.9288 58.8976L21.2143 56.971L20.8592 61.2354L23.9288 58.8976ZM14.0786 106.87L11.3703 104.913L11.0681 105.057L14.0786 106.87ZM20.7769 97.1409L18.0644 95.1901L17.772 95.9918L20.7769 97.1409ZM13.7762 107.014L11.0681 105.057L10.7809 105.16L13.7762 107.014ZM21.0645 96.3031L18.3518 94.3529L18.0644 95.1901L21.0645 96.3031ZM13.4888 107.117L10.7809 105.16L10.4803 105.25L13.4888 107.117ZM22.7867 71.0237L23.1926 67.2065L20.0736 69.0899L22.7867 71.0237ZM13.188 107.207L10.4803 105.25L10.1664 105.328L13.188 107.207ZM21.3471 95.4298L18.6342 93.4801L18.3518 94.3529L21.3471 95.4298ZM12.8739 107.285L10.1664 105.328L9.839 105.393L12.8739 107.285ZM12.5464 107.35L9.839 105.393L9.49826 105.446L12.5464 107.35ZM21.9547 93.4064L19.2414 91.4579L18.6342 93.4801L21.9547 93.4064ZM9.10267 127.209L9.44392 107.425L6.39844 125.239L9.10267 127.209ZM12.2054 107.403L9.49826 105.446L9.14413 105.486L12.2054 107.403ZM11.8511 107.444L9.14413 105.486L8.77662 105.514L11.8511 107.444ZM11.4834 107.472L8.77662 105.514L8.39573 105.53L11.4834 107.472ZM22.5372 91.1587L19.8234 89.2116L19.2414 91.4579L22.5372 91.1587ZM11.1023 107.487L8.39573 105.53L8.00144 105.533L11.1023 107.487ZM24.2592 54.4056L21.5442 52.4816L21.2143 56.971L24.2592 54.4056ZM23.1926 67.2065L23.5733 63.1646L20.479 65.275L23.1926 67.2065ZM10.7078 107.49L8.00144 105.533L7.59377 105.523L10.7078 107.49ZM10.2999 107.481L7.59377 105.523L7.17271 105.502L10.2999 107.481ZM23.0944 88.6868L20.3802 86.7411L19.8234 89.2116L23.0944 88.6868ZM9.87861 107.459L7.17271 105.502L6.73825 105.467L9.87861 107.459ZM25.4515 36.9773L81.1939 31.812L22.7347 35.0637L25.4515 36.9773ZM23.6265 85.9905L20.9118 84.0464L20.3802 86.7411L23.6265 85.9905ZM17.6237 103.563L17.9617 103.08L14.9133 101.608L17.6237 103.563ZM17.9617 103.08L18.2946 102.563L15.2511 101.126L17.9617 103.08ZM17.2848 103.994L17.6237 103.563L14.5746 102.038L17.2848 103.994ZM18.2946 102.563L18.6225 102.009L15.5838 100.609L18.2946 102.563ZM16.9492 104.398L17.2848 103.994L14.2393 102.443L16.9492 104.398ZM16.617 104.777L16.9492 104.398L13.9073 102.822L16.617 104.777ZM18.6225 102.009L18.9454 101.421L15.9115 100.056L18.6225 102.009ZM16.2881 105.13L16.617 104.777L13.5785 103.174L16.2881 105.13ZM18.9454 101.421L19.2632 100.796L16.2342 99.4671L18.9454 101.421ZM15.9625 105.457L16.2881 105.13L13.2531 103.501L15.9625 105.457ZM23.5733 63.1646L23.9288 58.8976L20.8592 61.2354L23.5733 63.1646ZM19.2632 100.796L19.576 100.136L16.5518 98.8431L19.2632 100.796ZM15.6402 105.757L15.9625 105.457L12.9311 103.801L15.6402 105.757ZM15.3212 106.032L15.6402 105.757L12.6123 104.075L15.3212 106.032ZM19.576 100.136L19.8838 99.4407L16.8644 98.1836L19.576 100.136ZM15.0056 106.28L15.3212 106.032L12.2968 104.324L15.0056 106.28ZM19.8838 99.4407L20.1865 98.7097L17.172 97.4885L19.8838 99.4407ZM14.6933 106.503L15.0056 106.28L11.9847 104.546L14.6933 106.503ZM14.3843 106.699L14.6933 106.503L11.6759 104.743L14.3843 106.699ZM20.1865 98.7097L20.4842 97.943L17.4745 96.7579L20.1865 98.7097ZM24.1335 83.0697L21.4183 81.1274L20.9118 84.0464L24.1335 83.0697ZM14.0786 106.87L14.3843 106.699L11.3703 104.913L14.0786 106.87ZM20.4842 97.943L20.7769 97.1409L17.772 95.9918L20.4842 97.943ZM13.7762 107.014L14.0786 106.87L11.0681 105.057L13.7762 107.014ZM20.7769 97.1409L21.0645 96.3031L18.0644 95.1901L20.7769 97.1409ZM13.4888 107.117L13.7762 107.014L10.7809 105.16L13.4888 107.117ZM13.188 107.207L13.4888 107.117L10.4803 105.25L13.188 107.207ZM21.0645 96.3031L21.3471 95.4298L18.3518 94.3529L21.0645 96.3031ZM12.8739 107.285L13.188 107.207L10.1664 105.328L12.8739 107.285ZM12.5464 107.35L12.8739 107.285L9.839 105.393L12.5464 107.35ZM21.3471 95.4298L21.9547 93.4064L18.6342 93.4801L21.3471 95.4298ZM12.2054 107.403L12.5464 107.35L9.49826 105.446L12.2054 107.403ZM24.6152 79.9245L21.8996 77.984L21.4183 81.1274L24.6152 79.9245ZM11.8511 107.444L12.2054 107.403L9.14413 105.486L11.8511 107.444ZM23.9288 58.8976L24.2592 54.4056L21.2143 56.971L23.9288 58.8976ZM21.9547 93.4064L22.5372 91.1587L19.2414 91.4579L21.9547 93.4064ZM11.4834 107.472L11.8511 107.444L8.77662 105.514L11.4834 107.472ZM11.1023 107.487L11.4834 107.472L8.39573 105.53L11.1023 107.487ZM10.7078 107.49L11.1023 107.487L8.00144 105.533L10.7078 107.49ZM70.2173 57.8997L67.4712 55.9721L67.4467 123.87L70.2173 57.8997Z" fill="#323232"/>
<path d="M59.2535 50.204L56.5213 48.2861M67.4462 123.87L70.1879 125.837L67.4462 123.87ZM67.4708 55.972L70.2168 57.8996L67.4708 55.972ZM64.708 121.905L67.4462 123.87L64.708 121.905ZM64.7282 54.0469L67.4708 55.972L64.7282 54.0469ZM61.9733 119.942L64.708 121.905L61.9733 119.942ZM61.9891 52.1242L64.7282 54.0469L61.9891 52.1242ZM59.242 117.982L61.9733 119.942L59.242 117.982ZM59.2535 50.204L61.9891 52.1242L59.2535 50.204ZM59.242 117.982L56.5142 116.025L59.242 117.982ZM56.5213 48.2861L56.5142 116.025L56.5213 48.2861Z" stroke="#707070" stroke-linecap="round"/>
<path d="M22.5367 91.1584L23.094 88.6864L19.8229 89.2112L22.5367 91.1584ZM10.2994 107.481L10.7073 107.49L7.59331 105.523L10.2994 107.481ZM25.0714 76.5542L22.3553 74.6158L21.8991 77.9837L25.0714 76.5542ZM9.87815 107.459L10.2994 107.481L7.17225 105.501L9.87815 107.459ZM9.44346 107.425L9.87815 107.459L6.73779 105.467L9.44346 107.425ZM23.094 88.6864L23.6261 85.9901L20.3797 86.7407L23.094 88.6864ZM25.451 36.977L22.7343 35.0633L21.5438 52.4813L25.451 36.977ZM25.5028 72.9596L22.7863 71.0234L22.3553 74.6158L25.5028 72.9596ZM23.6261 85.9901L24.133 83.0694L20.9113 84.0461L23.6261 85.9901ZM24.133 83.0694L24.6148 79.9241L21.4178 81.1271L24.133 83.0694ZM24.2588 54.4053L25.451 36.977L21.5438 52.4813L24.2588 54.4053ZM25.9092 69.1402L23.1921 67.2062L22.7863 71.0234L25.9092 69.1402ZM24.6148 79.9241L25.0714 76.5542L21.8991 77.9837L24.6148 79.9241ZM26.2903 65.0958L23.5728 63.1642L23.1921 67.2062L26.2903 65.0958ZM25.0714 76.5542L25.5028 72.9596L22.3553 74.6158L25.0714 76.5542ZM20.6752 105.037L17.9612 103.08L17.6232 103.562L20.6752 105.037ZM20.337 105.52L17.6232 103.562L17.2843 103.993L20.337 105.52ZM21.0084 104.519L18.2941 102.562L17.9612 103.08L21.0084 104.519ZM19.9979 105.951L17.2843 103.993L16.9488 104.398L19.9979 105.951ZM21.3365 103.965L18.6221 102.009L18.2941 102.562L21.3365 103.965ZM19.6621 106.356L16.9488 104.398L16.6165 104.777L19.6621 106.356ZM19.3297 106.735L16.6165 104.777L16.2876 105.13L19.3297 106.735ZM21.6596 103.376L18.9449 101.42L18.6221 102.009L21.6596 103.376ZM19.0006 107.088L16.2876 105.13L15.962 105.456L19.0006 107.088ZM21.9776 102.751L19.2628 100.796L18.9449 101.42L21.9776 102.751ZM18.6748 107.415L15.962 105.456L15.6397 105.757L18.6748 107.415ZM22.2907 102.091L19.5756 100.136L19.2628 100.796L22.2907 102.091ZM18.3523 107.716L15.6397 105.757L15.3208 106.031L18.3523 107.716ZM18.0332 107.99L15.3208 106.031L15.0051 106.28L18.0332 107.99ZM22.5986 101.395L19.8833 99.4404L19.5756 100.136L22.5986 101.395ZM86.6986 35.6331L83.9443 33.7212L28.1712 38.8931L86.6986 35.6331ZM17.7173 108.239L15.0051 106.28L14.6928 106.503L17.7173 108.239ZM22.9016 100.664L20.1861 98.7093L19.8833 99.4404L22.9016 100.664ZM12.1526 109.385L9.44346 107.425L9.10221 127.208L12.1526 109.385ZM17.4048 108.462L14.6928 106.503L14.3838 106.699L17.4048 108.462ZM23.1995 99.8965L20.4838 97.9427L20.1861 98.7093L23.1995 99.8965ZM17.0956 108.658L14.3838 106.699L14.0781 106.87L17.0956 108.658ZM26.6463 60.8264L23.9284 58.8973L23.5728 63.1642L26.6463 60.8264ZM16.7898 108.829L14.0781 106.87L13.7757 107.014L16.7898 108.829ZM23.4924 99.0938L20.7764 97.1405L20.4838 97.9427L23.4924 99.0938ZM16.4872 108.973L13.7757 107.014L13.4884 107.117L16.4872 108.973ZM23.7802 98.2555L21.0641 96.3028L20.7764 97.1405L23.7802 98.2555ZM16.1997 109.076L13.4884 107.117L13.1876 107.207L16.1997 109.076ZM25.5028 72.9596L25.9092 69.1402L22.7863 71.0234L25.5028 72.9596ZM15.8987 109.167L13.1876 107.207L12.8734 107.285L15.8987 109.167ZM24.063 97.3817L21.3467 95.4295L21.0641 96.3028L24.063 97.3817ZM15.5844 109.244L12.8734 107.285L12.5459 107.35L15.5844 109.244ZM15.2567 109.31L12.5459 107.35L12.205 107.403L15.2567 109.31Z" fill="#323232"/>
<path d="M70.2169 57.8997L70.188 125.837L89.4565 37.5479L70.2169 57.8997Z" fill="#323232"/>
<path d="M24.6714 95.357L21.9546 93.406L21.347 95.4295L24.6714 95.357ZM11.8102 129.18L12.1529 109.385L9.10254 127.208L11.8102 129.18ZM14.9159 109.363L12.2053 107.403L11.851 107.443L14.9159 109.363ZM14.5614 109.403L11.851 107.443L11.4833 107.471L14.5614 109.403ZM14.1935 109.431L11.4833 107.471L11.1022 107.487L14.1935 109.431ZM25.2543 93.108L22.5371 91.1584L21.9546 93.406L25.2543 93.108ZM13.8122 109.447L11.1022 107.487L10.7077 107.49L13.8122 109.447ZM26.9776 56.3317L24.2591 54.4053L23.9287 58.8973L26.9776 56.3317ZM25.9095 69.1402L26.2907 65.0958L23.1924 67.2062L25.9095 69.1402ZM13.4174 109.45L10.7077 107.49L10.2998 107.481L13.4174 109.45ZM13.0093 109.441L10.2998 107.481L9.87848 107.459L13.0093 109.441ZM25.812 90.6346L23.0943 88.6864L22.5371 91.1584L25.812 90.6346ZM12.5878 109.419L9.87848 107.459L9.44379 107.425L12.5878 109.419ZM28.1715 38.8931L83.9446 33.7212L25.4513 36.977L28.1715 38.8931ZM26.3446 87.9366L23.6264 85.9901L23.0943 88.6864L26.3446 87.9366ZM20.3373 105.52L20.6755 105.037L17.6235 103.562L20.3373 105.52ZM20.6755 105.037L21.0087 104.519L17.9615 103.08L20.6755 105.037ZM19.9982 105.951L20.3373 105.52L17.2846 103.993L19.9982 105.951ZM21.0087 104.519L21.3368 103.965L18.2945 102.562L21.0087 104.519ZM19.6625 106.356L19.9982 105.951L16.9491 104.398L19.6625 106.356ZM19.33 106.735L19.6625 106.356L16.6169 104.777L19.33 106.735ZM21.3368 103.965L21.6599 103.376L18.6224 102.009L21.3368 103.965ZM19.0009 107.088L19.33 106.735L16.2879 105.13L19.0009 107.088ZM21.6599 103.376L21.978 102.751L18.9453 101.42L21.6599 103.376ZM18.6751 107.415L19.0009 107.088L15.9624 105.456L18.6751 107.415ZM26.2907 65.0958L26.6467 60.8264L23.5731 63.1642L26.2907 65.0958ZM21.978 102.751L22.291 102.091L19.2631 100.796L21.978 102.751ZM18.3526 107.716L18.6751 107.415L15.6401 105.757L18.3526 107.716ZM18.0335 107.99L18.3526 107.716L15.3211 106.031L18.0335 107.99ZM22.291 102.091L22.599 101.395L19.5759 100.136L22.291 102.091ZM17.7177 108.239L18.0335 107.99L15.0055 106.28L17.7177 108.239ZM22.599 101.395L22.9019 100.664L19.8837 99.4404L22.599 101.395ZM17.4052 108.462L17.7177 108.239L14.6931 106.503L17.4052 108.462ZM17.096 108.658L17.4052 108.462L14.3841 106.699L17.096 108.658ZM22.9019 100.664L23.1998 99.8965L20.1864 98.7093L22.9019 100.664ZM26.852 85.0141L24.1333 83.0694L23.6264 85.9901L26.852 85.0141ZM16.7901 108.829L17.096 108.658L14.0784 106.87L16.7901 108.829Z" fill="#323232"/>
<path d="M36.6499 122.892L37.5959 121.573L38.5135 120.142L36.6499 122.892Z" fill="#323232"/>
<path d="M23.1996 99.8966L23.4925 99.094L20.4839 97.9429L23.1996 99.8966Z" fill="#323232"/>
<path d="M34.6729 125.194L35.6758 124.099L36.6502 122.892L34.6729 125.194Z" fill="#323232"/>
<path d="M16.4874 108.974L16.7899 108.829L13.7759 107.014L16.4874 108.974Z" fill="#323232"/>
<path d="M36.6499 122.892L38.5135 120.142L40.2634 116.943L36.6499 122.892ZM38.5135 120.142L39.4026 118.599L40.2634 116.943L38.5135 120.142Z" fill="#323232"/>
<path d="M23.4928 99.0939L23.7806 98.2556L20.7768 97.1406L23.4928 99.0939ZM16.2001 109.076L16.4876 108.974L13.4888 107.117L16.2001 109.076Z" fill="#323232"/>
<path d="M32.5815 127.047L34.6728 125.194L36.6502 122.892L32.5815 127.047ZM32.5815 127.047L36.6502 122.892L40.2636 116.943L32.5815 127.047Z" fill="#323232"/>
<path d="M15.8991 109.167L16.2001 109.076L13.188 107.207L15.8991 109.167ZM23.7806 98.2555L24.0634 97.3817L21.0645 96.3027L23.7806 98.2555Z" fill="#323232"/>
<path d="M32.5815 127.046L33.6414 126.176L34.6728 125.193L32.5815 127.046Z" fill="#323232"/>
<path d="M15.5845 109.244L15.8988 109.167L12.8735 107.285L15.5845 109.244Z" fill="#323232"/>
<path d="M40.2637 116.943L41.096 115.175L41.8999 113.294L40.2637 116.943Z" fill="#323232"/>
<path d="M15.2568 109.31L15.5845 109.245L12.546 107.35L15.2568 109.31ZM24.0631 97.3819L24.6712 95.3572L21.3468 95.4297L24.0631 97.3819ZM14.9157 109.363L15.2568 109.31L12.2051 107.403L14.9157 109.363ZM27.334 81.8672L24.6149 79.9243L24.1331 83.0696L27.334 81.8672Z" fill="#323232"/>
<path d="M30.3828 128.47L31.493 127.804L32.5813 127.046L30.3828 128.47ZM40.2634 116.943L41.8997 113.294L43.4415 109.159L40.2634 116.943Z" fill="#323232"/>
<path d="M14.5615 109.404L14.916 109.363L11.8511 107.444L14.5615 109.404ZM26.6468 60.8267L26.9777 56.332L23.9288 58.8976L26.6468 60.8267ZM24.6715 95.3574L25.2544 93.1084L21.9547 93.4064L24.6715 95.3574ZM14.1936 109.432L14.5615 109.404L11.4834 107.472L14.1936 109.432Z" fill="#323232"/>
<path d="M41.9 113.294L42.6755 111.302L43.4418 109.159L41.9 113.294ZM27.9971 129.589L30.3831 128.47L32.5817 127.046L27.9971 129.589Z" fill="#323232"/>
<path d="M13.812 109.447L14.1933 109.432L11.102 107.487L13.812 109.447ZM13.4173 109.45L13.812 109.447L10.7075 107.49L13.4173 109.45Z" fill="#323232"/>
<path d="M27.9971 129.589L29.2177 129.065L30.3831 128.47L27.9971 129.589Z" fill="#323232"/>
<path d="M25.2543 93.1082L25.8121 90.6348L22.5371 91.1586L25.2543 93.1082ZM13.0094 109.441L13.4175 109.45L10.2998 107.481L13.0094 109.441Z" fill="#323232"/>
<path d="M22.561 130.987L32.5812 127.047L40.2633 116.943L22.561 130.987Z" fill="#323232"/>
<path d="M27.7914 78.4951L25.0718 76.5542L24.6152 79.9241L27.7914 78.4951Z" fill="#323232"/>
<path d="M40.2637 116.943L43.4418 109.159L46.2066 99.1567L40.2637 116.943Z" fill="#323232"/>
<path d="M12.5877 109.419L13.0093 109.441L9.87842 107.459L12.5877 109.419Z" fill="#323232"/>
<path d="M43.4414 109.159L44.1777 106.873L44.8839 104.444L43.4414 109.159Z" fill="#323232"/>
<path d="M12.1529 109.385L12.5879 109.419L9.44385 107.425L12.1529 109.385ZM25.8121 90.6349L26.3446 87.937L23.0944 88.6868L25.8121 90.6349Z" fill="#323232"/>
<path d="M22.561 130.987L27.9966 129.589L32.5812 127.046L22.561 130.987Z" fill="#323232"/>
<path d="M28.1712 38.8931L25.451 36.9771L24.2588 54.4053L28.1712 38.8931Z" fill="#323232"/>
<path d="M25.3896 130.428L26.7209 130.044L27.9968 129.589L25.3896 130.428ZM43.4416 109.159L44.8841 104.444L46.2064 99.1567L43.4416 109.159Z" fill="#323232"/>
<path d="M28.2233 74.8987L25.5032 72.96L25.0718 76.5546L28.2233 74.8987ZM26.3446 87.937L26.852 85.0145L23.6265 85.9904L26.3446 87.937Z" fill="#323232"/>
<path d="M22.561 130.987L25.3894 130.428L27.9966 129.589L22.561 130.987ZM44.8839 104.444L45.56 101.872L46.2062 99.1567L44.8839 104.444ZM22.561 130.987L24.0029 130.743L25.3894 130.428L22.561 130.987Z" fill="#323232"/>
<path d="M26.8519 85.0142L27.3342 81.867L24.1333 83.0694L26.8519 85.0142ZM26.9775 56.3317L28.1715 38.8931L24.2591 54.4053L26.9775 56.3317ZM28.6299 71.0767L25.9095 69.1402L25.5031 72.9597L28.6299 71.0767Z" fill="#323232"/>
<path d="M46.2065 99.1567L46.8226 96.298L47.4087 93.2959L46.2065 99.1567Z" fill="#323232"/>
<path d="M27.3343 81.867L27.7914 78.4951L24.6152 79.9241L27.3343 81.867Z" fill="#323232"/>
<path d="M19.5112 131.264L21.0638 131.161L22.561 130.987L19.5112 131.264Z" fill="#323232"/>
<path d="M29.0113 67.0302L26.2903 65.0962L25.9092 69.1406L29.0113 67.0302Z" fill="#323232"/>
<path d="M46.2065 99.1565L47.4087 93.2958L48.4908 86.8613L46.2065 99.1565Z" fill="#323232"/>
<path d="M27.7913 78.4952L28.2233 74.8984L25.0718 76.5543L27.7913 78.4952Z" fill="#323232"/>
<path d="M16.2402 131.261L19.5116 131.264L22.5614 130.987L16.2402 131.261Z" fill="#323232"/>
<path d="M23.3927 106.997L20.6752 105.037L20.337 105.52L23.3927 106.997ZM23.0542 107.479L20.337 105.52L19.9979 105.951L23.0542 107.479ZM23.726 106.478L21.0084 104.519L20.6752 105.037L23.726 106.478ZM22.7149 107.911L19.9979 105.951L19.6622 106.356L22.7149 107.911ZM24.0544 105.924L21.3365 103.965L21.0084 104.519L24.0544 105.924ZM22.379 108.316L19.6622 106.356L19.3297 106.735L22.379 108.316ZM22.0463 108.695L19.3297 106.735L19.0006 107.088L22.0463 108.695ZM24.3777 105.335L21.6596 103.376L21.3365 103.965L24.3777 105.335ZM21.717 109.049L19.0006 107.088L18.6748 107.415L21.717 109.049ZM24.696 104.709L21.9777 102.751L21.6596 103.376L24.696 104.709Z" fill="#323232"/>
<path d="M47.4087 93.2958L47.9647 90.1503L48.4908 86.8613L47.4087 93.2958Z" fill="#323232"/>
<path d="M21.3912 109.376L18.675 107.415L18.3525 107.716L21.3912 109.376ZM25.0094 104.049L22.2908 102.091L21.9778 102.751L25.0094 104.049ZM21.0685 109.677L18.3525 107.716L18.0334 107.99L21.0685 109.677ZM20.7492 109.952L18.0334 107.99L17.7175 108.239L20.7492 109.952ZM25.3176 103.352L22.5988 101.395L22.2908 102.091L25.3176 103.352ZM89.4566 37.5477L86.6988 35.6333L30.895 40.8117L89.4566 37.5477ZM20.4332 110.201L17.7175 108.239L17.405 108.462L20.4332 110.201ZM25.6207 102.62L22.9018 100.664L22.5988 101.395L25.6207 102.62ZM14.8653 111.347L12.1527 109.385L11.8101 129.18L14.8653 111.347ZM20.1205 110.424L17.405 108.462L17.0958 108.659L20.1205 110.424Z" fill="#323232"/>
<path d="M40.2637 116.943L46.2066 99.1569L51.6933 59.6304L40.2637 116.943Z" fill="#323232"/>
<path d="M25.9189 101.853L23.1998 99.8965L22.9018 100.664L25.9189 101.853ZM19.8112 110.62L17.0959 108.658L16.79 108.829L19.8112 110.62Z" fill="#323232"/>
<path d="M16.2402 131.261L17.9036 131.298L19.5116 131.264L16.2402 131.261Z" fill="#323232"/>
<path d="M29.368 62.7582L26.6465 60.8267L26.2905 65.0961L29.368 62.7582Z" fill="#323232"/>
<path d="M22.561 130.987L40.2633 116.943L51.6929 59.6304L22.561 130.987Z" fill="#323232"/>
<path d="M19.5051 110.791L16.79 108.829L16.4874 108.973L19.5051 110.791ZM26.2119 101.05L23.4925 99.0938L23.1997 99.8964L26.2119 101.05ZM19.2023 110.935L16.4874 108.973L16.1999 109.076L19.2023 110.935ZM26.5 100.211L23.7804 98.2555L23.4925 99.0938L26.5 100.211ZM18.9146 111.038L16.1999 109.076L15.8989 109.167L18.9146 111.038ZM28.2231 74.8984L28.6298 71.0767L25.503 72.9596L28.2231 74.8984ZM18.6135 111.129L15.8989 109.167L15.5846 109.244L18.6135 111.129ZM26.783 99.3364L24.0632 97.3817L23.7804 98.2555L26.783 99.3364ZM18.299 111.207L15.5846 109.244L15.2569 109.31L18.299 111.207ZM17.9711 111.272L15.2569 109.31L14.9158 109.363L17.9711 111.272ZM27.3915 97.3105L24.6713 95.357L24.0632 97.3817L27.3915 97.3105ZM14.5211 131.154L14.8653 111.347L11.8101 129.18L14.5211 131.154Z" fill="#323232"/>
<path d="M1.33695 101.56L1 121.308M11.8101 129.18L14.5212 131.154L11.8101 129.18ZM9.10245 127.208L11.8101 129.18L9.10245 127.208ZM6.39822 125.239L9.10245 127.208L6.39822 125.239ZM3.6974 123.273L6.39822 125.239L3.6974 123.273ZM3.6974 123.273L1 121.308L3.6974 123.273Z" stroke="#707070" stroke-linecap="round"/>
<path d="M17.63 111.326L14.9159 109.363L14.5614 109.404L17.63 111.326ZM17.2753 111.366L14.5614 109.404L14.1935 109.432L17.2753 111.366ZM16.9071 111.394L14.1935 109.432L13.8122 109.447L16.9071 111.394ZM27.975 95.0605L25.2543 93.1084L24.6714 95.3574L27.975 95.0605ZM16.5256 111.41L13.8122 109.447L13.4175 109.45L16.5256 111.41ZM29.6995 58.2609L26.9776 56.332L26.6467 60.8267L29.6995 58.2609Z" fill="#323232"/>
<path d="M48.4907 86.8616L48.9867 83.4291L49.4527 79.853L48.4907 86.8616Z" fill="#323232"/>
<path d="M28.6301 71.0766L29.0117 67.0298L25.9096 69.1401L28.6301 71.0766ZM16.1307 111.412L13.4175 109.45L13.0094 109.441L16.1307 111.412ZM15.7224 111.403L13.0094 109.441L12.5879 109.419L15.7224 111.403ZM28.5333 92.5851L25.8121 90.6345L25.2544 93.1079L28.5333 92.5851Z" fill="#323232"/>
<path d="M51.6934 59.6305L70.2172 57.8997L89.4568 37.5479L51.6934 59.6305Z" fill="#323232"/>
<path d="M15.3005 111.382L12.5878 109.419L12.1528 109.385L15.3005 111.382ZM30.8951 40.8117L86.6988 35.6333L28.1715 38.8932L30.8951 40.8117Z" fill="#323232"/>
<path d="M46.2062 99.1569L48.4905 86.8616L51.693 59.6304L46.2062 99.1569ZM15.3003 111.382L16.2399 131.261L22.5611 130.987L15.3003 111.382Z" fill="#323232"/>
<path d="M29.0663 89.886L26.3447 87.937L25.8121 90.6349L29.0663 89.886ZM23.0546 107.48L23.3931 106.997L20.3374 105.52L23.0546 107.48Z" fill="#323232"/>
<path d="M9.83979 97.2241L9.50244 97.7054" stroke="#707070" stroke-linecap="round"/>
<path d="M23.3927 106.997L23.7261 106.478L20.6753 105.037L23.3927 106.997Z" fill="#323232"/>
<path d="M9.83984 97.2243L10.1722 96.7075" stroke="#707070" stroke-linecap="round"/>
<path d="M22.7151 107.911L23.0544 107.479L19.998 105.951L22.7151 107.911Z" fill="#323232"/>
<path d="M9.50279 97.7056L9.16455 98.1356" stroke="#707070" stroke-linecap="round"/>
<path d="M23.7265 106.478L24.0548 105.924L21.0088 104.519L23.7265 106.478Z" fill="#323232"/>
<path d="M10.1724 96.7075L10.4996 96.1553" stroke="#707070" stroke-linecap="round"/>
<path d="M22.3794 108.316L22.7154 107.911L19.6626 106.356L22.3794 108.316Z" fill="#323232"/>
<path d="M9.16452 98.1357L8.82959 98.5398" stroke="#707070" stroke-linecap="round"/>
<path d="M22.0467 108.695L22.3793 108.316L19.3301 106.735L22.0467 108.695Z" fill="#323232"/>
<path d="M8.82967 98.5396L8.49805 98.9176" stroke="#707070" stroke-linecap="round"/>
<path d="M24.0548 105.924L24.3781 105.334L21.3369 103.965L24.0548 105.924Z" fill="#323232"/>
<path d="M10.4995 96.1551L10.8218 95.5674" stroke="#707070" stroke-linecap="round"/>
<path d="M21.7174 109.049L22.0467 108.695L19.001 107.088L21.7174 109.049Z" fill="#323232"/>
<path d="M8.49775 98.9175L8.16943 99.2695" stroke="#707070" stroke-linecap="round"/>
<path d="M24.3778 105.335L24.696 104.71L21.6597 103.376L24.3778 105.335Z" fill="#323232"/>
<path d="M10.8218 95.5676L11.139 94.9443" stroke="#707070" stroke-linecap="round"/>
<path d="M21.391 109.376L21.717 109.049L18.6748 107.415L21.391 109.376Z" fill="#323232"/>
<path d="M8.16973 99.2695L7.84473 99.5956" stroke="#707070" stroke-linecap="round"/>
<path d="M29.0117 67.0298L29.3682 62.7578L26.2907 65.0958L29.0117 67.0298ZM24.6963 104.709L25.0096 104.048L21.978 102.751L24.6963 104.709Z" fill="#323232"/>
<path d="M11.1392 94.9444L11.4513 94.2856" stroke="#707070" stroke-linecap="round"/>
<path d="M21.0686 109.677L21.3912 109.376L18.3525 107.716L21.0686 109.677Z" fill="#323232"/>
<path d="M7.84465 99.5957L7.52295 99.8958" stroke="#707070" stroke-linecap="round"/>
<path d="M20.749 109.952L21.0684 109.677L18.0332 107.99L20.749 109.952Z" fill="#323232"/>
<path d="M7.52298 99.896L7.20459 100.17" stroke="#707070" stroke-linecap="round"/>
<path d="M25.0095 104.049L25.3177 103.353L22.291 102.091L25.0095 104.049Z" fill="#323232"/>
<path d="M11.4512 94.2855L11.7583 93.5913" stroke="#707070" stroke-linecap="round"/>
<path d="M20.4334 110.201L20.7494 109.952L17.7178 108.239L20.4334 110.201Z" fill="#323232"/>
<path d="M7.20424 100.17L6.88916 100.418" stroke="#707070" stroke-linecap="round"/>
<path d="M25.3174 103.352L25.6205 102.62L22.5986 101.395L25.3174 103.352Z" fill="#323232"/>
<path d="M11.7583 93.5915L12.0604 92.8618" stroke="#707070" stroke-linecap="round"/>
<path d="M20.1207 110.424L20.4334 110.201L17.4053 108.462L20.1207 110.424Z" fill="#323232"/>
<path d="M6.88941 100.418L6.57764 100.64" stroke="#707070" stroke-linecap="round"/>
<path d="M19.811 110.62L20.1203 110.424L17.0957 108.659L19.811 110.62Z" fill="#323232"/>
<path d="M6.57751 100.64L6.26904 100.836" stroke="#707070" stroke-linecap="round"/>
<path d="M25.6208 102.62L25.9189 101.853L22.9019 100.664L25.6208 102.62Z" fill="#323232"/>
<path d="M12.0605 92.8614L12.3576 92.0962" stroke="#707070" stroke-linecap="round"/>
<path d="M23.3927 106.996L23.0543 107.479L22.5611 130.986L23.3927 106.996ZM23.0543 107.479L22.715 107.911L22.5611 130.986L23.0543 107.479ZM22.5611 130.986L23.7261 106.478L23.3927 106.996L22.5611 130.986ZM22.715 107.911L22.379 108.316L22.5611 130.986L22.715 107.911ZM22.379 108.316L22.0464 108.695L22.5611 130.986L22.379 108.316Z" fill="#323232"/>
<path d="M29.574 86.9614L26.8519 85.0142L26.3445 87.9366L29.574 86.9614ZM19.5051 110.791L19.8112 110.62L16.79 108.829L19.5051 110.791Z" fill="#323232"/>
<path d="M6.26903 100.836L5.96387 101.007" stroke="#707070" stroke-linecap="round"/>
<path d="M22.0464 108.695L21.7171 109.049L22.5611 130.987L22.0464 108.695ZM21.7171 109.049L21.3911 109.376L22.5611 130.987L21.7171 109.049Z" fill="#323232"/>
<path d="M25.9189 101.853L26.2119 101.05L23.1997 99.8965L25.9189 101.853Z" fill="#323232"/>
<path d="M12.3574 92.0966L12.6495 91.2959" stroke="#707070" stroke-linecap="round"/>
<path d="M21.391 109.376L21.0684 109.677L22.5611 130.987L21.391 109.376Z" fill="#323232"/>
<path d="M19.2022 110.936L19.5049 110.791L16.4873 108.974L19.2022 110.936Z" fill="#323232"/>
<path d="M5.96397 101.006L5.66211 101.15" stroke="#707070" stroke-linecap="round"/>
<path d="M21.0685 109.677L20.7491 109.952L22.5612 130.987L21.0685 109.677ZM20.7491 109.952L20.4331 110.201L22.5612 130.987L20.7491 109.952Z" fill="#323232"/>
<path d="M26.212 101.049L26.5001 100.211L23.4927 99.0938L26.212 101.049Z" fill="#323232"/>
<path d="M12.6494 91.2957L12.9364 90.4595" stroke="#707070" stroke-linecap="round"/>
<path d="M20.4333 110.201L20.1206 110.424L22.5614 130.987L20.4333 110.201Z" fill="#323232"/>
<path d="M18.9145 111.038L19.2022 110.935L16.1997 109.076L18.9145 111.038Z" fill="#323232"/>
<path d="M5.66189 101.15L5.375 101.253" stroke="#707070" stroke-linecap="round"/>
<path d="M20.1203 110.423L19.8109 110.62L22.5611 130.986L20.1203 110.423ZM19.8109 110.62L19.5049 110.791L22.5611 130.986L19.8109 110.62Z" fill="#323232"/>
<path d="M18.6135 111.129L18.9146 111.038L15.8989 109.167L18.6135 111.129Z" fill="#323232"/>
<path d="M5.37496 101.253L5.07471 101.343" stroke="#707070" stroke-linecap="round"/>
<path d="M26.4998 100.211L26.7829 99.3367L23.7803 98.2559L26.4998 100.211Z" fill="#323232"/>
<path d="M12.9365 90.4596L13.2185 89.5879" stroke="#707070" stroke-linecap="round"/>
<path d="M19.5049 110.791L19.2021 110.936L22.561 130.987L19.5049 110.791Z" fill="#323232"/>
<path d="M18.2989 111.207L18.6134 111.129L15.5845 109.245L18.2989 111.207Z" fill="#323232"/>
<path d="M5.07486 101.343L4.76123 101.42" stroke="#707070" stroke-linecap="round"/>
<path d="M19.2022 110.936L18.9145 111.038L22.5611 130.987L19.2022 110.936ZM14.8651 111.347L14.521 131.154L16.2399 131.261L14.8651 111.347ZM18.9145 111.038L18.6134 111.129L22.5611 130.987L18.9145 111.038Z" fill="#323232"/>
<path d="M17.9711 111.272L18.299 111.207L15.2568 109.31L17.9711 111.272Z" fill="#323232"/>
<path d="M4.76108 101.42L4.43408 101.486" stroke="#707070" stroke-linecap="round"/>
<path d="M18.6133 111.129L18.2988 111.207L22.561 130.987L18.6133 111.129Z" fill="#323232"/>
<path d="M26.7833 99.3365L27.3918 97.3105L24.0635 97.3818L26.7833 99.3365Z" fill="#323232"/>
<path d="M13.2183 89.5876L13.8245 87.5679" stroke="#707070" stroke-linecap="round"/>
<path d="M48.4907 86.8616L49.4527 79.853L51.6932 59.6304L48.4907 86.8616ZM18.2991 111.207L17.9712 111.272L22.5613 130.987L18.2991 111.207Z" fill="#323232"/>
<path d="M17.6301 111.325L17.9714 111.272L14.916 109.363L17.6301 111.325Z" fill="#323232"/>
<path d="M4.43411 101.486L4.09375 101.539" stroke="#707070" stroke-linecap="round"/>
<path d="M17.9712 111.272L17.6299 111.325L22.5613 130.987L17.9712 111.272Z" fill="#323232"/>
<path d="M30.0568 83.8125L27.3343 81.8672L26.8521 85.0143L30.0568 83.8125Z" fill="#323232"/>
<path d="M22.561 130.987L51.6929 59.6304L23.726 106.478L22.561 130.987Z" fill="#323232"/>
<path d="M17.2754 111.366L17.6301 111.325L14.5615 109.403L17.2754 111.366Z" fill="#323232"/>
<path d="M4.09397 101.539L3.74023 101.579" stroke="#707070" stroke-linecap="round"/>
<path d="M17.6296 111.325L17.2749 111.366L22.561 130.987L17.6296 111.325Z" fill="#323232"/>
<path d="M29.3679 62.7581L29.6992 58.2607L26.6465 60.8266L29.3679 62.7581Z" fill="#323232"/>
<path d="M17.2753 111.366L16.9072 111.394L22.5615 130.987L17.2753 111.366Z" fill="#323232"/>
<path d="M27.3916 97.3105L27.975 95.0601L24.6714 95.357L27.3916 97.3105Z" fill="#323232"/>
<path d="M13.8247 87.5678L14.4058 85.3242" stroke="#707070" stroke-linecap="round"/>
<path d="M16.907 111.394L17.2751 111.366L14.1934 109.432L16.907 111.394Z" fill="#323232"/>
<path d="M3.74015 101.579L3.37305 101.606" stroke="#707070" stroke-linecap="round"/>
<path d="M16.9069 111.394L16.5254 111.41L22.5612 130.987L16.9069 111.394Z" fill="#323232"/>
<path d="M16.5254 111.41L16.907 111.394L13.812 109.447L16.5254 111.41Z" fill="#323232"/>
<path d="M3.37316 101.606L2.99268 101.622" stroke="#707070" stroke-linecap="round"/>
<path d="M16.5254 111.41L16.1305 111.413L22.5612 130.987L16.5254 111.41ZM16.1305 111.413L15.7222 111.403L22.5612 130.987L16.1305 111.413Z" fill="#323232"/>
<path d="M16.1307 111.413L16.5256 111.41L13.4175 109.45L16.1307 111.413Z" fill="#323232"/>
<path d="M2.99249 101.622L2.59863 101.625" stroke="#707070" stroke-linecap="round"/>
<path d="M15.722 111.403L15.3003 111.381L22.5611 130.986L15.722 111.403Z" fill="#323232"/>
<path d="M27.9751 95.0604L28.5333 92.5854L25.2544 93.1083L27.9751 95.0604Z" fill="#323232"/>
<path d="M14.4058 85.3244L14.9616 82.8569" stroke="#707070" stroke-linecap="round"/>
<path d="M15.7223 111.403L16.1306 111.413L13.0093 109.441L15.7223 111.403Z" fill="#323232"/>
<path d="M2.59864 101.625L2.19141 101.616" stroke="#707070" stroke-linecap="round"/>
<path d="M49.4526 79.853L49.8886 76.1332L51.6932 59.6304L49.4526 79.853Z" fill="#323232"/>
<path d="M30.5144 80.4385L27.7914 78.4951L27.3343 81.867L30.5144 80.4385ZM15.3007 111.381L15.7224 111.403L12.5879 109.419L15.3007 111.381Z" fill="#323232"/>
<path d="M2.1916 101.616L1.771 101.594" stroke="#707070" stroke-linecap="round"/>
<path d="M14.8654 111.347L15.3005 111.382L12.1528 109.385L14.8654 111.347Z" fill="#323232"/>
<path d="M1.7709 101.594L1.33691 101.56M12.1528 109.385L14.8653 111.347L12.1528 109.385ZM9.44366 107.425L12.1528 109.385L9.44366 107.425ZM6.73799 105.467L9.44366 107.425L6.73799 105.467ZM4.03574 103.512L6.73799 105.467L4.03574 103.512ZM4.03574 103.512L1.33691 101.56L4.03574 103.512Z" stroke="#707070" stroke-linecap="round"/>
<path d="M28.5332 92.5853L29.0662 89.8857L25.812 90.6347L28.5332 92.5853Z" fill="#323232"/>
<path d="M14.9619 82.857L15.4926 80.1655" stroke="#707070" stroke-linecap="round"/>
<path d="M30.8952 40.8116L28.1715 38.8931L26.9775 56.3317L30.8952 40.8116Z" fill="#323232"/>
<path d="M15.3004 111.381L14.8652 111.347L16.24 131.261L15.3004 111.381Z" fill="#323232"/>
<path d="M30.9468 76.8396L28.2233 74.8984L27.7914 78.4952L30.9468 76.8396ZM29.0664 89.8857L29.5742 86.9614L26.3447 87.9367L29.0664 89.8857Z" fill="#323232"/>
<path d="M15.4922 80.1655L15.9977 77.25" stroke="#707070" stroke-linecap="round"/>
<path d="M51.693 59.6304L24.0544 105.924L23.7261 106.478L51.693 59.6304ZM51.693 59.6304L24.3777 105.335L24.0544 105.924L51.693 59.6304ZM51.693 59.6304L24.696 104.71L24.3777 105.335L51.693 59.6304ZM51.693 59.6304L25.0092 104.049L24.696 104.71L51.693 59.6304ZM51.693 59.6304L25.3174 103.352L25.0092 104.049L51.693 59.6304Z" fill="#323232"/>
<path d="M29.5741 86.9615L30.0568 83.8125L26.8521 85.0143L29.5741 86.9615Z" fill="#323232"/>
<path d="M15.998 77.25L16.4784 74.1104" stroke="#707070" stroke-linecap="round"/>
<path d="M29.6994 58.2605L30.8952 40.8115L26.9775 56.3316L29.6994 58.2605Z" fill="#323232"/>
<path d="M51.693 59.6305L25.6205 102.621L25.3174 103.353L51.693 59.6305ZM51.693 59.6305L25.9187 101.853L25.6205 102.621L51.693 59.6305ZM51.693 59.6305L89.4564 37.5479L31.7357 68.9667L51.693 59.6305Z" fill="#323232"/>
<path d="M31.3539 73.0156L28.6299 71.0767L28.2231 74.8984L31.3539 73.0156Z" fill="#323232"/>
<path d="M51.6933 59.6304L26.212 101.05L25.9189 101.853L51.6933 59.6304ZM51.6933 59.6304L26.5001 100.211L26.212 101.05L51.6933 59.6304ZM51.6933 59.6304L26.7831 99.3367L26.5001 100.211L51.6933 59.6304ZM51.6933 59.6304L27.3916 97.3108L26.7831 99.3367L51.6933 59.6304Z" fill="#323232"/>
<path d="M30.0565 83.8124L30.5141 80.4385L27.334 81.867L30.0565 83.8124Z" fill="#323232"/>
<path d="M51.6932 59.6304L27.975 95.0604L27.3916 97.3108L51.6932 59.6304ZM51.6932 59.6304L28.5331 92.5854L27.975 95.0604L51.6932 59.6304Z" fill="#323232"/>
<path d="M31.7359 68.9663L29.0115 67.0298L28.6299 71.0766L31.7359 68.9663Z" fill="#323232"/>
<path d="M51.6933 59.6304L29.0662 89.8859L28.5332 92.5854L51.6933 59.6304Z" fill="#323232"/>
<path d="M30.514 80.4387L30.9464 76.8398L27.791 78.4954L30.514 80.4387Z" fill="#323232"/>
<path d="M51.693 59.6304L29.5738 86.9616L29.0659 89.8859L51.693 59.6304Z" fill="#323232"/>
<path d="M32.0931 64.6918L29.3682 62.7578L29.0117 67.0298L32.0931 64.6918Z" fill="#323232"/>
<path d="M51.6929 59.6305L30.0564 83.8127L29.5737 86.9617L51.6929 59.6305ZM89.4564 37.5479L32.0926 64.6922L31.7357 68.9667L89.4564 37.5479Z" fill="#323232"/>
<path d="M30.9466 76.8396L31.3539 73.0156L28.2231 74.8984L30.9466 76.8396Z" fill="#323232"/>
<path d="M51.6932 59.6305L30.5142 80.4388L30.0566 83.8127L51.6932 59.6305ZM89.4566 37.5479L32.4247 60.1922L32.0929 64.6922L89.4566 37.5479ZM51.6932 59.6305L30.9466 76.8399L30.5142 80.4388L51.6932 59.6305Z" fill="#323232"/>
<path d="M32.4247 60.1922L29.6993 58.2609L29.368 62.7582L32.4247 60.1922ZM31.3538 73.0159L31.7359 68.9667L28.6299 71.077L31.3538 73.0159ZM33.6222 42.7328L89.4566 37.5479L30.8951 40.8119L33.6222 42.7328Z" fill="#323232"/>
<path d="M78.4462 29.9047L75.7023 28M86.6986 35.6333L89.4564 37.5476L86.6986 35.6333ZM83.9443 33.7213L86.6986 35.6333L83.9443 33.7213ZM81.1935 31.8118L83.9443 33.7213L81.1935 31.8118ZM78.4462 29.9047L81.1935 31.8118L78.4462 29.9047ZM20.021 33.1523L75.7023 28L20.021 33.1523Z" stroke="#707070" stroke-linecap="round"/>
<path d="M51.6934 59.6304L31.354 73.0159L30.9468 76.8398L51.6934 59.6304Z" fill="#323232"/>
<path d="M31.7361 68.9664L32.0931 64.6919L29.0117 67.0299L31.7361 68.9664Z" fill="#323232"/>
<path d="M51.6933 59.6305L31.7361 68.9667L31.354 73.0159L51.6933 59.6305ZM89.4568 37.5479L33.6224 42.7328L32.4249 60.1922L89.4568 37.5479Z" fill="#323232"/>
<path d="M23.3927 106.997L23.0543 107.48M89.3808 124.004L70.1879 125.837L89.3808 124.004ZM89.4564 37.5479L89.3808 124.004L89.4564 37.5479ZM49.8884 76.1333L49.4524 79.8531L49.8884 76.1333ZM51.693 59.6305L49.8884 76.1333L51.693 59.6305ZM48.9865 83.4292L48.4905 86.8617L48.9865 83.4292ZM48.9865 83.4292L49.4524 79.8531L48.9865 83.4292ZM47.9644 90.1507L47.4084 93.2962L47.9644 90.1507ZM47.9644 90.1507L48.4905 86.8617L47.9644 90.1507ZM46.8223 96.2982L46.2062 99.1569L46.8223 96.2982ZM46.8223 96.2982L47.4084 93.2962L46.8223 96.2982ZM45.5601 101.872L44.8839 104.445L45.5601 101.872ZM45.5601 101.872L46.2062 99.1569L45.5601 101.872ZM44.1777 106.874L43.4414 109.159L44.1777 106.874ZM44.1777 106.874L44.8839 104.445L44.1777 106.874ZM42.6751 111.302L41.8995 113.295L42.6751 111.302ZM42.6751 111.302L43.4414 109.159L42.6751 111.302ZM41.0956 115.175L40.2633 116.943L41.0956 115.175ZM41.0956 115.175L41.8995 113.295L41.0956 115.175ZM39.4026 118.599L38.5134 120.142L39.4026 118.599ZM39.4026 118.599L40.2633 116.943L39.4026 118.599ZM37.5959 121.573L36.6499 122.892L37.5959 121.573ZM37.5959 121.573L38.5134 120.142L37.5959 121.573ZM35.6754 124.099L34.6725 125.194L35.6754 124.099ZM35.6754 124.099L36.6499 122.892L35.6754 124.099ZM33.6411 126.176L32.5812 127.047L33.6411 126.176ZM33.6411 126.176L34.6725 125.194L33.6411 126.176ZM31.4929 127.805L30.3827 128.47L31.4929 127.805ZM31.4929 127.805L32.5812 127.047L31.4929 127.805ZM29.2173 129.065L27.9966 129.589L29.2173 129.065ZM29.2173 129.065L30.3827 128.47L29.2173 129.065ZM26.7207 130.044L25.3895 130.428L26.7207 130.044ZM26.7207 130.044L27.9966 129.589L26.7207 130.044ZM24.0029 130.743L22.5611 130.987L24.0029 130.743ZM24.0029 130.743L25.3895 130.428L24.0029 130.743ZM21.0639 131.161L19.5113 131.264L21.0639 131.161ZM21.0639 131.161L22.5611 130.987L21.0639 131.161ZM17.9033 131.298L16.2399 131.261L17.9033 131.298ZM17.9033 131.298L19.5113 131.264L17.9033 131.298ZM14.521 131.154L14.8651 111.347L14.521 131.154ZM14.521 131.154L16.2399 131.261L14.521 131.154ZM33.622 42.7328L89.4564 37.5479L33.622 42.7328ZM70.2169 57.8997L70.1879 125.837L70.2169 57.8997ZM15.3003 111.382L14.8651 111.347L15.3003 111.382ZM70.2169 57.8997L51.693 59.6305L70.2169 57.8997ZM15.722 111.404L15.3003 111.382L15.722 111.404ZM16.1304 111.413L15.722 111.404L16.1304 111.413ZM16.5253 111.41L16.1304 111.413L16.5253 111.41ZM16.9068 111.394L16.5253 111.41L16.9068 111.394ZM17.2749 111.366L16.9068 111.394L17.2749 111.366ZM17.6297 111.325L17.2749 111.366L17.6297 111.325ZM29.5738 86.9617L30.0565 83.8127L29.5738 86.9617ZM17.971 111.272L17.6297 111.325L17.971 111.272ZM29.0659 89.886L29.5738 86.9617L29.0659 89.886ZM18.2989 111.207L17.971 111.272L18.2989 111.207ZM28.5329 92.5855L29.0659 89.886L28.5329 92.5855ZM18.6134 111.129L18.2989 111.207L18.6134 111.129ZM27.9747 95.0605L28.5329 92.5855L27.9747 95.0605ZM18.9145 111.039L18.6134 111.129L18.9145 111.039ZM27.3914 97.3108L27.9747 95.0605L27.3914 97.3108ZM19.2022 110.936L18.9145 111.039L19.2022 110.936ZM26.7828 99.3368L27.3914 97.3108L26.7828 99.3368ZM19.5049 110.791L19.2022 110.936L19.5049 110.791ZM26.4998 100.211L26.7828 99.3368L26.4998 100.211ZM19.8109 110.621L19.5049 110.791L19.8109 110.621ZM26.2118 101.05L26.4998 100.211L26.2118 101.05ZM20.1203 110.424L19.8109 110.621L20.1203 110.424ZM25.9187 101.853L26.2118 101.05L25.9187 101.853ZM20.433 110.201L20.1203 110.424L20.433 110.201ZM25.6206 102.621L25.9187 101.853L25.6206 102.621ZM20.749 109.952L20.433 110.201L20.749 109.952ZM25.3174 103.353L25.6206 102.621L25.3174 103.353ZM21.0684 109.677L20.749 109.952L21.0684 109.677ZM25.0092 104.049L25.3174 103.353L25.0092 104.049ZM21.391 109.376L21.0684 109.677L21.391 109.376ZM24.696 104.71L25.0092 104.049L24.696 104.71ZM21.717 109.049L21.391 109.376L21.717 109.049ZM24.3777 105.335L24.696 104.71L24.3777 105.335ZM22.0464 108.696L21.717 109.049L22.0464 108.696ZM24.0544 105.924L24.3777 105.335L24.0544 105.924ZM22.379 108.316L22.0464 108.696L22.379 108.316ZM23.7261 106.478L24.0544 105.924L23.7261 106.478ZM22.715 107.911L22.379 108.316L22.715 107.911ZM23.0543 107.48L22.715 107.911L23.0543 107.48ZM23.3927 106.997L23.7261 106.478L23.3927 106.997Z" stroke="#707070" stroke-linecap="round"/>
<path d="M32.093 64.6918L32.4248 60.1918L29.3682 62.7578L32.093 64.6918ZM33.6223 42.7325L30.8952 40.8115L29.6995 58.2605L33.6223 42.7325ZM32.4248 60.1918L33.6223 42.7325L29.6995 58.2605L32.4248 60.1918Z" fill="#323232"/>
<path d="M22.7347 35.0636L20.0214 33.1523M30.0568 83.8126L30.5144 80.4387L30.0568 83.8126ZM16.4785 74.1104L16.9337 70.7466L16.4785 74.1104ZM30.5144 80.4387L30.9468 76.8398L30.5144 80.4387ZM16.9337 70.7466L17.3638 67.1584L16.9337 70.7466ZM30.9468 76.8398L31.354 73.0158L30.9468 76.8398ZM17.3638 67.1584L17.7687 63.3457L17.3638 67.1584ZM31.354 73.0158L31.7361 68.9666L31.354 73.0158ZM17.7687 63.3457L18.1485 59.3086L17.7687 63.3457ZM31.7361 68.9666L32.0931 64.6921L31.7361 68.9666ZM18.1485 59.3086L18.5032 55.0467L18.1485 59.3086ZM32.0931 64.6921L32.4249 60.192L32.0931 64.6921ZM18.5032 55.0467L18.8326 50.56L18.5032 55.0467ZM32.4249 60.192L33.6224 42.7327L32.4249 60.192ZM30.8953 40.8118L33.6224 42.7327L30.8953 40.8118ZM28.1716 38.8933L30.8953 40.8118L28.1716 38.8933ZM25.4514 36.9772L28.1716 38.8933L25.4514 36.9772ZM22.7347 35.0636L25.4514 36.9772L22.7347 35.0636ZM20.0214 33.1523L18.8326 50.56L20.0214 33.1523Z" stroke="#707070" stroke-linecap="round"/>
</svg>
