<svg width="169" height="134" viewBox="0 0 169 134" fill="none" xmlns="http://www.w3.org/2000/svg">
<path d="M109.317 90.7551L112.045 88.7976L149.229 38.7226L109.317 90.7551ZM111.707 58.3531L114.436 56.4144L114.432 2.77491L111.707 58.3531ZM106.584 92.7151L109.317 90.7551L146.517 40.6532L106.584 92.7151ZM146.517 40.6532L109.317 90.7551L149.229 38.7226L146.517 40.6532ZM111.699 4.68214L111.707 58.3531L114.432 2.77491L111.699 4.68214ZM108.974 60.2942L111.707 58.3531L111.699 4.68214L108.974 60.2942ZM111.699 4.68214L114.432 2.77491L95.2519 1L111.699 4.68214ZM92.5085 2.90498L111.699 4.68214L95.2519 1L92.5085 2.90498ZM103.849 94.6776L106.584 92.7151L143.802 42.5862L103.849 94.6776ZM165.697 96.1256L168.394 94.1613L168.496 7.77808L165.697 96.1256ZM143.802 42.5862L106.584 92.7151L146.517 40.6532L143.802 42.5862ZM108.962 6.59177L108.974 60.2942L111.699 4.68214L108.962 6.59177ZM106.238 62.2379L108.974 60.2942L108.962 6.59177L106.238 62.2379ZM108.962 6.59177L111.699 4.68214L92.5085 2.90498L108.962 6.59177ZM89.7616 4.81237L108.962 6.59177L92.5085 2.90498L89.7616 4.81237ZM101.11 96.6425L103.849 94.6776L141.083 44.5216L101.11 96.6425ZM162.995 98.0924L165.697 96.1256L165.793 9.69164L162.995 98.0924ZM141.083 44.5216L103.849 94.6776L143.802 42.5862L141.083 44.5216ZM106.223 8.50383L106.238 62.2379L108.962 6.59177L106.223 8.50383ZM103.498 64.1839L106.238 62.2379L106.223 8.50383L103.498 64.1839ZM106.223 8.50383L108.962 6.59177L89.7616 4.81237L106.223 8.50383ZM87.0112 6.72216L106.223 8.50383L89.7616 4.81237L87.0112 6.72216ZM165.793 9.69164L165.697 96.1256L168.496 7.77808L165.793 9.69164ZM98.3673 98.61L101.11 96.6425L138.361 46.4595L98.3673 98.61ZM165.793 9.69164L168.496 7.77808L151.657 6.21976L165.793 9.69164Z" fill="#323232"/>
<path d="M81.5742 97.0058L98.3674 98.6101L135.636 48.3999L81.5742 97.0058Z" fill="#323232"/>
<path d="M148.944 8.13131L165.793 9.6916L151.657 6.21973L148.944 8.13131ZM160.291 100.062L162.996 98.0924L163.086 11.6076L160.291 100.062ZM138.361 46.4594L101.11 96.6425L141.083 44.5216L138.361 46.4594Z" fill="#323232"/>
<path d="M100.754 66.1327L100.733 12.3354L81.5742 97.006L100.754 66.1327Z" fill="#323232"/>
<path d="M103.479 10.4183L103.498 64.1839L106.222 8.50383L103.479 10.4183ZM100.754 66.1325L103.498 64.1839L103.479 10.4183L100.754 66.1325ZM103.479 10.4183L106.222 8.50383L87.0112 6.72217L103.479 10.4183ZM84.2573 8.63439L103.479 10.4183L87.0112 6.72217L84.2573 8.63439Z" fill="#323232"/>
<path d="M100.754 66.1325L81.5742 97.0058L135.636 48.3999L100.754 66.1325Z" fill="#323232"/>
<path d="M163.086 11.6074L162.996 98.0922L165.793 9.69141L163.086 11.6074Z" fill="#323232"/>
<path d="M100.732 12.335L81.5 10.5488L81.5741 97.0056L100.732 12.335Z" fill="#323232"/>
<path d="M163.086 11.6076L165.793 9.69164L148.944 8.13135L163.086 11.6076ZM146.228 10.0454L163.086 11.6076L148.944 8.13135L146.228 10.0454ZM157.583 102.033L160.291 100.062L160.376 13.526L157.583 102.033ZM135.636 48.3998L98.3672 98.61L138.361 46.4595L135.636 48.3998Z" fill="#323232"/>
<path d="M109.317 90.7551L112.045 88.7976M138.361 46.4595L135.636 48.3998L138.361 46.4595ZM101.11 96.6426L98.3672 98.61L101.11 96.6426ZM141.083 44.5216L138.361 46.4595L141.083 44.5216ZM103.849 94.6776L101.11 96.6426L103.849 94.6776ZM143.802 42.5862L141.083 44.5216L143.802 42.5862ZM106.584 92.7151L103.849 94.6776L106.584 92.7151ZM146.517 40.6532L143.802 42.5862L146.517 40.6532ZM109.317 90.7551L106.584 92.7151L109.317 90.7551ZM146.517 40.6532L149.229 38.7227L146.517 40.6532ZM112.045 88.7976L149.229 38.7227L112.045 88.7976Z" stroke="#707070" stroke-linecap="round"/>
<path d="M100.732 12.3354L100.754 66.1326L103.479 10.4185L100.732 12.3354Z" fill="#323232"/>
<path d="M111.707 58.3531L114.436 56.4144M103.498 64.1839L100.754 66.1325L103.498 64.1839ZM106.238 62.2378L103.498 64.1839L106.238 62.2378ZM108.974 60.2942L106.238 62.2378L108.974 60.2942ZM111.707 58.3531L108.974 60.2942L111.707 58.3531ZM114.436 56.4144L114.432 2.7749L114.436 56.4144Z" stroke="#707070" stroke-linecap="round"/>
<path d="M100.732 12.3351L103.479 10.4182L84.2573 8.63428L100.732 12.3351ZM81.5 10.5489L100.732 12.3351L84.2573 8.63428L81.5 10.5489Z" fill="#323232"/>
<path d="M111.699 4.68214L114.432 2.77491M84.2573 8.63438L81.5 10.549L84.2573 8.63438ZM103.479 10.4183L100.732 12.3352L103.479 10.4183ZM87.0112 6.72216L84.2573 8.63438L87.0112 6.72216ZM106.223 8.50383L103.479 10.4183L106.223 8.50383ZM89.7616 4.81237L87.0112 6.72216L89.7616 4.81237ZM108.962 6.59177L106.223 8.50383L108.962 6.59177ZM92.5085 2.90498L89.7616 4.81237L92.5085 2.90498ZM111.699 4.68214L108.962 6.59177L111.699 4.68214ZM92.5085 2.90498L95.2519 1L92.5085 2.90498ZM114.432 2.77491L95.2519 1L114.432 2.77491Z" stroke="#707070" stroke-linecap="round"/>
<path d="M160.376 13.5261L160.291 100.062L163.086 11.6077L160.376 13.5261ZM160.376 13.5261L163.086 11.6077L146.228 10.0454L160.376 13.5261ZM143.509 11.9618L160.376 13.5261L146.228 10.0454L143.509 11.9618ZM154.871 104.008L157.582 102.034L157.662 15.4469L154.871 104.008Z" fill="#323232"/>
<path d="M135.614 102.168L154.871 104.008L154.946 17.3701L135.614 102.168Z" fill="#323232"/>
<path d="M157.662 15.4467L157.583 102.033L160.376 13.5259L157.662 15.4467Z" fill="#323232"/>
<path d="M135.636 48.3998L154.946 17.3701L100.754 66.1324L135.636 48.3998ZM135.636 48.3998L135.614 102.168L154.946 17.3701L135.636 48.3998Z" fill="#323232"/>
<path d="M157.662 15.447L160.376 13.5262L143.509 11.9619L157.662 15.447ZM140.786 13.8808L157.662 15.447L143.509 11.9619L140.786 13.8808Z" fill="#323232"/>
<path d="M154.946 17.37L138.06 15.8018L100.754 66.1323L154.946 17.37Z" fill="#323232"/>
<path d="M135.614 102.168L135.636 48.3996M98.3672 98.6098L81.5741 97.0056L98.3672 98.6098ZM135.636 48.3996L98.3672 98.6098L135.636 48.3996ZM81.5 10.5488L100.732 12.335L81.5 10.5488ZM81.5 10.5488L81.5741 97.0056L81.5 10.5488ZM100.754 66.1323L138.06 15.8017L100.754 66.1323ZM154.871 104.008L135.614 102.168L154.871 104.008ZM100.754 66.1323L100.732 12.335L100.754 66.1323Z" stroke="#707070" stroke-linecap="round"/>
<path d="M154.946 17.3701L154.871 104.008L157.662 15.4468L154.946 17.3701Z" fill="#323232"/>
<path d="M165.697 96.1259L168.394 94.1616M154.871 104.008L154.946 17.3704L154.871 104.008ZM157.583 102.034L154.871 104.008L157.583 102.034ZM160.291 100.062L157.583 102.034L160.291 100.062ZM162.995 98.0927L160.291 100.062L162.995 98.0927ZM165.697 96.1259L162.995 98.0927L165.697 96.1259ZM168.394 94.1616L168.496 7.77832L168.394 94.1616Z" stroke="#707070" stroke-linecap="round"/>
<path d="M154.946 17.3704L157.663 15.4471L140.786 13.8809L154.946 17.3704ZM138.06 15.8022L154.946 17.3704L140.786 13.8809L138.06 15.8022Z" fill="#323232"/>
<path d="M165.793 9.6916L168.496 7.77805M138.06 15.8019L154.946 17.3701L138.06 15.8019ZM140.786 13.8806L138.06 15.8019L140.786 13.8806ZM157.663 15.4468L154.946 17.3701L157.663 15.4468ZM143.509 11.9618L140.786 13.8806L143.509 11.9618ZM160.376 13.526L157.663 15.4468L160.376 13.526ZM146.228 10.0453L143.509 11.9618L146.228 10.0453ZM163.086 11.6076L160.376 13.526L163.086 11.6076ZM148.944 8.13131L146.228 10.0453L148.944 8.13131ZM165.793 9.6916L163.086 11.6076L165.793 9.6916ZM148.944 8.13131L151.657 6.21973L148.944 8.13131ZM168.496 7.77805L151.657 6.21973L168.496 7.77805Z" stroke="#707070" stroke-linecap="round"/>
<path d="M73.7891 103.32L71.0565 101.368L71.0522 116.12L73.7891 103.32ZM73.7838 118.081L73.7891 103.32L71.0522 116.12L73.7838 118.081ZM91.7522 83.1584L89.0086 81.2189L77.6446 82.2916L91.7522 83.1584ZM80.382 84.2325L91.7522 83.1584L77.6446 82.2916L80.382 84.2325ZM76.5251 105.275L73.7891 103.32L73.7838 118.081L76.5251 105.275ZM76.5189 120.045L76.5251 105.275L73.7838 118.081L76.5189 120.045ZM94.4993 85.1004L91.7522 83.1584L80.382 84.2325L94.4993 85.1004ZM83.1228 86.1758L94.4993 85.1004L80.382 84.2325L83.1228 86.1758ZM61.2141 86.0431L58.4873 84.0999L31.1491 86.6805L61.2141 86.0431ZM79.2646 107.233L76.5251 105.275L76.5189 120.045L79.2646 107.233ZM79.2575 122.011L79.2646 107.233L76.5189 120.045L79.2575 122.011ZM97.2498 87.0448L94.4993 85.1004L83.1228 86.1758L97.2498 87.0448ZM61.2141 86.0431L61.217 36.7056L58.4873 84.0999L61.2141 86.0431ZM85.8671 88.1215L97.2498 87.0448L83.1228 86.1758L85.8671 88.1215ZM61.217 36.7056L58.487 34.7913L58.4873 84.0999L61.217 36.7056ZM33.861 88.6269L61.2141 86.0431L31.1491 86.6805L33.861 88.6269ZM63.9445 87.9887L61.2141 86.0431L33.861 88.6269L63.9445 87.9887ZM82.0076 109.192L79.2646 107.233L79.2575 122.011L82.0076 109.192ZM81.9995 123.979L82.0076 109.192L79.2575 122.011L81.9995 123.979ZM100.004 88.9916L97.2498 87.0448L85.8671 88.1215L100.004 88.9916ZM63.9445 87.9887L63.9505 38.6222L61.2141 86.0431L63.9445 87.9887ZM88.6149 90.0698L100.004 88.9916L85.8671 88.1215L88.6149 90.0698ZM63.9505 38.6222L61.217 36.7056L61.2141 86.0431L63.9505 38.6222ZM36.5763 90.5758L63.9445 87.9887L33.861 88.6269L36.5763 90.5758ZM3.73816 124.769L3.69533 91.4764L1.0449 122.8L3.73816 124.769ZM13.3158 89.6877L10.6152 87.7393L10.0145 88.6755L13.3158 89.6877ZM13.9184 88.636L11.2173 86.6883L10.6152 87.7393L13.9184 88.636ZM14.5225 87.4693L11.8211 85.5223L11.2173 86.6883L14.5225 87.4693ZM3.69533 91.4764L1 89.5264L1.0449 122.8L3.69533 91.4764ZM15.1282 86.1876L12.4264 84.2414L11.8211 85.5223L15.1282 86.1876ZM15.7355 84.7909L13.0332 82.8456L12.4264 84.2414L15.7355 84.7909ZM16.3443 83.2792L13.6416 81.3348L13.0332 82.8456L16.3443 83.2792ZM66.6783 89.9368L63.9445 87.9887L36.5763 90.5758L66.6783 89.9368ZM16.9547 81.6524L14.2516 79.709L13.6416 81.3348L16.9547 81.6524ZM80.4164 16.4011L77.6746 14.5L22.8097 19.5648L80.4164 16.4011ZM17.5667 79.9106L14.8631 77.9682L14.2516 79.709L17.5667 79.9106ZM12.7148 90.6244L10.0145 88.6755L1 89.5264L12.7148 90.6244ZM18.1803 78.0537L15.4762 76.1125L14.8631 77.9682L18.1803 78.0537ZM84.754 111.155L82.0076 109.192L81.9995 123.979L84.754 111.155ZM18.7955 76.0817L16.0909 74.1417L15.4762 76.1125L18.7955 76.0817ZM19.4122 73.9945L16.7072 72.0558L16.0909 74.1417L19.4122 73.9945ZM20.0306 71.7923L17.3251 69.8548L16.7072 72.0558L20.0306 71.7923ZM84.745 125.95L84.754 111.155L81.9995 123.979L84.745 125.95Z" fill="#323232"/>
<path d="M73.7896 103.32L71.057 101.368M82 123.979L84.7455 125.95L82 123.979ZM82.0081 109.192L84.7545 111.155L82.0081 109.192ZM79.258 122.011L82 123.979L79.258 122.011ZM79.2651 107.232L82.0081 109.192L79.2651 107.232ZM76.5195 120.045L79.258 122.011L76.5195 120.045ZM76.5256 105.275L79.2651 107.232L76.5256 105.275ZM73.7844 118.081L76.5195 120.045L73.7844 118.081ZM73.7896 103.32L76.5256 105.275L73.7896 103.32ZM73.7844 118.081L71.0527 116.12L73.7844 118.081ZM71.057 101.368L71.0527 116.12L71.057 101.368Z" stroke="#707070" stroke-linecap="round"/>
<path d="M12.714 90.6245L13.315 89.6877L10.0137 88.6755L12.714 90.6245ZM13.315 89.6877L13.9176 88.636L10.6143 87.7394L13.315 89.6877ZM102.76 90.941L100.003 88.9917L88.614 90.0698L102.76 90.941ZM13.9176 88.636L14.5217 87.4693L11.2165 86.6883L13.9176 88.636ZM20.6488 69.4526L17.9429 67.5166L17.3243 69.8549L20.6488 69.4526ZM14.5217 87.4693L15.1274 86.1876L11.8202 85.5223L14.5217 87.4693Z" fill="#323232"/>
<path d="M84.7532 111.155L84.7441 125.95L102.726 124.229L84.7532 111.155Z" fill="#323232"/>
<path d="M15.1277 86.1878L15.7349 84.7911L12.4258 84.2416L15.1277 86.1878ZM15.7349 84.7911L16.3437 83.2794L13.0326 82.8458L15.7349 84.7911ZM21.2281 67.0396L18.5217 65.105L17.9432 67.5168L21.2281 67.0396ZM16.3437 83.2794L16.9542 81.6526L13.641 81.335L16.3437 83.2794ZM16.9542 81.6526L17.5661 79.9108L14.251 79.7092L16.9542 81.6526ZM21.767 64.5527L19.0602 62.6197L18.5217 65.105L21.767 64.5527ZM17.5661 79.9108L18.1797 78.0539L14.8625 77.9685L17.5661 79.9108ZM18.1797 78.0539L18.7949 76.0819L15.4757 76.1127L18.1797 78.0539ZM22.2659 61.9922L19.5586 60.0607L19.0602 62.6197L22.2659 61.9922ZM18.7949 76.0819L19.4116 73.9948L16.0904 74.1419L18.7949 76.0819ZM66.6777 89.937L66.6869 40.5415L63.9439 87.9889L66.6777 89.937Z" fill="#323232"/>
<path d="M102.726 124.229L102.76 90.9409L91.3652 92.0204L102.726 124.229Z" fill="#323232"/>
<path d="M22.7251 59.3577L20.0174 57.4277L19.5591 60.0603L22.7251 59.3577ZM19.4122 73.9944L20.0306 71.7921L16.7072 72.0556L19.4122 73.9944ZM3.69533 91.4763L12.7148 90.6243L1 89.5263L3.69533 91.4763Z" fill="#323232"/>
<path d="M84.7539 111.155L102.727 124.229L91.366 92.0205L84.7539 111.155Z" fill="#323232"/>
<path d="M20.0297 71.7921L20.6488 69.4524L17.3242 69.8547L20.0297 71.7921ZM23.1428 56.6498L20.4347 54.7215L20.0165 57.4277L23.1428 56.6498ZM20.6488 69.4524L21.2278 67.0392L17.9428 67.5164L20.6488 69.4524ZM23.5213 53.8682L20.8129 51.9416L20.4347 54.7215L23.5213 53.8682ZM21.2278 67.0392L21.7667 64.5523L18.5214 65.1046L21.2278 67.0392ZM21.7667 64.5523L22.2655 61.9919L19.0599 62.6193L21.7667 64.5523ZM23.8597 51.0129L21.1509 49.0879L20.8129 51.9416L23.8597 51.0129ZM91.3652 92.0203L102.76 90.9408L88.614 90.0696L91.3652 92.0203Z" fill="#323232"/>
<path d="M91.7521 83.1583L89.0086 81.2188M88.6148 90.0697L91.366 92.0204L88.6148 90.0697ZM100.004 88.9915L102.761 90.9409L100.004 88.9915ZM85.867 88.1214L88.6148 90.0697L85.867 88.1214ZM97.2497 87.0446L100.004 88.9915L97.2497 87.0446ZM83.1227 86.1756L85.867 88.1214L83.1227 86.1756ZM94.4992 85.1002L97.2497 87.0446L94.4992 85.1002ZM80.3819 84.2323L83.1227 86.1756L80.3819 84.2323ZM91.7521 83.1583L94.4992 85.1002L91.7521 83.1583ZM80.3819 84.2323L77.6445 82.2915L80.3819 84.2323ZM89.0086 81.2188L77.6445 82.2915L89.0086 81.2188Z" stroke="#707070" stroke-linecap="round"/>
<path d="M66.6875 40.5411L63.9505 38.622L63.9445 87.9885L66.6875 40.5411ZM39.295 92.5269L66.6782 89.9366L36.5763 90.5756L39.295 92.5269ZM22.2664 61.9918L22.7251 59.3576L19.5591 60.0603L22.2664 61.9918ZM24.1589 48.0836L21.4497 46.1604L21.1518 49.0878L24.1589 48.0836ZM6.43481 126.741L6.39405 93.4287L3.73814 124.769L6.43481 126.741ZM22.7251 59.3576L23.1437 56.6498L20.0174 57.4277L22.7251 59.3576ZM16.0199 91.6383L13.3158 89.6875L12.7148 90.6242L16.0199 91.6383ZM16.6229 90.5859L13.9184 88.6358L13.3158 89.6875L16.6229 90.5859ZM17.2274 89.4185L14.5225 87.4691L13.9184 88.6358L17.2274 89.4185ZM6.39405 93.4287L3.69531 91.4762L3.73814 124.769L6.39405 93.4287ZM17.8335 88.136L15.1282 86.1874L14.5225 87.4691L17.8335 88.136ZM24.4171 45.0806L21.7076 43.1591L21.4497 46.1604L24.4171 45.0806ZM18.4412 86.7385L15.7355 84.7907L15.1282 86.1874L18.4412 86.7385ZM23.1437 56.6498L23.5222 53.8682L20.4356 54.7214L23.1437 56.6498ZM19.0504 85.2258L16.3443 83.279L15.7355 84.7907L19.0504 85.2258ZM69.4155 91.8871L66.6782 89.9366L39.295 92.5269L69.4155 91.8871ZM19.6613 83.5981L16.9547 81.6522L16.3443 83.279L19.6613 83.5981ZM83.1616 18.3044L80.4164 16.4009L25.5213 21.4721L83.1616 18.3044ZM20.2737 81.8552L17.5667 79.9104L16.9547 81.6522L20.2737 81.8552ZM24.6352 42.0036L21.9253 40.084L21.7076 43.1591L24.6352 42.0036ZM15.4185 92.5756L12.7148 90.6242L3.69531 91.4762L15.4185 92.5756ZM23.5222 53.8682L23.8606 51.0128L20.8138 51.9415L23.5222 53.8682ZM20.8877 79.9971L18.1803 78.0535L17.5667 79.9104L20.8877 79.9971ZM21.5034 78.0239L18.7954 76.0815L18.1803 78.0535L21.5034 78.0239ZM24.8131 38.8528L22.1029 36.935L21.9253 40.084L24.8131 38.8528ZM23.8606 51.0128L24.1589 48.0836L21.1518 49.0878L23.8606 51.0128ZM22.1206 75.9355L19.4122 73.9943L18.7954 76.0815L22.1206 75.9355ZM22.7394 73.7319L20.0306 71.7921L19.4122 73.9943L22.7394 73.7319ZM25.5213 21.4721L80.4164 16.4009L22.8097 19.5646L25.5213 21.4721ZM15.4185 92.5756L16.0199 91.6383L12.7148 90.6242L15.4185 92.5756ZM16.0199 91.6383L16.6229 90.5859L13.3158 89.6875L16.0199 91.6383ZM24.1589 48.0836L24.4171 45.0806L21.4497 46.1604L24.1589 48.0836ZM16.6229 90.5859L17.2274 89.4185L13.9184 88.6358L16.6229 90.5859ZM23.359 71.3908L20.6497 69.4524L20.0306 71.7921L23.359 71.3908ZM17.2274 89.4185L17.8335 88.136L14.5225 87.4691L17.2274 89.4185ZM17.8335 88.136L18.4412 86.7385L15.1282 86.1874L17.8335 88.136ZM18.4412 86.7385L19.0504 85.2258L15.7355 84.7907L18.4412 86.7385ZM23.9385 68.9761L21.2287 67.0391L20.6497 69.4524L23.9385 68.9761ZM19.0504 85.2258L19.6613 83.5981L16.3443 83.279L19.0504 85.2258ZM24.4171 45.0806L24.6352 42.0036L21.7076 43.1591L24.4171 45.0806ZM19.6613 83.5981L20.2737 81.8552L16.9547 81.6522L19.6613 83.5981ZM24.4779 66.4878L21.7676 64.5523L21.2287 67.0391L24.4779 66.4878ZM20.2737 81.8552L20.8877 79.9971L17.5667 79.9104L20.2737 81.8552ZM20.8877 79.9971L21.5034 78.0239L18.1803 78.0535L20.8877 79.9971ZM24.9771 63.9258L22.2664 61.9918L21.7676 64.5523L24.9771 63.9258ZM24.6352 42.0036L24.8131 38.8528L21.9253 40.084L24.6352 42.0036ZM21.5034 78.0239L22.1206 75.9355L18.7954 76.0815L21.5034 78.0239ZM69.4155 91.8871L69.4279 42.4626L66.6782 89.9366L69.4155 91.8871ZM25.4363 61.29L22.7251 59.3576L22.2664 61.9918L25.4363 61.29ZM22.1206 75.9355L22.7394 73.7319L19.4122 73.9943L22.1206 75.9355ZM6.39405 93.4287L15.4185 92.5756L3.69531 91.4762L6.39405 93.4287ZM22.7394 73.7319L23.359 71.3908L20.0306 71.7921L22.7394 73.7319ZM25.5213 21.4721L22.8097 19.5646L22.1029 36.935L25.5213 21.4721ZM25.8553 58.5805L23.1437 56.6498L22.7251 59.3576L25.8553 58.5805ZM23.359 71.3908L23.9385 68.9761L20.6497 69.4524L23.359 71.3908ZM26.2341 55.7973L23.5222 53.8682L23.1437 56.6498L26.2341 55.7973ZM23.9385 68.9761L24.4779 66.4878L21.2287 67.0391L23.9385 68.9761ZM24.8131 38.8528L25.5213 21.4721L22.1029 36.935L24.8131 38.8528ZM24.4779 66.4878L24.9771 63.9258L21.7676 64.5523L24.4779 66.4878ZM26.5729 52.9402L23.8606 51.0128L23.5222 53.8682L26.5729 52.9402ZM69.4279 42.4626L66.6875 40.5411L66.6782 89.9366L69.4279 42.4626ZM42.0172 94.4808L69.4155 91.8871L39.295 92.5269L42.0172 94.4808ZM24.9771 63.9258L25.4363 61.29L22.2664 61.9918L24.9771 63.9258ZM26.8715 50.0093L24.1589 48.0836L23.8606 51.0128L26.8715 50.0093ZM9.13489 128.716L9.09621 95.3837L6.43481 126.741L9.13489 128.716ZM25.4363 61.29L25.8553 58.5805L22.7251 59.3576L25.4363 61.29ZM18.7274 93.5916L16.0199 91.6383L15.4185 92.5756L18.7274 93.5916ZM19.3308 92.5386L16.6229 90.5859L16.0199 91.6383L19.3308 92.5386ZM19.9357 91.3704L17.2274 89.4185L16.6229 90.5859L19.9357 91.3704ZM9.09621 95.3837L6.39405 93.4287L6.43481 126.741L9.09621 95.3837ZM20.5422 90.0871L17.8335 88.136L17.2274 89.4185L20.5422 90.0871ZM27.1301 47.0045L24.4171 45.0806L24.1589 48.0836L27.1301 47.0045ZM21.1503 88.6887L18.4412 86.7385L17.8335 88.136L21.1503 88.6887ZM25.8553 58.5805L26.2341 55.7973L23.1437 56.6498L25.8553 58.5805ZM21.76 87.1751L19.0504 85.2258L18.4412 86.7385L21.76 87.1751ZM72.1562 93.8401L69.4155 91.8871L42.0172 94.4808L72.1562 93.8401Z" fill="#323232"/>
<path d="M84.7539 111.155L91.366 92.0202L91.418 24.0293L84.7539 111.155Z" fill="#323232"/>
<path d="M22.3718 85.5467L19.6618 83.5984L19.0509 85.2261L22.3718 85.5467ZM85.9107 20.2106L83.162 18.3047L28.2368 23.3823L85.9107 20.2106ZM22.9846 83.8027L20.2742 81.8555L19.6618 83.5984L22.9846 83.8027ZM27.3489 43.926L24.6356 42.004L24.4176 45.0809L27.3489 43.926ZM18.1261 94.5298L15.419 92.576L6.39453 93.429L18.1261 94.5298ZM26.2346 55.7976L26.5734 52.9405L23.5227 53.8685L26.2346 55.7976ZM23.5991 81.9436L20.8882 79.9975L20.2742 81.8555L23.5991 81.9436ZM24.2152 79.9692L21.5038 78.0243L20.8882 79.9975L24.2152 79.9692ZM27.5271 40.7733L24.8136 38.8531L24.6356 42.004L27.5271 40.7733ZM26.5734 52.9405L26.872 50.0096L23.8611 51.0131L26.5734 52.9405ZM24.8329 77.8795L22.1211 75.9359L21.5038 78.0243L24.8329 77.8795ZM25.4522 75.6746L22.7399 73.7322L22.1211 75.9359L25.4522 75.6746Z" fill="#323232"/>
<path d="M72.1555 93.8403L44.7422 96.4373L84.7533 111.155L72.1555 93.8403Z" fill="#323232"/>
<path d="M28.2358 23.3823L83.161 18.3047L25.5208 21.4724L28.2358 23.3823ZM18.1251 94.5298L18.7269 93.5919L15.418 92.576L18.1251 94.5298ZM18.7269 93.5919L19.3303 92.5389L16.0194 91.6386L18.7269 93.5919ZM26.871 50.0096L27.1295 47.0048L24.1584 48.0839L26.871 50.0096ZM19.3303 92.5389L19.9352 91.3707L16.6223 90.5862L19.3303 92.5389ZM26.0713 73.3321L23.3585 71.3911L22.7389 73.7322L26.0713 73.3321ZM19.9352 91.3707L20.5417 90.0874L17.2269 89.4188L19.9352 91.3707ZM20.5417 90.0874L21.1498 88.689L17.833 88.1363L20.5417 90.0874ZM21.1498 88.689L21.7595 87.1754L18.4407 86.7388L21.1498 88.689Z" fill="#323232"/>
<path d="M72.1562 93.8401L84.754 111.155L91.4181 24.0293L72.1562 93.8401Z" fill="#323232"/>
<path d="M26.6522 70.9157L23.939 68.9762L23.3595 71.3909L26.6522 70.9157ZM21.7605 87.1752L22.3718 85.5465L19.0509 85.2259L21.7605 87.1752ZM27.1305 47.0046L27.3489 43.9258L24.4176 45.0807L27.1305 47.0046ZM22.3718 85.5465L22.9846 83.8025L19.6618 83.5981L22.3718 85.5465ZM27.1921 68.4258L24.4784 66.4879L23.939 68.9762L27.1921 68.4258ZM22.9846 83.8025L23.5991 81.9434L20.2742 81.8553L22.9846 83.8025ZM23.5991 81.9434L24.2152 79.969L20.8882 79.9972L23.5991 81.9434ZM27.6917 65.8623L24.9776 63.9258L24.4784 66.4879L27.6917 65.8623ZM27.3489 43.9258L27.5271 40.7731L24.6356 42.0037L27.3489 43.9258ZM24.2152 79.969L24.8329 77.8793L21.5038 78.024L24.2152 79.969ZM72.1567 93.8402L72.1722 44.3866L69.416 91.8872L72.1567 93.8402ZM28.1513 63.2249L25.4367 61.2901L24.9776 63.9258L28.1513 63.2249ZM24.8329 77.8793L25.4522 75.6744L22.1211 75.9356L24.8329 77.8793ZM9.09669 95.3838L18.1261 94.5296L6.39453 93.4288L9.09669 95.3838ZM25.4522 75.6744L26.0723 73.3318L22.7399 73.732L25.4522 75.6744ZM28.2368 23.3821L25.5218 21.4722L24.8136 38.8529L28.2368 23.3821ZM28.5707 60.5139L25.8557 58.5806L25.4367 61.2901L28.5707 60.5139ZM26.0723 73.3318L26.6522 70.9157L23.3595 71.3909L26.0723 73.3318ZM28.95 57.7289L26.2346 55.7974L25.8557 58.5806L28.95 57.7289ZM26.6522 70.9157L27.1921 68.4258L23.939 68.9762L26.6522 70.9157ZM27.5271 40.7731L28.2368 23.3821L24.8136 38.8529L27.5271 40.7731ZM27.1921 68.4258L27.6917 65.8623L24.4784 66.4879L27.1921 68.4258ZM29.2891 54.8702L26.5734 52.9403L26.2346 55.7974L29.2891 54.8702ZM72.1722 44.3866L69.4284 42.4626L69.416 91.8872L72.1722 44.3866Z" fill="#323232"/>
<path d="M61.2164 36.7057L58.4863 34.7915M69.4272 42.4629L72.1711 44.3869L69.4272 42.4629ZM66.6868 40.5414L69.4272 42.4629L66.6868 40.5414ZM63.9498 38.6224L66.6868 40.5414L63.9498 38.6224ZM61.2164 36.7057L63.9498 38.6224L61.2164 36.7057ZM58.4863 34.7915L58.4866 84.1001L58.4863 34.7915Z" stroke="#707070" stroke-linecap="round"/>
<path d="M44.7432 96.4373L72.1565 93.8403L42.0176 94.481L44.7432 96.4373Z" fill="#323232"/>
<path d="M61.2135 86.0432L58.4866 84.1001M42.0166 94.4811L44.7423 96.4374L42.0166 94.4811ZM69.4149 91.8875L72.1556 93.8405L69.4149 91.8875ZM39.2944 92.5273L42.0166 94.4811L39.2944 92.5273ZM66.6776 89.9369L69.4149 91.8875L66.6776 89.9369ZM36.5757 90.576L39.2944 92.5273L36.5757 90.576ZM63.9438 87.9889L66.6776 89.9369L63.9438 87.9889ZM33.8603 88.6271L36.5757 90.576L33.8603 88.6271ZM61.2135 86.0432L63.9438 87.9889L61.2135 86.0432ZM33.8603 88.6271L31.1484 86.6807L33.8603 88.6271ZM58.4866 84.1001L31.1484 86.6807L58.4866 84.1001Z" stroke="#707070" stroke-linecap="round"/>
<path d="M27.6908 65.8626L28.1503 63.2253L24.9766 63.9262L27.6908 65.8626ZM29.5871 51.9378L26.871 50.0097L26.5724 52.9406L29.5871 51.9378ZM11.8379 130.693L11.8013 97.3415L9.13438 128.716L11.8379 130.693ZM28.1503 63.2253L28.5697 60.5142L25.4357 61.2904L28.1503 63.2253ZM21.4379 95.5478L18.7269 93.592L18.1251 94.5299L21.4379 95.5478ZM22.0416 94.4941L19.3303 92.539L18.7269 93.592L22.0416 94.4941ZM22.647 93.3252L19.9352 91.3708L19.3303 92.539L22.647 93.3252ZM11.8013 97.3415L9.0957 95.3841L9.13438 128.716L11.8013 97.3415ZM23.2539 92.0411L20.5417 90.0876L19.9352 91.3708L23.2539 92.0411ZM29.8459 48.9312L27.1295 47.0049L26.871 50.0097L29.8459 48.9312ZM23.8624 90.6419L21.1498 88.6891L20.5417 90.0876L23.8624 90.6419ZM28.5697 60.5142L28.949 57.7293L25.8548 58.581L28.5697 60.5142ZM24.4725 89.1273L21.7595 87.1756L21.1498 88.6891L24.4725 89.1273ZM25.0842 87.4976L22.3708 85.5468L21.7595 87.1756L25.0842 87.4976Z" fill="#323232"/>
<path d="M44.7435 96.437L23.5508 98.4447L84.7546 111.155L44.7435 96.437Z" fill="#323232"/>
<path d="M88.6619 22.1188L85.9097 20.2104L30.9544 25.2945L88.6619 22.1188ZM25.6975 85.7523L22.9837 83.8026L22.3708 85.5466L25.6975 85.7523ZM30.0646 45.8504L27.3479 43.9259L27.1295 47.0046L30.0646 45.8504ZM20.8357 96.486L18.1251 94.5297L9.0957 95.3838L20.8357 96.486ZM28.949 57.729L29.2881 54.8702L26.2336 55.7975L28.949 57.729ZM26.3125 83.892L23.5981 81.9434L22.9837 83.8026L26.3125 83.892ZM26.929 81.9164L24.2142 79.969L23.5981 81.9434L26.929 81.9164Z" fill="#323232"/>
<path d="M14.5117 99.3013L32.5968 116.126L84.7549 111.155L14.5117 99.3013Z" fill="#323232"/>
<path d="M30.243 42.6958L27.526 40.7731L27.3478 43.9259L30.243 42.6958ZM29.288 54.8702L29.587 51.9376L26.5723 52.9404L29.288 54.8702ZM27.5471 79.8255L24.8318 77.8794L24.2141 79.969L27.5471 79.8255ZM28.1669 77.6192L25.4511 75.6744L24.8318 77.8794L28.1669 77.6192ZM30.9542 25.2945L85.9096 20.2104L28.2358 23.3822L30.9542 25.2945ZM20.8356 96.486L21.4377 95.5475L18.125 94.5297L20.8356 96.486ZM21.4377 95.5475L22.0415 94.4938L18.7268 93.5918L21.4377 95.5475ZM29.587 51.9376L29.8458 48.931L26.8709 50.0094L29.587 51.9376ZM22.0415 94.4938L22.6468 93.325L19.3302 92.5387L22.0415 94.4938ZM28.7874 75.2753L26.0712 73.3319L25.4511 75.6744L28.7874 75.2753ZM22.6468 93.325L23.2538 92.0409L19.9351 91.3706L22.6468 93.325ZM23.2538 92.0409L23.8623 90.6416L20.5416 90.0873L23.2538 92.0409ZM23.8623 90.6416L24.4724 89.1271L21.1497 88.6889L23.8623 90.6416ZM29.3679 72.8577L26.6511 70.9158L26.0712 73.3319L29.3679 72.8577ZM24.4724 89.1271L25.0841 87.4973L21.7594 87.1753L24.4724 89.1271ZM29.8458 48.931L30.0645 45.8504L27.1294 47.0046L29.8458 48.931Z" fill="#323232"/>
<path d="M72.1718 44.3865L72.1562 93.8401L91.4181 24.0293L72.1718 44.3865Z" fill="#323232"/>
<path d="M25.0845 87.4974L25.6979 85.7524L22.3711 85.5466L25.0845 87.4974ZM29.9085 70.3664L27.1914 68.4259L26.6516 70.9158L29.9085 70.3664ZM25.6979 85.7524L26.3128 83.8921L22.984 83.8026L25.6979 85.7524ZM26.3128 83.8921L26.9293 81.9165L23.5984 81.9435L26.3128 83.8921ZM30.4087 67.8012L27.6911 65.8624L27.1914 68.4259L30.4087 67.8012ZM30.0649 45.8504L30.2434 42.6958L27.3482 43.9259L30.0649 45.8504ZM26.9293 81.9165L27.5475 79.8255L24.2145 79.9691L26.9293 81.9165Z" fill="#323232"/>
<path d="M23.5511 98.4448L14.5117 99.3012L84.7549 111.155L23.5511 98.4448Z" fill="#323232"/>
<path d="M30.8683 65.1624L28.1503 63.2251L27.6908 65.8624L30.8683 65.1624ZM27.5472 79.8256L28.167 77.6193L24.8319 77.8794L27.5472 79.8256ZM11.8013 97.3414L20.8357 96.4861L9.0957 95.3839L11.8013 97.3414Z" fill="#323232"/>
<path d="M45.5215 95.1277L45.9232 94.3172L46.3332 93.4028L45.5215 95.1277Z" fill="#323232"/>
<path d="M28.1669 77.6193L28.7875 75.2754L25.4512 75.6745L28.1669 77.6193Z" fill="#323232"/>
<path d="M45.5215 95.1276L46.3332 93.4028L47.1783 91.2627L45.5215 95.1276Z" fill="#323232"/>
<path d="M30.9556 25.2947L28.2371 23.3823L27.5273 40.7733L30.9556 25.2947ZM31.2893 62.4498L28.5709 60.5141L28.1515 63.2252L31.2893 62.4498Z" fill="#323232"/>
<path d="M46.334 93.4026L46.7524 92.3844L47.1791 91.2625L46.334 93.4026ZM45.1289 95.8341L45.5223 95.1274L48.9694 85.7363L45.1289 95.8341Z" fill="#323232"/>
<path d="M28.7885 75.2755L29.3689 72.8579L26.0723 73.3322L28.7885 75.2755Z" fill="#323232"/>
<path d="M45.5215 95.1274L47.1783 91.2625L48.9686 85.7363L45.5215 95.1274ZM47.1783 91.2625L47.6134 90.0367L48.0568 88.7071L47.1783 91.2625ZM47.1783 91.2625L48.0568 88.7071L48.9686 85.7363L47.1783 91.2625Z" fill="#323232"/>
<path d="M31.6689 59.663L28.9501 57.729L28.5708 60.5139L31.6689 59.663ZM29.369 72.8577L29.9093 70.3663L26.6523 70.9158L29.369 72.8577Z" fill="#323232"/>
<path d="M48.0566 88.7071L48.5084 87.2737L48.9685 85.7363L48.0566 88.7071Z" fill="#323232"/>
<path d="M30.2435 42.6957L30.9547 25.2944L27.5265 40.7731L30.2435 42.6957ZM29.9086 70.3663L30.4087 67.8011L27.1914 68.4258L29.9086 70.3663ZM32.0076 56.8025L29.2884 54.8702L28.9493 57.7289L32.0076 56.8025Z" fill="#323232"/>
<path d="M48.9693 85.7367L49.4378 84.0955L49.9146 82.3503L48.9693 85.7367ZM14.5117 99.3014L32.6058 130.943L32.5968 116.126L14.5117 99.3014ZM48.9693 85.7367L49.9146 82.3503L50.8565 78.6479L48.9693 85.7367Z" fill="#323232"/>
<path d="M30.409 67.8015L30.869 65.1626L27.6914 65.8626L30.409 67.8015Z" fill="#323232"/>
<path d="M49.9141 82.3503L50.4001 80.4943L50.856 78.6479L49.9141 82.3503Z" fill="#323232"/>
<path d="M32.3066 53.8681L29.5871 51.9375L29.2881 54.8702L32.3066 53.8681ZM14.5448 132.672L14.5103 99.3011L11.8379 130.693L14.5448 132.672Z" fill="#323232"/>
<path d="M23.5511 98.4451L44.7438 96.4374L45.1289 95.8345L23.5511 98.4451ZM48.9693 85.7367L50.8565 78.648L52.3797 71.3584L48.9693 85.7367ZM14.5117 99.3014L14.5462 132.673L32.6058 130.943L14.5117 99.3014Z" fill="#323232"/>
<path d="M30.8698 65.1624L31.2896 62.4497L28.1518 63.2251L30.8698 65.1624ZM24.1537 97.5059L21.4393 95.5476L20.8371 96.4861L24.1537 97.5059ZM24.7578 96.4515L22.0431 94.4939L21.4393 95.5476L24.7578 96.4515ZM25.3636 95.2819L22.6484 93.3251L22.0431 94.4939L25.3636 95.2819ZM14.5118 99.3013L11.8027 97.3414L11.8393 130.693L14.5118 99.3013Z" fill="#323232"/>
<path d="M1 89.5264L1.0449 122.8M11.8384 130.693L14.5453 132.672L11.8384 130.693ZM9.1349 128.716L11.8384 130.693L9.1349 128.716ZM6.43483 126.741L9.1349 128.716L6.43483 126.741ZM3.73816 124.769L6.43483 126.741L3.73816 124.769ZM3.73816 124.769L1.0449 122.8L3.73816 124.769Z" stroke="#707070" stroke-linecap="round"/>
<path d="M50.8555 78.6479L51.2814 76.8111L51.6772 74.9839L50.8555 78.6479Z" fill="#323232"/>
<path d="M25.971 93.9971L23.2554 92.0411L22.6484 93.3252L25.971 93.9971ZM32.5673 50.8599L29.8474 48.9312L29.5886 51.9378L32.5673 50.8599ZM26.5799 92.597L23.8639 90.6418L23.2554 92.0411L26.5799 92.597ZM31.2896 62.4498L31.6693 59.6632L28.5712 60.5141L31.2896 62.4498ZM27.1904 91.0816L24.474 89.1273L23.8639 90.6418L27.1904 91.0816Z" fill="#323232"/>
<path d="M50.8555 78.648L51.6772 74.984L52.3786 71.3584L50.8555 78.648Z" fill="#323232"/>
<path d="M27.8013 89.4505L25.0844 87.4972L24.4727 89.127L27.8013 89.4505ZM91.4177 24.0294L88.662 22.1187L33.6764 27.2092L91.4177 24.0294Z" fill="#323232"/>
<path d="M51.6777 74.984L52.0435 73.1664L52.3792 71.3584L51.6777 74.984Z" fill="#323232"/>
<path d="M28.4146 87.7048L25.6973 85.7526L25.084 87.4976L28.4146 87.7048ZM32.7845 47.7775L30.0644 45.8506L29.8457 48.9312L32.7845 47.7775Z" fill="#323232"/>
<path d="M45.1289 95.8343L48.9694 85.7365L55.0852 45.9795L45.1289 95.8343Z" fill="#323232"/>
<path d="M23.5511 98.4451L20.8371 96.4862L11.8027 97.3415L23.5511 98.4451ZM31.6692 59.6632L32.0087 56.8027L28.9504 57.7292L31.6692 59.6632ZM29.0317 85.8433L26.3139 83.8922L25.699 85.7525L29.0317 85.8433ZM29.6487 83.8665L26.9305 81.9166L26.3139 83.8922L29.6487 83.8665Z" fill="#323232"/>
<path d="M52.3789 71.3583L52.6845 69.5598L52.9601 67.771L52.3789 71.3583Z" fill="#323232"/>
<path d="M32.9643 44.6209L30.2438 42.6958L30.0653 45.8504L32.9643 44.6209ZM32.0079 56.8026L32.3073 53.8681L29.2888 54.8703L32.0079 56.8026ZM30.2666 81.7741L27.5479 79.8255L26.9297 81.9165L30.2666 81.7741Z" fill="#323232"/>
<path d="M52.3789 71.3584L52.9601 67.7711L53.421 64.2222L52.3789 71.3584Z" fill="#323232"/>
<path d="M30.8859 79.5664L28.1667 77.6191L27.5469 79.8254L30.8859 79.5664Z" fill="#323232"/>
<path d="M48.969 85.7363L52.3794 71.358L55.0848 45.9793L48.969 85.7363ZM52.9606 67.7707L53.2061 65.9914L53.4215 64.2217L52.9606 67.7707ZM24.1534 97.5056L23.5508 98.4447L45.1286 95.8341L24.1534 97.5056ZM55.0848 45.9793L72.1724 44.3865L91.4187 24.0293L55.0848 45.9793Z" fill="#323232"/>
<path d="M33.6766 27.2092L88.6622 22.1187L30.9546 25.2944L33.6766 27.2092ZM23.5499 98.4448L24.1525 97.5057L20.8359 96.4859L23.5499 98.4448Z" fill="#323232"/>
<path d="M10.6143 87.7393L10.0137 88.6754" stroke="#707070" stroke-linecap="round"/>
<path d="M24.1519 97.5056L24.756 96.4513L21.4375 95.5474L24.1519 97.5056Z" fill="#323232"/>
<path d="M11.2174 86.6885L10.6152 87.7395" stroke="#707070" stroke-linecap="round"/>
<path d="M32.308 53.8683L32.5671 50.8599L29.5885 51.9377L32.308 53.8683ZM24.7577 96.4516L25.3635 95.282L22.043 94.494L24.7577 96.4516Z" fill="#323232"/>
<path d="M11.8205 85.5225L11.2168 86.6884" stroke="#707070" stroke-linecap="round"/>
<path d="M31.5087 77.2212L28.789 75.2754L28.1685 77.6193L31.5087 77.2212ZM25.3636 95.2819L25.971 93.997L22.6484 93.3251L25.3636 95.2819Z" fill="#323232"/>
<path d="M12.4256 84.2412L11.8203 85.5221" stroke="#707070" stroke-linecap="round"/>
<path d="M25.9695 93.9971L26.5784 92.5969L23.2539 92.041L25.9695 93.9971Z" fill="#323232"/>
<path d="M13.0326 82.8457L12.4258 84.2415" stroke="#707070" stroke-linecap="round"/>
<path d="M26.5793 92.5968L27.1898 91.0814L23.8633 90.6416L26.5793 92.5968Z" fill="#323232"/>
<path d="M13.6416 81.335L13.0332 82.8458" stroke="#707070" stroke-linecap="round"/>
<path d="M32.0883 74.8023L29.3681 72.8579L28.7877 75.2755L32.0883 74.8023ZM27.1891 91.0816L27.8013 89.4509L24.4727 89.1273L27.1891 91.0816Z" fill="#323232"/>
<path d="M14.2506 79.709L13.6406 81.3348" stroke="#707070" stroke-linecap="round"/>
<path d="M24.1523 97.5058L45.1275 95.8343L55.0838 45.9795L24.1523 97.5058ZM53.4205 64.222L53.6058 62.4619L53.7611 60.7113L53.4205 64.222Z" fill="#323232"/>
<path d="M32.5655 50.8598L32.7845 47.7773L29.8457 48.931L32.5655 50.8598ZM27.8009 89.4507L28.4146 87.7046L25.084 87.4974L27.8009 89.4507Z" fill="#323232"/>
<path d="M14.8635 77.9683L14.252 79.709" stroke="#707070" stroke-linecap="round"/>
<path d="M32.6286 72.3091L29.908 70.3662L29.3677 72.8576L32.6286 72.3091ZM28.4146 87.7044L29.03 85.843L25.6973 85.7522L28.4146 87.7044Z" fill="#323232"/>
<path d="M15.4764 76.1123L14.8633 77.9681" stroke="#707070" stroke-linecap="round"/>
<path d="M52.3789 71.3582L53.421 64.222L55.0844 45.9795L52.3789 71.3582Z" fill="#323232"/>
<path d="M29.0303 85.8434L29.6473 83.8666L26.3125 83.8923L29.0303 85.8434ZM33.1294 69.7428L30.4084 67.8015L29.9083 70.3666L33.1294 69.7428ZM32.7848 47.7776L32.9636 44.6211L30.0646 45.8506L32.7848 47.7776ZM29.6473 83.8666L30.2659 81.7744L26.929 81.9167L29.6473 83.8666ZM33.5898 67.1023L30.8683 65.1626L30.4084 67.8015L33.5898 67.1023Z" fill="#323232"/>
<path d="M53.4219 64.222L53.7625 60.7113L55.0852 45.9795L53.4219 64.222Z" fill="#323232"/>
<path d="M30.2673 81.774L30.8876 79.5664L27.5486 79.8254L30.2673 81.774ZM14.5118 99.3011L23.5511 98.4448L11.8027 97.3412L14.5118 99.3011Z" fill="#323232"/>
<path d="M12.7148 90.6242L10.0145 88.6753M11.8018 97.3411L14.5108 99.301L11.8018 97.3411ZM20.8362 96.4859L23.5502 98.4447L20.8362 96.4859ZM9.09623 95.3837L11.8018 97.3411L9.09623 95.3837ZM18.1256 94.5295L20.8362 96.4859L18.1256 94.5295ZM6.39407 93.4287L9.09623 95.3837L6.39407 93.4287ZM15.4185 92.5756L18.1256 94.5295L15.4185 92.5756ZM3.69533 91.4762L6.39407 93.4287L3.69533 91.4762ZM12.7148 90.6242L15.4185 92.5756L12.7148 90.6242ZM3.69533 91.4762L1 89.5262L3.69533 91.4762ZM10.0145 88.6753L1 89.5262L10.0145 88.6753Z" stroke="#707070" stroke-linecap="round"/>
<path d="M30.8872 79.5665L31.5082 77.2212L28.168 77.6193L30.8872 79.5665Z" fill="#323232"/>
<path d="M17.3255 69.8549L17.9441 67.5166M16.0913 74.1417L15.4766 76.1125L16.0913 74.1417ZM16.7076 72.0558L16.0913 74.1417L16.7076 72.0558ZM17.3255 69.8549L16.7076 72.0558L17.3255 69.8549Z" stroke="#707070" stroke-linecap="round"/>
<path d="M33.6759 27.2092L30.9539 25.2944L30.2427 42.6957L33.6759 27.2092ZM34.0095 64.3877L31.2877 62.4495L30.8679 65.1623L34.0095 64.3877ZM31.5068 77.2211L32.0877 74.802L28.7871 75.2752L31.5068 77.2211Z" fill="#323232"/>
<path d="M17.9434 67.5168L18.5219 65.105" stroke="#707070" stroke-linecap="round"/>
<path d="M34.391 61.5995L31.6687 59.6631L31.2891 62.4497L34.391 61.5995Z" fill="#323232"/>
<path d="M24.7565 96.4514L24.1523 97.5058L55.0838 45.9795L24.7565 96.4514ZM25.3622 95.2818L24.7565 96.4514L55.0838 45.9795L25.3622 95.2818Z" fill="#323232"/>
<path d="M32.0893 74.8019L32.63 72.3091L29.3691 72.8576L32.0893 74.8019Z" fill="#323232"/>
<path d="M18.5215 65.105L19.0599 62.6196" stroke="#707070" stroke-linecap="round"/>
<path d="M25.9706 93.997L25.3633 95.2818L55.0849 45.9795L25.9706 93.997ZM26.5796 92.5968L25.9706 93.997L55.0849 45.9795L26.5796 92.5968ZM27.1901 91.0814L26.5796 92.5968L55.0849 45.9795L27.1901 91.0814Z" fill="#323232"/>
<path d="M32.9646 44.621L33.6773 27.2095L30.2441 42.696L32.9646 44.621Z" fill="#323232"/>
<path d="M27.8016 89.4504L27.1895 91.0812L55.0842 45.9793L27.8016 89.4504ZM55.0842 45.9793L91.4181 24.0293L35.0301 55.8009L55.0842 45.9793Z" fill="#323232"/>
<path d="M32.6288 72.3093L33.1294 69.7427L29.9082 70.3664L32.6288 72.3093Z" fill="#323232"/>
<path d="M19.0605 62.6195L19.5589 60.0605" stroke="#707070" stroke-linecap="round"/>
<path d="M28.4145 87.7046L27.8008 89.4506L55.0834 45.9795L28.4145 87.7046Z" fill="#323232"/>
<path d="M34.7301 58.7375L32.0075 56.8027L31.668 59.6632L34.7301 58.7375Z" fill="#323232"/>
<path d="M29.0314 85.8431L28.416 87.7046L55.0849 45.9795L29.0314 85.8431ZM29.6484 83.8663L29.0314 85.8431L55.0849 45.9795L29.6484 83.8663Z" fill="#323232"/>
<path d="M33.1292 69.7425L33.5896 67.1021L30.4082 67.8012L33.1292 69.7425Z" fill="#323232"/>
<path d="M19.5586 60.0603L20.0169 57.4277" stroke="#707070" stroke-linecap="round"/>
<path d="M30.2671 81.7741L29.6484 83.8663L55.0849 45.9795L30.2671 81.7741Z" fill="#323232"/>
<path d="M35.0301 55.8012L32.3071 53.8682L32.0078 56.8026L35.0301 55.8012Z" fill="#323232"/>
<path d="M30.8859 79.5665L30.2656 81.7741L55.0835 45.9795L30.8859 79.5665Z" fill="#323232"/>
<path d="M33.5906 67.102L34.0108 64.3877L30.8691 65.1623L33.5906 67.102Z" fill="#323232"/>
<path d="M20.0176 57.4279L20.4358 54.7217" stroke="#707070" stroke-linecap="round"/>
<path d="M55.0843 45.9795L31.5078 77.2211L30.8867 79.5665L55.0843 45.9795ZM55.0843 45.9795L32.0887 74.8021L31.5078 77.2211L55.0843 45.9795Z" fill="#323232"/>
<path d="M35.2891 52.7911L32.5658 50.8599L32.3066 53.8683L35.2891 52.7911Z" fill="#323232"/>
<path d="M55.0835 45.9795L32.6286 72.3092L32.0879 74.8021L55.0835 45.9795Z" fill="#323232"/>
<path d="M34.0109 64.3879L34.391 61.5996L31.2891 62.4497L34.0109 64.3879Z" fill="#323232"/>
<path d="M20.4355 54.7218L20.8137 51.9419" stroke="#707070" stroke-linecap="round"/>
<path d="M91.4176 24.0293L35.2891 52.7907L35.0296 55.8009L91.4176 24.0293ZM55.0838 45.9793L33.1295 69.7423L32.6289 72.309L55.0838 45.9793Z" fill="#323232"/>
<path d="M35.5086 49.7067L32.785 47.7773L32.566 50.8598L35.5086 49.7067ZM34.3902 61.5995L34.7301 58.7373L31.668 59.663L34.3902 61.5995Z" fill="#323232"/>
<path d="M91.419 24.0293L35.5098 49.7065L35.2905 52.7907L91.419 24.0293ZM55.0852 45.9793L33.5912 67.1019L33.1309 69.7423L55.0852 45.9793ZM55.0852 45.9793L34.0115 64.3875L33.5912 67.1019L55.0852 45.9793ZM91.419 24.0293L35.689 46.5481L35.5098 49.7065L91.419 24.0293Z" fill="#323232"/>
<path d="M35.688 46.5486L32.9641 44.6211L32.7853 47.7776L35.688 46.5486ZM34.7304 58.7375L35.0301 55.8014L32.0078 56.8028L34.7304 58.7375Z" fill="#323232"/>
<path d="M55.0835 45.9795L34.3898 61.5995L34.0098 64.3877L55.0835 45.9795ZM55.0835 45.9795L34.7297 58.7373L34.3898 61.5995L55.0835 45.9795Z" fill="#323232"/>
<path d="M36.4031 29.1263L91.419 24.0293L33.6777 27.2091L36.4031 29.1263Z" fill="#323232"/>
<path d="M80.4172 16.4011L77.6755 14.5M88.6632 22.1188L91.4189 24.0295L88.6632 22.1188ZM85.9111 20.2105L88.6632 22.1188L85.9111 20.2105ZM83.1624 18.3046L85.9111 20.2105L83.1624 18.3046ZM80.4172 16.4011L83.1624 18.3046L80.4172 16.4011ZM77.6755 14.5L22.8105 19.5648L77.6755 14.5Z" stroke="#707070" stroke-linecap="round"/>
<path d="M35.0296 55.8012L35.2891 52.791L32.3066 53.8682L35.0296 55.8012Z" fill="#323232"/>
<path d="M55.0843 45.9795L35.0302 55.8011L34.7305 58.7373L55.0843 45.9795Z" fill="#323232"/>
<path d="M35.2897 52.7908L35.509 49.7065L32.5664 50.8596L35.2897 52.7908Z" fill="#323232"/>
<path d="M91.4176 24.0293L36.4017 29.1263L35.6875 46.5481L91.4176 24.0293Z" fill="#323232"/>
<path d="M30.8876 79.5663L31.5086 77.2209M14.5462 132.672L14.5117 99.301L14.5462 132.672ZM32.6058 130.943L14.5462 132.672L32.6058 130.943ZM53.6071 62.4616L53.4218 64.2217L53.6071 62.4616ZM53.7624 60.7111L53.6071 62.4616L53.7624 60.7111ZM53.2064 65.9914L52.9609 67.7707L53.2064 65.9914ZM53.2064 65.9914L53.4218 64.2217L53.2064 65.9914ZM52.6853 69.5595L52.3797 71.358L52.6853 69.5595ZM52.6853 69.5595L52.9609 67.7707L52.6853 69.5595ZM52.044 73.166L51.6782 74.9836L52.044 73.166ZM52.044 73.166L52.3797 71.358L52.044 73.166ZM51.2824 76.8108L50.8565 78.6476L51.2824 76.8108ZM51.2824 76.8108L51.6782 74.9836L51.2824 76.8108ZM50.4006 80.4939L49.9146 82.3499L50.4006 80.4939ZM50.4006 80.4939L50.8565 78.6476L50.4006 80.4939ZM49.4378 84.0951L48.9693 85.7363L49.4378 84.0951ZM49.4378 84.0951L49.9146 82.3499L49.4378 84.0951ZM48.5093 87.2736L48.0575 88.7071L48.5093 87.2736ZM48.5093 87.2736L48.9693 85.7363L48.5093 87.2736ZM47.6141 90.0367L47.1791 91.2625L47.6141 90.0367ZM47.6141 90.0367L48.0575 88.7071L47.6141 90.0367ZM46.7524 92.3844L46.334 93.4025L46.7524 92.3844ZM46.7524 92.3844L47.1791 91.2625L46.7524 92.3844ZM45.9239 94.3168L45.5222 95.1273L45.9239 94.3168ZM45.9239 94.3168L46.334 93.4025L45.9239 94.3168ZM36.4031 29.1263L91.419 24.0293L36.4031 29.1263ZM102.762 90.9407L102.728 124.228L102.762 90.9407ZM91.367 92.0202L102.762 90.9407L91.367 92.0202ZM84.7458 125.95L84.7549 111.155L84.7458 125.95ZM84.7458 125.95L102.728 124.228L84.7458 125.95ZM32.5968 116.125L32.6058 130.943L32.5968 116.125ZM55.0851 45.9793L53.7624 60.7111L55.0851 45.9793ZM32.5968 116.125L84.7549 111.155L32.5968 116.125ZM91.367 92.0202L91.419 24.0293L91.367 92.0202ZM23.5511 98.4447L14.5117 99.301L23.5511 98.4447ZM45.1289 95.8341L45.5222 95.1273L45.1289 95.8341ZM44.7438 96.437L45.1289 95.8341L44.7438 96.437ZM72.1571 93.8401L44.7438 96.437L72.1571 93.8401ZM24.1536 97.5056L23.5511 98.4447L24.1536 97.5056ZM72.1727 44.3865L72.1571 93.8401L72.1727 44.3865ZM24.7578 96.4512L24.1536 97.5056L24.7578 96.4512ZM72.1727 44.3865L55.0851 45.9793L72.1727 44.3865ZM25.3635 95.2816L24.7578 96.4512L25.3635 95.2816ZM25.9709 93.9967L25.3635 95.2816L25.9709 93.9967ZM26.5798 92.5966L25.9709 93.9967L26.5798 92.5966ZM27.1904 91.0812L26.5798 92.5966L27.1904 91.0812ZM34.0114 64.3875L34.3914 61.5993L34.0114 64.3875ZM27.8025 89.4504L27.1904 91.0812L27.8025 89.4504ZM33.5912 67.1019L34.0114 64.3875L33.5912 67.1019ZM28.4163 87.7043L27.8025 89.4504L28.4163 87.7043ZM33.1308 69.7423L33.5912 67.1019L33.1308 69.7423ZM29.0317 85.8429L28.4163 87.7043L29.0317 85.8429ZM32.6302 72.309L33.1308 69.7423L32.6302 72.309ZM29.6487 83.8661L29.0317 85.8429L29.6487 83.8661ZM32.0895 74.8018L32.6302 72.309L32.0895 74.8018ZM30.2673 81.7739L29.6487 83.8661L30.2673 81.7739ZM31.5086 77.2209L32.0895 74.8018L31.5086 77.2209ZM30.8876 79.5663L30.2673 81.7739L30.8876 79.5663Z" stroke="#707070" stroke-linecap="round"/>
<path d="M35.5088 49.7069L35.6879 46.5486L32.7852 47.7775L35.5088 49.7069ZM36.4021 29.1267L33.6767 27.2095L32.964 44.621L36.4021 29.1267ZM35.6879 46.5486L36.4021 29.1267L32.964 44.621L35.6879 46.5486Z" fill="#323232"/>
<path d="M25.522 21.4724L22.8104 19.5649M34.3912 61.5997L34.7311 58.7375L34.3912 61.5997ZM20.8145 51.9419L21.1525 49.0882L20.8145 51.9419ZM34.7311 58.7375L35.0308 55.8013L34.7311 58.7375ZM21.1525 49.0882L21.4504 46.1607L21.1525 49.0882ZM35.0308 55.8013L35.2903 52.7911L35.0308 55.8013ZM21.4504 46.1607L21.7083 43.1595L21.4504 46.1607ZM35.2903 52.7911L35.5096 49.7069L35.2903 52.7911ZM21.7083 43.1595L21.926 40.0844L21.7083 43.1595ZM35.5096 49.7069L35.6887 46.5485L35.5096 49.7069ZM21.926 40.0844L22.1036 36.9354L21.926 40.0844ZM35.6887 46.5485L36.4029 29.1267L35.6887 46.5485ZM33.6775 27.2095L36.4029 29.1267L33.6775 27.2095ZM30.9556 25.2947L33.6775 27.2095L30.9556 25.2947ZM28.2371 23.3824L30.9556 25.2947L28.2371 23.3824ZM25.522 21.4724L28.2371 23.3824L25.522 21.4724ZM22.8104 19.5649L22.1036 36.9354L22.8104 19.5649Z" stroke="#707070" stroke-linecap="round"/>
</svg>
