<svg width="157" height="124" viewBox="0 0 157 124" fill="none" xmlns="http://www.w3.org/2000/svg">
<path d="M104.204 90.9905L106.93 89.0324L106.929 21.2882L104.204 90.9905ZM101.475 92.9511L104.204 90.9905L104.198 23.2066L101.475 92.9511ZM104.198 23.2066L104.204 90.9905L106.929 21.2882L104.198 23.2066ZM98.7421 94.9142L101.475 92.9511L101.465 25.1275L98.7421 94.9142ZM101.465 25.1275L101.475 92.9511L104.198 23.2066L101.465 25.1275ZM152.791 95.6186L155.49 93.6547L155.586 7.27806L152.791 95.6186ZM85.0032 2.90529L152.881 9.1913L87.7452 1L85.0032 2.90529ZM96.0058 96.8798L98.7421 94.9142L98.7274 27.0507L96.0058 96.8798ZM98.7274 27.0507L98.7421 94.9142L101.465 25.1275L98.7274 27.0507ZM150.088 97.5851L152.791 95.6186L152.881 9.1913L150.088 97.5851ZM152.881 9.1913L155.586 7.27806L87.7452 1L152.881 9.1913ZM82.2578 4.813L150.173 11.107L85.0032 2.90529L82.2578 4.813ZM152.881 9.1913L152.791 95.6186L155.586 7.27806L152.881 9.1913ZM93.2661 98.8478L96.0058 96.8798L95.9868 28.9764L93.2661 98.8478ZM95.9868 28.9764L96.0058 96.8798L98.7274 27.0507L95.9868 28.9764Z" fill="#323232"/>
<path d="M74.0684 97.0137L93.2651 98.8475L93.2417 30.9043L74.0684 97.0137Z" fill="#323232"/>
<path d="M147.381 99.554L150.087 97.5851L150.172 11.1069L147.381 99.554ZM150.172 11.1069L152.88 9.19128L85.0021 2.90527L150.172 11.1069ZM79.5078 6.72309L147.461 13.025L82.2567 4.81298L79.5078 6.72309ZM150.172 11.1069L150.087 97.5851L152.88 9.19128L150.172 11.1069Z" fill="#323232"/>
<path d="M74 10.5508L74.0686 97.0142L93.242 30.9048L74 10.5508Z" fill="#323232"/>
<path d="M93.2422 30.9047L93.2656 98.848L95.9863 28.9766L93.2422 30.9047Z" fill="#323232"/>
<path d="M104.204 90.9904L106.93 89.0323M95.9863 28.9763L93.2422 30.9045L95.9863 28.9763ZM96.0053 96.8797L93.2656 98.8477L96.0053 96.8797ZM98.7269 27.0506L95.9863 28.9763L98.7269 27.0506ZM98.7416 94.9141L96.0053 96.8797L98.7416 94.9141ZM101.464 25.1273L98.7269 27.0506L101.464 25.1273ZM101.474 92.951L98.7416 94.9141L101.474 92.951ZM104.198 23.2065L101.464 25.1273L104.198 23.2065ZM104.204 90.9904L101.474 92.951L104.204 90.9904ZM104.198 23.2065L106.928 21.2881L104.198 23.2065ZM106.93 89.0323L106.928 21.2881L106.93 89.0323Z" stroke="#707070" stroke-linecap="round"/>
<path d="M144.672 101.525L147.381 99.554L147.461 13.0251L144.672 101.525ZM147.461 13.0251L150.172 11.107L82.2571 4.81299L147.461 13.0251ZM76.7559 8.63564L144.746 14.9456L79.5082 6.72311L76.7559 8.63564ZM147.461 13.0251L147.381 99.554L150.172 11.107L147.461 13.0251ZM141.959 103.499L144.672 101.525L144.746 14.9456L141.959 103.499ZM144.746 14.9456L147.461 13.0251L79.5082 6.72311L144.746 14.9456Z" fill="#323232"/>
<path d="M74 10.5508L93.242 30.9048L122.728 33.66L74 10.5508Z" fill="#323232"/>
<path d="M74 10.5507L142.027 16.8686L76.7559 8.63574L74 10.5507Z" fill="#323232"/>
<path d="M122.705 101.66L141.959 103.5L142.028 16.8687L122.705 101.66Z" fill="#323232"/>
<path d="M144.746 14.9459L144.672 101.526L147.461 13.0254L144.746 14.9459Z" fill="#323232"/>
<path d="M122.729 33.6599L122.705 101.66L142.028 16.8687L122.729 33.6599Z" fill="#323232"/>
<path d="M142.027 16.8686L144.746 14.9457L76.7559 8.63574L142.027 16.8686Z" fill="#323232"/>
<path d="M87.7445 1L155.585 7.27806M76.7559 8.63565L74 10.5506L76.7559 8.63565ZM79.5082 6.72311L76.7559 8.63565L79.5082 6.72311ZM82.2571 4.813L79.5082 6.72311L82.2571 4.813ZM85.0025 2.90529L82.2571 4.813L85.0025 2.90529ZM85.0025 2.90529L87.7445 1L85.0025 2.90529Z" stroke="#707070" stroke-linecap="round"/>
<path d="M122.728 33.66L142.027 16.8687L74 10.5508L122.728 33.66Z" fill="#323232"/>
<path d="M122.728 33.66L93.242 30.9048M141.959 103.5L122.704 101.66L141.959 103.5ZM93.2654 98.848L74.0686 97.0142L93.2654 98.848ZM93.242 30.9048L93.2654 98.848L93.242 30.9048ZM122.728 33.66L122.704 101.66L122.728 33.66ZM74 10.5508L74.0686 97.0142L74 10.5508ZM74 10.5508L142.027 16.8687L74 10.5508Z" stroke="#707070" stroke-linecap="round"/>
<path d="M142.028 16.8683L141.959 103.499L144.746 14.9453L142.028 16.8683Z" fill="#323232"/>
<path d="M152.79 95.6189L155.49 93.6549M142.028 16.8688L141.959 103.5L142.028 16.8688ZM144.746 14.9459L142.028 16.8688L144.746 14.9459ZM144.672 101.526L141.959 103.5L144.672 101.526ZM147.461 13.0253L144.746 14.9459L147.461 13.0253ZM147.382 99.5543L144.672 101.526L147.382 99.5543ZM150.173 11.1072L147.461 13.0253L150.173 11.1072ZM150.088 97.5854L147.382 99.5543L150.088 97.5854ZM152.881 9.19156L150.173 11.1072L152.881 9.19156ZM152.79 95.6189L150.088 97.5854L152.79 95.6189ZM152.881 9.19156L155.586 7.27832L152.881 9.19156ZM155.49 93.6549L155.586 7.27832L155.49 93.6549Z" stroke="#707070" stroke-linecap="round"/>
<path d="M142 17L74 10.5L73.5 52.5L93.5 101.5V31L122.5 34V101.5L142 103.5V17Z" stroke="#707070"/>
<path d="M70.1581 108.862L63.2146 91.4284L67.4276 106.905L70.1581 108.862ZM63.2146 91.4284L60.4868 89.481L67.4276 106.905L63.2146 91.4284ZM72.892 110.822L65.9458 93.3783L70.1581 108.862L72.892 110.822ZM65.9458 93.3783L63.2146 91.4284L70.1581 108.862L65.9458 93.3783ZM56.0224 73.6255L53.2973 71.6881L34.4672 73.4593L56.0224 73.6255ZM75.6293 112.784L68.6805 95.3306L72.892 110.822L75.6293 112.784ZM68.6805 95.3306L65.9458 93.3783L72.892 110.822L68.6805 95.3306ZM56.0224 73.6255L46.6583 50.0765L53.2973 71.6881L56.0224 73.6255ZM46.6583 50.0765L43.9369 48.1523L53.2973 71.6881L46.6583 50.0765ZM37.1819 75.399L56.0224 73.6255L34.4672 73.4593L37.1819 75.399ZM58.7509 75.5654L56.0224 73.6255L37.1819 75.399L58.7509 75.5654ZM78.3701 114.748L71.4187 97.2854L75.6293 112.784L78.3701 114.748ZM71.4187 97.2854L68.6805 95.3306L75.6293 112.784L71.4187 97.2854ZM58.7509 75.5654L49.3832 52.0032L56.0224 73.6255L58.7509 75.5654ZM49.3832 52.0032L46.6583 50.0765L56.0224 73.6255L49.3832 52.0032ZM39.9001 77.3411L58.7509 75.5654L37.1819 75.399L39.9001 77.3411ZM3.69401 115.193L38.6 25.4992L1 113.228L3.69401 115.193ZM55.7798 23.9083L53.0517 22L35.8814 23.589L55.7798 23.9083ZM38.6 25.4992L35.8814 23.589L1 113.228L38.6 25.4992ZM61.4828 77.5077L58.7509 75.5654L39.9001 77.3411L61.4828 77.5077ZM81.1144 116.715L74.1603 99.2426L78.3701 114.748L81.1144 116.715ZM74.1603 99.2426L71.4187 97.2854L78.3701 114.748L74.1603 99.2426Z" fill="#323232"/>
<path d="M63.2141 91.4283L60.4863 89.481M78.3697 114.748L81.1139 116.715L78.3697 114.748ZM71.4182 97.2853L74.1599 99.2426L71.4182 97.2853ZM75.6289 112.784L78.3697 114.748L75.6289 112.784ZM68.6801 95.3305L71.4182 97.2853L68.6801 95.3305ZM72.8915 110.821L75.6289 112.784L72.8915 110.821ZM65.9454 93.3782L68.6801 95.3305L65.9454 93.3782ZM70.1576 108.862L72.8915 110.821L70.1576 108.862ZM63.2141 91.4283L65.9454 93.3782L63.2141 91.4283ZM70.1576 108.862L67.4272 106.905L70.1576 108.862ZM60.4863 89.481L67.4272 106.905L60.4863 89.481Z" stroke="#707070" stroke-linecap="round"/>
<path d="M38.5994 25.4991L55.7791 23.9082L35.8807 23.5889L38.5994 25.4991ZM61.4821 77.5076L52.1109 53.9321L58.7502 75.5653L61.4821 77.5076ZM52.1109 53.9321L49.3826 52.0031L58.7502 75.5653L52.1109 53.9321ZM42.621 79.2856L61.4821 77.5076L39.8994 77.341L42.621 79.2856ZM6.39079 117.161L41.3215 27.4118L3.69336 115.193L6.39079 117.161ZM58.5107 25.8188L55.7791 23.9082L38.5994 25.4991L58.5107 25.8188ZM41.3215 27.4118L38.5994 25.4991L3.69336 115.193L41.3215 27.4118ZM64.2175 79.4524L61.4821 77.5076L42.621 79.2856L64.2175 79.4524Z" fill="#323232"/>
<path d="M81.1143 116.715L101.62 114.756L66.7266 31.5654L81.1143 116.715Z" fill="#323232"/>
<path d="M41.3213 27.4117L58.5105 25.8187L38.5992 25.499L41.3213 27.4117ZM64.2174 79.4523L54.8426 55.8636L61.482 77.5075L64.2174 79.4523ZM54.8426 55.8636L52.1108 53.932L61.482 77.5075L54.8426 55.8636ZM45.3459 81.2325L64.2174 79.4523L42.6208 79.2855L45.3459 81.2325ZM9.09146 119.131L44.0469 29.3268L6.39062 117.16L9.09146 119.131ZM61.2455 27.7318L58.5105 25.8187L41.3213 27.4117L61.2455 27.7318ZM44.0469 29.3268L41.3213 27.4117L6.39062 117.16L44.0469 29.3268Z" fill="#323232"/>
<path d="M74.1602 99.2426L81.1143 116.715L66.7266 31.5654L74.1602 99.2426Z" fill="#323232"/>
<path d="M66.958 81.3994L64.2192 79.4521L45.3477 81.2324L66.958 81.3994Z" fill="#323232"/>
<path d="M66.9575 81.3994L40.8613 102.405L74.1608 99.2423L66.9575 81.3994Z" fill="#323232"/>
<path d="M44.0478 29.3272L61.2464 27.7322L41.3223 27.4121L44.0478 29.3272ZM66.9572 81.3999L57.5788 57.7979L64.2183 79.4527L66.9572 81.3999ZM57.5788 57.7979L54.8435 55.8639L64.2183 79.4527L57.5788 57.7979Z" fill="#323232"/>
<path d="M46.659 50.0765L43.9375 48.1523M54.844 55.8638L57.5793 57.7977L54.844 55.8638ZM52.1122 53.9322L54.844 55.8638L52.1122 53.9322ZM49.3839 52.0032L52.1122 53.9322L49.3839 52.0032ZM46.659 50.0765L49.3839 52.0032L46.659 50.0765ZM43.9375 48.1523L53.298 71.6881L43.9375 48.1523Z" stroke="#707070" stroke-linecap="round"/>
<path d="M74.1602 99.2426L66.7266 31.5654L66.9569 81.3997L74.1602 99.2426Z" fill="#323232"/>
<path d="M48.0761 83.1819L66.958 81.3994L45.3477 81.2324L48.0761 83.1819Z" fill="#323232"/>
<path d="M56.022 73.6254L53.2969 71.688M45.3463 81.2326L48.0748 83.1821L45.3463 81.2326ZM64.2178 79.4524L66.9566 81.3996L64.2178 79.4524ZM42.6212 79.2856L45.3463 81.2326L42.6212 79.2856ZM61.4824 77.5076L64.2178 79.4524L61.4824 77.5076ZM39.8997 77.341L42.6212 79.2856L39.8997 77.341ZM58.7504 75.5653L61.4824 77.5076L58.7504 75.5653ZM37.1815 75.3989L39.8997 77.341L37.1815 75.3989ZM56.022 73.6254L58.7504 75.5653L56.022 73.6254ZM37.1815 75.3989L34.4668 73.4593L37.1815 75.3989ZM53.2969 71.688L34.4668 73.4593L53.2969 71.688Z" stroke="#707070" stroke-linecap="round"/>
<path d="M11.7961 121.103L46.7762 31.2445L9.0918 119.131L11.7961 121.103ZM63.9843 29.6474L61.2458 27.7319L44.0472 29.3269L63.9843 29.6474ZM46.7762 31.2445L44.0472 29.3269L9.0918 119.131L46.7762 31.2445Z" fill="#323232"/>
<path d="M66.9567 81.3997L14.5039 123.078L40.8606 102.405L66.9567 81.3997ZM14.5039 123.078L33.8898 121.226L40.8606 102.405L14.5039 123.078ZM66.9567 81.3997L48.0749 83.1822L14.5039 123.078L66.9567 81.3997ZM66.7264 31.5654L57.5784 57.7977L66.9567 81.3997L66.7264 31.5654Z" fill="#323232"/>
<path d="M46.7759 31.2447L63.984 29.6477L44.0469 29.3271L46.7759 31.2447Z" fill="#323232"/>
<path d="M14.5039 123.079L48.0749 83.1824L57.5784 57.7979L14.5039 123.079Z" fill="#323232"/>
<path d="M14.5046 123.078L49.5095 33.1645L11.7969 121.103L14.5046 123.078ZM66.727 31.5654L63.9851 29.6475L46.777 31.2445L66.727 31.5654Z" fill="#323232"/>
<path d="M66.7264 31.5654L14.5039 123.078L57.5784 57.7977L66.7264 31.5654Z" fill="#323232"/>
<path d="M49.5095 33.1646L46.777 31.2446L11.7969 121.103L49.5095 33.1646Z" fill="#323232"/>
<path d="M35.8814 23.5889L1 113.228M11.7965 121.103L14.5042 123.078L11.7965 121.103ZM9.09227 119.131L11.7965 121.103L9.09227 119.131ZM6.39144 117.161L9.09227 119.131L6.39144 117.161ZM3.69401 115.193L6.39144 117.161L3.69401 115.193ZM3.69401 115.193L1 113.228L3.69401 115.193Z" stroke="#707070" stroke-linecap="round"/>
<path d="M66.7264 31.5654L49.5088 33.1645L14.5039 123.078L66.7264 31.5654Z" fill="#323232"/>
<path d="M74.16 99.2426L40.8606 102.405M48.0749 83.1822L66.9567 81.3997L48.0749 83.1822ZM57.5784 57.7977L48.0749 83.1822L57.5784 57.7977ZM49.5088 33.1645L14.5039 123.078L49.5088 33.1645ZM101.619 114.756L81.1141 116.715L101.619 114.756ZM101.619 114.756L66.7264 31.5654L101.619 114.756ZM33.8898 121.226L14.5039 123.078L33.8898 121.226ZM40.8606 102.405L33.8898 121.226L40.8606 102.405ZM74.16 99.2426L81.1141 116.715L74.16 99.2426ZM57.5784 57.7977L66.9567 81.3997L57.5784 57.7977Z" stroke="#707070" stroke-linecap="round"/>
<path d="M49.5098 33.1646L66.7274 31.5655L46.7773 31.2446L49.5098 33.1646Z" fill="#323232"/>
<path d="M55.7792 23.9083L53.0512 22M49.5086 33.1645L66.7261 31.5655L49.5086 33.1645ZM46.7761 31.2446L49.5086 33.1645L46.7761 31.2446ZM63.9842 29.6475L66.7261 31.5655L63.9842 29.6475ZM44.0471 29.327L46.7761 31.2446L44.0471 29.327ZM61.2458 27.732L63.9842 29.6475L61.2458 27.732ZM41.3216 27.4119L44.0471 29.327L41.3216 27.4119ZM58.5108 25.8189L61.2458 27.732L58.5108 25.8189ZM38.5995 25.4992L41.3216 27.4119L38.5995 25.4992ZM55.7792 23.9083L58.5108 25.8189L55.7792 23.9083ZM38.5995 25.4992L35.8809 23.589L38.5995 25.4992ZM53.0512 22L35.8809 23.589L53.0512 22Z" stroke="#707070" stroke-linecap="round"/>
</svg>
