<svg width="1163" height="714" viewBox="0 0 1163 714" fill="none" xmlns="http://www.w3.org/2000/svg">
<path d="M120.12 697.025C164.278 642.864 208.369 588.632 252.392 534.327C296.414 480.023 340.176 425.511 383.676 370.792C394.544 357.178 405.39 343.505 416.213 329.773L432.435 309.19L448.507 288.511C459.321 274.753 469.825 260.845 480.423 246.979C485.749 240.059 490.858 233.004 496.103 226.03L503.903 215.542L507.62 210.285C508.823 208.514 509.972 206.716 511.162 204.878C515.788 197.714 519.855 190.205 523.328 182.416C526.772 174.741 529.291 166.683 530.83 158.413C531.582 154.336 532.007 150.205 532.101 146.06C532.168 141.965 531.874 137.872 531.222 133.828C530.508 129.829 529.403 125.908 527.924 122.124C526.38 118.381 524.445 114.811 522.152 111.474C517.45 104.786 511.479 99.0868 504.579 94.7016C497.556 90.2315 489.938 86.7736 481.95 84.43C465.85 79.6726 448.656 78.3887 431.664 79.4834C414.568 80.6976 397.668 83.872 381.297 88.9441C364.85 94.0016 348.879 100.491 333.566 108.339C318.167 116.18 303.366 125.143 289.282 135.153C275.142 145.235 261.219 155.737 247.539 166.468C220.118 187.882 193.831 210.709 168.784 234.855C143.744 258.913 120.376 284.652 98.8434 311.893C88.232 325.719 78.1342 339.788 68.7394 354.344C59.3752 368.902 50.8015 383.952 43.0556 399.431C35.3706 414.916 28.7365 430.9 23.1981 447.275C17.7485 463.658 13.6081 480.447 10.8158 497.485C8.07839 514.525 6.90197 531.779 7.30118 549.032C7.78161 566.311 9.88613 583.506 13.5869 600.39C21.0893 634.179 34.8504 666.372 52.9101 695.971L52.072 695.106C59.3444 699.841 67.3189 703.399 75.701 705.647C84.1699 707.907 92.9036 709.021 101.669 708.959C119.242 708.959 136.815 705.053 153.644 699.39C170.506 693.553 186.837 686.283 202.457 677.657C218.156 669.084 233.402 659.705 248.133 649.559C277.614 629.174 305.699 606.842 332.2 582.712C335.526 579.712 338.829 576.684 342.109 573.63C345.38 570.562 348.692 567.535 351.788 564.372C358.019 558.006 363.954 551.289 369.915 544.586C381.784 531.138 393.422 517.474 404.966 503.729C451.116 448.735 496.441 393.038 541.739 337.315C587.037 281.591 631.97 225.584 677.971 170.36C683.743 163.481 689.542 156.602 695.544 149.817C697.031 148.128 698.545 146.438 700.059 144.762C701.573 143.086 703.114 141.424 704.925 139.748C705.148 139.524 705.383 139.312 705.628 139.113L706.534 138.41C707.075 138.005 707.426 137.802 707.886 137.464C708.764 136.856 709.657 136.207 710.589 135.545L715.996 131.49C723.174 126.084 730.406 120.678 738.233 115.813C740.207 114.623 742.221 113.461 744.316 112.393C746.485 111.295 748.747 110.39 751.075 109.69C752.393 109.285 753.754 109.036 755.13 108.947C756.814 108.792 758.507 109.106 760.024 109.852C761.707 110.759 762.982 112.271 763.592 114.083C764.067 115.484 764.3 116.955 764.282 118.435C764.239 120.934 763.903 123.42 763.282 125.841C762.741 128.166 762.051 130.396 761.308 132.599C759.794 136.991 758.05 141.208 756.212 145.371C752.508 153.696 748.399 161.738 744.167 169.698C742.032 173.672 739.864 177.627 737.665 181.564C736.543 183.524 735.516 185.497 734.3 187.444L730.555 193.269L728.757 196.188C728.162 197.161 727.568 198.148 726.892 199.053L722.931 204.635C721.579 206.473 720.322 208.379 718.876 210.176L714.591 215.501C703.091 229.565 690.469 242.673 676.849 254.696C663.264 266.654 649.05 277.878 634.268 288.322C619.574 298.85 604.34 308.595 588.862 317.88C581.157 322.583 573.29 326.989 565.449 331.395C557.609 335.801 549.647 340.099 541.604 344.194C533.561 348.289 525.531 352.303 517.461 356.358C509.391 360.413 501.24 364.17 492.981 367.859C476.624 375.392 460.092 382.519 443.384 389.241C409.936 402.787 375.813 414.602 341.149 424.637C332.471 427.124 323.729 429.444 314.925 431.598C310.531 432.665 306.098 433.652 301.664 434.639C297.23 435.625 292.742 436.517 288.227 437.193C270.205 440.337 251.919 441.718 233.629 441.315C215.246 440.952 196.971 438.397 179.193 433.706C170.274 431.315 161.534 428.303 153.036 424.691C148.773 422.889 144.587 420.88 140.478 418.663C138.423 417.569 136.423 416.42 134.382 415.19C133.381 414.582 132.381 413.933 131.381 413.284L129.772 412.217C129.245 411.852 128.799 411.554 128.177 411.081C127.308 410.417 126.665 409.501 126.336 408.458C126.007 407.414 126.008 406.295 126.339 405.253C126.671 404.21 127.316 403.295 128.187 402.633C129.058 401.971 130.112 401.594 131.205 401.553H131.34C150.468 400.985 169.771 399.702 188.858 397.728C198.402 396.715 207.918 395.498 217.354 393.985C226.744 392.534 236.056 390.613 245.254 388.227C249.796 387.024 254.257 385.632 258.583 384.051C262.758 382.517 266.774 380.58 270.573 378.266L273.087 376.496L275.237 374.536C276.78 372.967 278.238 371.316 279.603 369.589C280.111 368.944 280.563 368.257 280.955 367.535C281.036 367.4 280.955 367.4 281.022 367.346V367.278C281.009 367.327 281.009 367.378 281.022 367.427C281.012 367.45 281.007 367.476 281.007 367.501C281.007 367.527 281.012 367.552 281.022 367.576C281.014 367.679 281.014 367.783 281.022 367.886C281.035 367.998 281.062 368.107 281.103 368.211C281.089 368.314 281.089 368.419 281.103 368.522C281.146 368.611 281.196 368.697 281.252 368.778C281.246 368.793 281.242 368.81 281.242 368.826C281.242 368.842 281.246 368.858 281.252 368.873C281.252 368.873 281.347 368.954 281.252 368.873L281.157 368.792L281.063 368.684L280.833 368.495C280.698 368.36 280.549 368.238 280.319 368.049C279.522 367.413 278.373 366.521 277.291 365.548C274.941 363.445 273.026 360.901 271.654 358.061C270.392 355.338 269.549 352.44 269.154 349.465C268.529 344.108 268.657 338.69 269.532 333.368C271.234 323.46 273.84 313.729 277.318 304.297C277.456 303.902 277.643 303.525 277.873 303.175L277.954 303.027L284.456 292.917L290.904 282.618L297.473 272.279C299.677 268.846 301.988 265.522 304.232 262.048C305.381 260.345 306.49 258.615 307.652 256.939L311.221 251.925C313.627 248.587 315.939 245.168 318.412 241.924L325.942 232.166C327.199 230.544 328.429 228.895 329.727 227.3L333.701 222.583C354.895 197.414 378.501 174.377 404.182 153.804L413.807 146.154C417.024 143.627 420.16 140.992 423.553 138.68L443.465 124.341L445.966 122.557L448.534 120.881L453.698 117.583L464.012 110.947L474.34 104.325C477.827 102.189 481.409 100.27 484.938 98.1481L506.16 85.8897C513.338 81.9837 520.638 78.3211 527.883 74.5368L538.698 68.9009C540.523 67.9684 542.307 66.9953 544.105 66.1033L549.755 63.5218L571.951 53.2097L583.049 48.0468L594.31 43.2489C601.853 40.0998 609.436 37.0183 617.087 34.1261C632.376 28.3145 647.881 23.003 663.615 18.4078C695.071 9.1768 727.46 2.62188 760.389 0.608098C776.892 -0.463785 793.455 -0.142787 809.904 1.56768C826.509 3.25328 842.834 7.03617 858.487 12.8259C866.383 15.8336 873.966 19.6042 881.129 24.0842C884.758 26.3481 888.227 28.8588 891.511 31.5987C894.839 34.36 897.944 37.3787 900.798 40.6269C906.709 47.2574 911.052 55.1333 913.504 63.6705C915.914 72.441 915.731 81.7216 912.977 90.3903L913.18 89.2685C912.612 97.1074 913.045 105.135 912.801 113.596C912.683 117.931 912.231 122.251 911.45 126.517C910.625 130.818 909.408 135.034 907.813 139.113C904.613 147.053 900.479 154.585 895.499 161.548C890.691 168.402 885.52 174.993 880.007 181.294C869.044 193.782 857.379 205.46 845.402 216.758C833.425 228.057 821.165 239.005 808.769 249.79L809.296 249.236C808.323 250.466 807.363 251.682 806.484 252.871C806.052 253.466 805.619 254.061 805.268 254.601C805.078 254.885 804.93 255.142 804.808 255.358C804.751 255.447 804.706 255.542 804.673 255.642V255.75C804.688 255.651 804.688 255.551 804.673 255.453V255.29C804.673 255.29 804.673 255.047 804.673 254.926C804.635 254.641 804.558 254.364 804.443 254.101C804.301 253.744 804.084 253.422 803.808 253.155C803.627 252.936 803.407 252.753 803.159 252.614C802.835 252.466 802.862 252.452 802.726 252.398C802.591 252.344 802.456 252.398 802.442 252.398C802.795 252.396 803.148 252.369 803.497 252.317C804.768 252.155 806.268 251.831 807.728 251.493C813.716 250.06 819.894 248.33 825.99 246.749L830.6 245.559L832.911 244.965C833.668 244.776 834.331 244.559 835.034 244.357C836.386 243.992 837.818 243.411 839.211 242.924C840.603 242.437 841.982 241.775 843.347 241.153C848.864 238.492 854.174 235.419 859.231 231.963C869.499 224.892 879.227 217.068 888.334 208.555C897.547 200.078 906.28 191.095 914.491 181.646C918.589 176.963 922.421 172.054 925.968 166.941L927.211 165.049L928.32 163.157L928.806 162.224L929.05 161.765C929.05 161.765 929.05 161.683 929.05 161.765V161.967C928.985 162.264 928.962 162.569 928.982 162.873C928.252 163.778 931.442 166.387 932.321 165.846C933.592 165.684 933.2 165.643 933.578 165.535L933.754 165.427L933.511 165.63C933.294 165.819 933.037 166.062 932.781 166.319C930.699 168.414 928.577 170.793 926.495 173.077C918.154 182.538 909.949 192.133 901.757 201.756L852.715 259.656C819.984 298.292 786.969 336.657 753.67 374.752C736.949 393.755 720.092 412.595 702.844 431.152C694.206 440.41 685.446 449.546 676.417 458.439C671.888 462.872 667.306 467.251 662.52 471.427C660.128 473.509 657.694 475.549 655.126 477.442C653.824 478.416 652.471 479.318 651.071 480.145C649.661 481.07 648.055 481.653 646.38 481.848C646.237 481.848 646.099 481.791 645.998 481.689C645.896 481.588 645.839 481.45 645.839 481.307C645.839 481.164 645.896 481.026 645.998 480.925C646.099 480.823 646.237 480.766 646.38 480.766V480.766C647.837 480.54 649.224 479.986 650.435 479.144C651.768 478.314 653.054 477.412 654.288 476.441C656.775 474.536 659.168 472.468 661.506 470.373C666.184 466.143 670.685 461.71 675.105 457.223C683.973 448.221 692.53 438.923 701.032 429.57C718.024 410.852 734.597 391.727 751.048 372.549C783.937 334.139 816.204 295.174 848.497 256.25L896.918 197.81C905.029 188.092 913.139 178.361 921.439 168.766C923.548 166.36 925.603 163.995 927.955 161.589C928.266 161.278 928.577 160.967 928.955 160.643C929.168 160.439 929.394 160.249 929.631 160.075L929.901 159.886C930.039 159.786 930.183 159.695 930.334 159.616C930.802 159.357 931.327 159.218 931.861 159.21C932.848 158.643 936.12 161.359 935.39 162.359C935.411 162.763 935.375 163.168 935.281 163.562C935.214 163.832 935.173 163.9 935.133 164.035C935.067 164.216 934.991 164.392 934.903 164.562L934.606 165.157L933.997 166.346L932.727 168.549L931.375 170.631C927.739 175.97 923.799 181.097 919.574 185.984C911.285 195.719 902.453 204.978 893.12 213.717C883.82 222.549 873.88 230.68 863.381 238.045C858.025 241.776 852.394 245.097 846.537 247.979C845.05 248.681 843.523 249.33 841.982 249.992C840.441 250.655 838.859 251.222 837.197 251.668C836.399 251.912 835.547 252.182 834.777 252.385L832.492 252.993L827.923 254.223C821.827 255.845 815.758 257.602 809.499 259.169C807.833 259.603 806.146 259.946 804.443 260.197C803.225 260.393 801.984 260.393 800.766 260.197C800.483 260.137 800.203 260.06 799.928 259.967C799.585 259.853 799.254 259.704 798.941 259.521C798.533 259.27 798.156 258.97 797.819 258.629C797.429 258.201 797.109 257.712 796.873 257.183C796.695 256.749 796.573 256.295 796.508 255.831C796.49 255.611 796.49 255.389 796.508 255.169V254.709C796.538 254.414 796.583 254.121 796.643 253.831L796.819 253.236C796.819 253.047 796.954 252.831 797.022 252.682L797.211 252.25C797.324 251.982 797.45 251.72 797.59 251.466C797.846 250.993 798.103 250.574 798.347 250.195C798.847 249.398 799.347 248.709 799.834 248.019C800.834 246.668 801.821 245.397 802.807 244.14C802.944 243.95 803.102 243.778 803.281 243.627V243.627C815.541 232.815 827.613 221.854 839.414 210.582C851.215 199.31 862.61 187.714 873.208 175.442C878.465 169.38 883.388 163.036 887.956 156.44C892.48 150.042 896.224 143.127 899.108 135.842C900.476 132.277 901.517 128.595 902.217 124.841C902.872 121.04 903.238 117.195 903.312 113.339C903.501 105.5 902.988 97.1209 903.542 88.6062C903.556 88.2346 903.62 87.8665 903.731 87.5115V87.5115C905.932 80.606 906.072 73.2092 904.137 66.2249C902.008 59.1175 898.313 52.5778 893.322 47.0872C890.822 44.2458 888.101 41.6066 885.185 39.1943C882.231 36.7225 879.105 34.4643 875.83 32.4366C869.2 28.3428 862.187 24.9028 854.891 22.165C840.029 16.7599 824.54 13.263 808.796 11.7582C792.926 10.2217 776.955 10.0227 761.051 11.1636C753.076 11.6636 745.127 12.5151 737.192 13.5558C729.257 14.5964 721.349 15.9074 713.469 17.4347C697.72 20.4215 682.135 24.341 666.711 28.8686C651.287 33.3962 636.08 38.6672 621.048 44.4247C613.532 47.3035 606.084 50.3579 598.649 53.4665L587.578 58.2914L576.615 63.4272L554.676 73.6853L549.201 76.2533C547.39 77.1453 545.619 78.1049 543.794 78.9563L533.074 84.5652C525.937 88.3224 518.732 91.958 511.662 95.8234L490.764 107.987C487.29 110.042 483.775 112.042 480.341 114.11L470.203 120.665L460.051 127.206L454.982 130.477L452.454 132.112L449.994 133.869L430.407 147.952C427.082 150.223 423.999 152.804 420.85 155.291L411.387 162.778C386.372 182.899 363.385 205.419 342.758 230.017L338.878 234.599C337.608 236.153 336.418 237.761 335.188 239.342L327.834 248.803C325.414 252.006 323.157 255.318 320.818 258.575L317.358 263.548C316.209 265.197 315.114 266.887 313.992 268.563C311.775 271.914 309.518 275.226 307.341 278.618L300.839 288.822L294.351 299.134L287.659 309.5L288.295 308.243C285.03 316.98 282.569 325.996 280.941 335.179C280.222 339.425 280.081 343.749 280.522 348.033C280.758 349.861 281.259 351.646 282.009 353.33C282.741 354.872 283.775 356.251 285.05 357.385C285.767 358.034 286.524 358.628 287.619 359.507C287.862 359.696 288.173 359.966 288.484 360.25L288.944 360.656C289.106 360.804 289.295 361.021 289.471 361.196L290.011 361.764C290.216 362.01 290.405 362.267 290.579 362.534C290.782 362.818 290.958 363.102 291.133 363.386C291.329 363.732 291.497 364.094 291.634 364.467C291.789 364.847 291.924 365.235 292.039 365.629C292.12 366.021 292.174 366.44 292.228 366.859C292.255 367.264 292.255 367.671 292.228 368.076C292.228 368.414 292.161 368.765 292.107 369.116C292.053 369.468 291.999 369.819 291.931 370.157C291.863 370.495 291.755 370.684 291.661 370.954C291.497 371.461 291.303 371.958 291.079 372.441C290.351 373.873 289.487 375.23 288.497 376.496C286.859 378.563 285.108 380.54 283.253 382.415C282.252 383.389 281.103 384.375 280.022 385.335C278.94 386.294 277.751 386.957 276.602 387.754C267.342 393.457 257.677 396.404 248.079 399.026C238.482 401.648 228.763 403.351 219.084 404.905C209.405 406.459 199.686 407.608 189.967 408.622C170.515 410.568 151.144 411.811 131.556 412.311L134.76 402.756C135.03 402.972 135.504 403.31 135.909 403.58L137.193 404.459C138.094 405.045 138.996 405.612 139.897 406.162C141.699 407.288 143.56 408.36 145.48 409.378C149.278 411.419 153.198 413.325 157.186 415.041C165.209 418.477 173.461 421.349 181.883 423.637C198.854 428.148 216.302 430.625 233.859 431.016C251.491 431.449 269.124 430.173 286.51 427.205C290.877 426.57 295.202 425.583 299.542 424.772C303.881 423.961 308.22 422.88 312.546 421.84C321.197 419.74 329.817 417.488 338.405 415.082C372.74 405.351 406.575 393.566 439.788 380.429C456.433 373.869 472.902 366.904 489.196 359.534C497.306 355.925 505.417 352.047 513.528 348.262C521.638 344.478 529.614 340.45 537.535 336.328C545.457 332.206 553.364 328.03 561.245 323.813C569.126 319.596 576.872 315.136 584.523 310.541C599.92 301.391 615.059 291.93 629.605 281.645C644.24 271.474 658.335 260.548 671.834 248.911C685.247 237.276 697.697 224.576 709.062 210.933L713.266 205.797C714.618 204.067 715.875 202.243 717.186 200.391L721.079 194.985C721.755 194.107 722.323 193.174 722.904 192.282L724.661 189.471L728.176 183.876C729.366 182.024 730.42 180.024 731.555 178.105C733.772 174.221 735.949 170.324 738.084 166.414C742.343 158.561 746.465 150.655 750.129 142.6C751.967 138.545 753.684 134.491 755.13 130.436C755.855 128.437 756.478 126.403 756.996 124.341C757.515 122.422 757.81 120.449 757.874 118.462C757.897 117.695 757.801 116.929 757.591 116.191C757.388 115.61 757.226 115.475 756.982 115.326C756.464 115.1 755.894 115.021 755.333 115.096C754.444 115.16 753.564 115.323 752.711 115.583C748.71 116.922 744.884 118.737 741.315 120.989C733.813 125.517 726.621 130.815 719.43 136.153L714.023 140.208C713.104 140.87 712.171 141.559 711.211 142.194C710.765 142.519 710.143 142.884 709.792 143.154L709.359 143.492C709.224 143.587 709.008 143.816 708.832 143.978C705.804 146.817 702.763 150.25 699.802 153.547C693.854 160.21 688.015 167.063 682.229 173.82C589.754 283.632 499.956 395.782 407.616 505.824C396.018 519.542 384.406 533.246 372.551 546.762C366.59 553.519 360.655 560.277 354.329 566.71C351.152 569.967 347.854 573.022 344.569 576.09C341.284 579.158 337.972 582.212 334.647 585.226C321.256 597.318 307.549 609.027 293.526 620.352C279.508 631.624 265.139 642.49 250.35 652.789C235.566 663.103 220.257 672.644 204.485 681.374C188.694 690.194 172.195 697.681 155.158 703.755C138.072 709.689 120.107 713.865 101.736 714.094C92.4997 714.213 83.2889 713.095 74.3492 710.77C65.3659 708.438 56.8073 704.703 48.9899 699.701C48.6622 699.495 48.385 699.217 48.1789 698.89V698.89C29.5649 669.007 15.182 636.246 7.16601 601.782C3.20957 584.526 0.874369 566.939 0.190845 549.248C-0.408092 531.547 0.600865 513.828 3.2053 496.309C5.89342 478.816 9.98908 461.569 15.4524 444.735C20.9796 427.95 27.6272 411.555 35.3505 395.66C43.0907 379.809 51.715 364.404 61.1829 349.519C70.6454 334.652 80.8513 320.272 91.5979 306.27C113.228 278.503 136.803 252.307 162.147 227.881C187.409 203.479 213.922 180.404 241.577 158.751C255.406 147.938 269.424 137.424 283.766 127.247C298.214 116.99 313.399 107.815 329.199 99.7969C345.025 91.7796 361.521 85.159 378.499 80.0105C395.58 74.7724 413.205 71.5074 431.029 70.2795C448.859 69.1712 467.081 70.4957 484.518 75.7667C493.307 78.3991 501.68 82.2574 509.391 87.2277C517.249 92.2871 524.037 98.8398 529.37 106.514C532.015 110.404 534.232 114.568 535.981 118.935C537.673 123.306 538.932 127.833 539.738 132.45C540.449 137.037 540.756 141.676 540.658 146.317C540.528 150.912 540.035 155.49 539.184 160.008C537.491 168.924 534.731 177.604 530.965 185.862C527.297 194.06 522.994 201.959 518.097 209.487C516.853 211.325 515.65 213.204 514.379 215.042L510.5 220.448L502.605 230.949C497.32 237.923 492.115 244.965 486.735 251.871C476.002 265.67 465.323 279.537 454.441 293.214L438.22 313.798L421.756 334.22C410.86 347.884 399.857 361.48 388.88 375.063C344.831 429.359 300.452 483.375 255.744 537.112C211.036 590.848 166.108 644.387 120.958 697.727C120.865 697.839 120.732 697.908 120.587 697.921C120.443 697.934 120.299 697.888 120.188 697.795C120.077 697.702 120.007 697.568 119.995 697.424C119.982 697.279 120.027 697.136 120.12 697.025V697.025Z" fill="white"/>
<path d="M1162.69 131.612C1148.69 137.951 1134.55 143.951 1120.37 149.804C1113.27 152.75 1106.17 155.669 1099.05 158.494C1091.93 161.319 1084.82 164.238 1077.67 166.995L1056.21 175.32L1034.69 183.43C1020.36 188.903 1005.91 194.053 991.436 199.013C962.4 208.919 932.985 217.786 904.044 227.963C875.102 238.14 846.444 249.06 817.922 260.399L796.51 268.86C789.372 271.68 782.226 274.469 775.071 277.226C760.742 282.727 746.359 288.038 731.963 293.377C703.183 304 674.377 314.582 645.314 324.462C630.787 329.399 616.21 334.206 601.584 338.883L579.631 345.843L557.597 352.601C542.863 356.966 528.101 361.237 513.218 365.116L502.039 367.981C498.308 368.914 494.55 369.738 490.806 370.617C487.061 371.495 483.249 372.211 479.464 372.941C475.679 373.671 471.8 374.09 467.988 374.59C467.846 374.605 467.705 374.564 467.593 374.476C467.482 374.387 467.41 374.258 467.393 374.117C467.373 373.989 467.402 373.857 467.474 373.749C467.547 373.641 467.658 373.565 467.785 373.536H467.866C471.584 372.603 475.26 371.833 478.924 370.617C482.587 369.4 486.237 368.441 489.86 367.197C493.482 365.954 497.132 364.846 500.755 363.589L511.569 359.845L533.198 352.249L554.826 344.532L598.083 329.044C612.493 323.827 626.957 318.745 641.407 313.623C655.858 308.5 670.335 303.5 684.867 298.621L728.421 283.835C742.939 278.915 757.444 273.942 772.016 269.144C786.588 264.346 801.201 259.683 815.773 254.926C844.985 245.465 874.007 235.585 902.719 224.786C931.431 213.988 959.642 201.81 988.205 190.674C1002.49 185.092 1016.84 179.672 1031.29 174.55L1052.91 166.792L1074.64 159.224C1081.87 156.669 1089.14 154.237 1096.41 151.777C1103.69 149.317 1110.95 146.884 1118.25 144.506C1132.82 139.721 1147.44 135.045 1162.19 130.693C1162.33 130.643 1162.48 130.648 1162.61 130.708C1162.74 130.767 1162.84 130.876 1162.89 131.01C1162.94 131.145 1162.93 131.294 1162.87 131.424C1162.81 131.555 1162.71 131.656 1162.57 131.707L1162.69 131.612Z" fill="white"/>
<path d="M423.974 527.57C452.78 491.079 482.303 455.047 512.191 419.38C527.132 401.54 542.196 383.803 557.381 366.17C572.566 348.537 587.886 331.003 603.341 313.569C618.733 296.107 634.324 278.816 650.112 261.697C657.962 253.101 665.874 244.541 673.85 236.018C681.879 227.584 689.868 219.11 698.006 210.771C706.144 202.432 714.322 194.134 722.595 185.916L735.112 173.685L747.805 161.629C752.063 157.575 756.43 153.75 760.742 149.804C765.054 145.857 769.528 142.1 773.922 138.234C778.315 134.369 782.951 130.76 787.439 127.044L794.469 121.638L797.983 118.935L801.647 116.421C806.594 113.096 811.109 109.663 817.368 107.163C818.265 106.815 819.2 106.571 820.152 106.433C820.82 106.33 821.499 106.33 822.166 106.433C823.238 106.58 824.229 107.085 824.978 107.866C825.666 108.615 826.105 109.56 826.235 110.569C826.32 111.21 826.32 111.86 826.235 112.501C826.084 113.423 825.844 114.329 825.519 115.204C824.352 118.088 822.927 120.861 821.261 123.489C818.138 128.585 814.745 133.369 811.285 138.099C807.824 142.83 804.269 147.452 800.673 152.047C793.482 161.238 786.088 170.239 778.68 179.226C771.272 188.214 763.756 197.323 756.267 206.203C741.236 223.989 726.109 241.676 710.888 259.264L665.212 311.974L619.427 364.683L573.467 417.204C542.768 452.181 511.961 487.051 480.694 521.529C479.907 522.412 478.817 522.966 477.639 523.081C476.462 523.196 475.284 522.863 474.341 522.149C473.398 521.434 472.759 520.391 472.551 519.226C472.343 518.062 472.582 516.862 473.219 515.866V515.866C486.318 495.066 499.998 474.793 514.097 454.709C528.196 434.625 542.782 414.906 558.07 395.674C565.721 386.065 573.575 376.577 581.686 367.292C589.796 358.007 598.191 348.925 607.112 340.261C616.022 331.422 625.648 323.335 635.892 316.082C641.229 312.341 646.931 309.149 652.911 306.554C656.076 305.217 659.363 304.185 662.725 303.473C666.353 302.732 670.075 302.564 673.755 302.973H673.985C674.723 303.064 675.433 303.314 676.065 303.706C676.698 304.098 677.238 304.623 677.648 305.243C678.12 305.979 678.523 306.757 678.851 307.568C679.013 308.108 679.162 308.649 679.297 309.19C679.365 309.433 679.415 309.682 679.446 309.933L679.541 310.582C679.541 311.014 679.662 311.487 679.689 311.933C679.689 312.717 679.784 313.528 679.784 314.271V316.488C679.608 319.271 679.274 322.041 678.784 324.786C677.82 330.087 676.464 335.309 674.728 340.41C671.294 350.51 666.661 360.161 660.927 369.157C649.455 387.263 633.559 402.148 614.737 412.406C612.439 413.758 609.992 414.812 607.626 416.015C605.261 417.217 602.692 418.15 600.232 419.218C599.597 419.461 598.88 419.718 598.15 419.934C597.42 420.15 596.798 420.353 596.028 420.529C594.42 420.96 592.77 421.213 591.107 421.285C589.954 421.328 588.801 421.196 587.687 420.894C586.903 420.674 586.152 420.346 585.457 419.92C584.607 419.381 583.872 418.678 583.294 417.853C582.332 416.408 581.858 414.694 581.942 412.96C581.982 411.867 582.174 410.784 582.51 409.743C583.02 408.185 583.695 406.685 584.524 405.27C585.233 404.013 586.009 402.794 586.849 401.621C588.44 399.399 590.151 397.265 591.973 395.228C595.518 391.248 599.335 387.518 603.395 384.064C607.448 380.577 611.769 377.414 616.318 374.604C618.681 373.149 621.142 371.862 623.685 370.752C626.47 369.576 628.808 368.914 631.228 368.049C640.866 364.778 650.45 361.44 659.994 357.953C669.537 354.466 679.04 350.857 688.503 347.141C697.965 343.424 707.428 339.613 716.714 335.612C726.001 331.611 735.355 327.503 744.547 323.191C753.74 318.88 762.891 314.461 771.88 309.757C780.87 305.054 789.764 300.148 798.51 294.985C807.256 289.822 815.773 284.335 824.072 278.51L830.237 274.063L836.238 269.387C838.266 267.86 840.132 266.143 842.078 264.535L844.984 262.075L847.756 259.48C855.294 252.695 862.029 245.067 867.829 236.748C867.909 236.627 868.033 236.543 868.175 236.512C868.316 236.482 868.464 236.508 868.586 236.585C868.703 236.665 868.785 236.787 868.815 236.925C868.845 237.063 868.822 237.207 868.749 237.329C863.283 246.03 856.803 254.051 849.445 261.224L846.742 263.927L843.903 266.522C841.983 268.238 840.159 270.049 838.158 271.658L832.264 276.618L826.208 281.348C809.823 293.693 792.565 304.836 774.57 314.69C756.7 324.719 738.302 333.76 719.675 342.262C701.047 350.763 682.15 358.656 663.062 366.021C653.519 369.725 643.908 373.279 634.297 376.753C631.918 377.631 629.363 378.456 627.47 379.32C625.359 380.296 623.317 381.416 621.36 382.672C617.294 385.302 613.434 388.239 609.816 391.457C606.149 394.668 602.708 398.127 599.516 401.81C597.957 403.592 596.499 405.46 595.149 407.405C594.5 408.351 593.906 409.297 593.392 410.23C592.942 411.019 592.575 411.852 592.297 412.717C592.23 412.885 592.193 413.063 592.189 413.244C592.199 413.127 592.199 413.009 592.189 412.893C592.189 412.811 592.121 412.649 592.054 412.487C591.976 412.318 591.885 412.156 591.783 412C591.572 411.698 591.306 411.436 590.999 411.23C590.848 411.14 590.69 411.063 590.526 411C590.378 411 590.526 411 590.891 411C592.846 410.762 594.761 410.262 596.582 409.514C598.772 408.514 600.989 407.622 603.179 406.527C605.369 405.432 607.572 404.405 609.667 403.134C626.759 393.568 641.169 379.857 651.572 363.264C656.749 355.001 660.92 346.149 663.995 336.896C665.514 332.326 666.694 327.651 667.523 322.908C667.908 320.631 668.166 318.334 668.294 316.028V314.42C668.294 313.893 668.294 313.433 668.294 312.933C668.294 312.69 668.294 312.541 668.213 312.339V312.055C668.225 311.988 668.225 311.919 668.213 311.852C668.2 311.776 668.2 311.698 668.213 311.622C668.263 311.857 668.386 312.07 668.564 312.231L672.457 314.542C670.051 314.305 667.623 314.428 665.252 314.907C662.638 315.473 660.082 316.278 657.615 317.312C652.387 319.605 647.405 322.422 642.745 325.719C633.029 332.592 623.897 340.254 615.439 348.627C598.204 365.624 581.994 383.631 566.897 402.553C551.595 421.475 536.955 440.896 522.748 460.669C508.541 480.442 494.766 500.607 481.519 520.961L474.071 515.257L568.871 412.893C584.641 395.773 600.349 378.627 615.994 361.453C631.282 344.167 646.976 326.949 662.373 309.5C693.302 274.766 723.798 239.64 753.415 203.797C768.163 185.835 782.776 167.752 796.577 149.101C800.024 144.451 803.417 139.762 806.716 135.018C810.014 130.274 813.204 125.462 816.029 120.57C817.417 118.243 818.602 115.801 819.571 113.272C819.743 112.79 819.865 112.292 819.936 111.785C819.936 111.623 819.936 111.474 819.936 111.542C819.989 111.838 820.13 112.111 820.342 112.326C820.581 112.584 820.891 112.768 821.234 112.853C821.315 112.853 821.234 112.853 821.072 112.853C820.609 112.955 820.156 113.1 819.72 113.285C817.263 114.382 814.91 115.698 812.691 117.218C810.338 118.759 808.054 120.529 805.742 122.165L802.268 124.679L798.916 127.382L792.157 132.788C787.804 136.572 783.411 140.302 779.112 144.154C774.814 148.006 770.529 151.898 766.352 155.899C762.175 159.899 757.93 163.859 753.807 167.914L741.398 180.078L729.137 192.417L716.971 204.878L704.805 217.38C672.669 250.889 641.033 284.912 609.897 319.448C547.472 388.376 486.088 458.223 424.704 528.151C424.655 528.202 424.596 528.242 424.531 528.27C424.466 528.297 424.396 528.311 424.325 528.311C424.255 528.311 424.185 528.297 424.12 528.27C424.055 528.242 423.996 528.202 423.947 528.151C423.896 528.062 423.871 527.959 423.876 527.856C423.88 527.754 423.915 527.654 423.974 527.57V527.57Z" fill="white"/>
</svg>
