<svg width="20" height="36" viewBox="0 0 20 36" fill="none" xmlns="http://www.w3.org/2000/svg">
<path d="M0.2 10.76C0.2 10.2 0.413334 9.70667 0.84 9.28C1.29333 8.85333 1.84 8.64 2.48 8.64C3.04 8.64 3.53333 8.85333 3.96 9.28C4.38667 9.70667 4.6 10.2 4.6 10.76C4.6 11.4 4.4 11.9467 4 12.4C3.6 12.8267 3.09333 13.04 2.48 13.04C1.84 13.04 1.29333 12.8267 0.84 12.4C0.413334 11.9467 0.2 11.4 0.2 10.76ZM0.2 24.84C0.2 24.28 0.413334 23.7867 0.84 23.36C1.29333 22.9333 1.84 22.72 2.48 22.72C3.04 22.72 3.53333 22.9333 3.96 23.36C4.38667 23.7867 4.6 24.28 4.6 24.84C4.6 25.48 4.4 26.0267 4 26.48C3.6 26.9067 3.09333 27.12 2.48 27.12C1.84 27.12 1.29333 26.9067 0.84 26.48C0.413334 26.0267 0.2 25.48 0.2 24.84ZM11.6525 35.24L9.6125 33.48C11.8258 31.5067 13.5325 29.1733 14.7325 26.48C15.9325 23.7867 16.5325 20.96 16.5325 18C16.5325 14.96 15.9725 12.2 14.8525 9.72C13.7592 7.21333 12.0125 4.81333 9.6125 2.52L11.6125 0.759999C17.0258 5.64 19.7325 11.3867 19.7325 18C19.7325 24.8533 17.0392 30.6 11.6525 35.24Z" fill="white"/>
</svg>
