<svg width="30" height="31" viewBox="0 0 30 31" fill="none" xmlns="http://www.w3.org/2000/svg">
<path d="M27.7001 7.54497C23.2601 0.699969 14.1951 -1.33503 7.16508 2.91997C0.320075 7.17497 -1.89992 16.425 2.54008 23.27L2.91008 23.825L1.43008 29.375L6.98008 27.895L7.53508 28.265C9.94008 29.56 12.5301 30.3 15.1201 30.3C17.8951 30.3 20.6701 29.56 23.0751 28.08C29.9201 23.64 31.9551 14.575 27.7001 7.54497ZM23.8151 21.79C23.0751 22.9 22.1501 23.64 20.8551 23.825C20.1151 23.825 19.1901 24.195 15.4901 22.715C12.3451 21.235 9.75508 18.83 7.90508 16.055C6.79508 14.76 6.24008 13.095 6.05508 11.43C6.05508 9.94997 6.61008 8.65497 7.53508 7.72997C7.90508 7.35997 8.27507 7.17497 8.64508 7.17497H9.57008C9.94007 7.17497 10.3101 7.17497 10.4951 7.91497C10.8651 8.83997 11.7901 11.06 11.7901 11.245C11.9751 11.43 11.9751 11.8 11.7901 11.985C11.9751 12.355 11.7901 12.725 11.6051 12.91C11.4201 13.095 11.2351 13.465 11.0501 13.65C10.6801 13.835 10.4951 14.205 10.6801 14.575C11.4201 15.685 12.3451 16.795 13.2701 17.72C14.3801 18.645 15.4901 19.385 16.7851 19.94C17.1551 20.125 17.5251 20.125 17.7101 19.755C17.8951 19.385 18.8201 18.46 19.1901 18.09C19.5601 17.72 19.7451 17.72 20.1151 17.905L23.0751 19.385C23.4451 19.57 23.8151 19.755 24.0001 19.94C24.1851 20.495 24.1851 21.235 23.8151 21.79Z" fill="#323232"/>
</svg>
