<svg width="205" height="201" viewBox="0 0 205 201" fill="none" xmlns="http://www.w3.org/2000/svg">
<path d="M89.6959 129.457L101.495 121.057L100.585 120.383L89.6959 129.457ZM90.5972 130.08L102.395 121.679L101.495 121.057L90.5972 130.08ZM91.4898 130.65L103.287 122.25L102.395 121.679L91.4898 130.65ZM92.3735 131.169L104.171 122.768L103.287 122.25L92.3735 131.169ZM93.2485 131.635L105.045 123.234L104.171 122.768L93.2485 131.635ZM94.1147 132.05L105.911 123.648L105.045 123.234L94.1147 132.05ZM94.9722 132.413L106.768 124.011L105.911 123.648L94.9722 132.413ZM95.8208 132.723L107.616 124.321L106.768 124.011L95.8208 132.723ZM96.6607 132.981L108.455 124.579L107.616 124.321L96.6607 132.981ZM97.4918 133.188L109.286 124.785L108.455 124.579L97.4918 133.188ZM98.3141 133.342L110.108 124.939L109.286 124.785L98.3141 133.342ZM99.1276 133.444L110.921 125.041L110.108 124.939L99.1276 133.444ZM100.462 133.528L112.254 125.125L110.921 125.041L100.462 133.528ZM101.719 133.52L113.511 125.117L112.254 125.125L101.719 133.52ZM102.901 133.42L114.692 125.017L113.511 125.117L102.901 133.42ZM104.006 133.229L115.797 124.826L114.692 125.017L104.006 133.229ZM105.035 132.947L116.826 124.544L115.797 124.826L105.035 132.947ZM105.988 132.572L117.778 124.17L116.826 124.544L105.988 132.572ZM124.244 159.674L136.022 151.255L137.762 149.871L124.244 159.674ZM106.865 132.107L118.654 123.704L117.778 124.17L106.865 132.107ZM107.666 131.549L119.455 123.147L118.654 123.704L107.666 131.549ZM125.985 158.29L137.762 149.871L139.464 148.351L125.985 158.29ZM127.688 156.77L139.464 148.351L141.128 146.696L127.688 156.77ZM129.352 155.113L141.128 146.696L142.754 144.904L129.352 155.113ZM130.979 153.32L142.754 144.904L144.342 142.976L130.979 153.32ZM88.7857 128.782L89.6959 129.457L100.585 120.383L88.7857 128.782ZM89.6959 129.457L90.5972 130.08L101.495 121.057L89.6959 129.457ZM132.568 151.391L144.342 142.976L145.892 140.911L132.568 151.391ZM90.5972 130.08L91.4898 130.65L102.395 121.679L90.5972 130.08ZM91.4898 130.65L92.3735 131.169L103.287 122.25L91.4898 130.65ZM92.3735 131.169L93.2485 131.635L104.171 122.768L92.3735 131.169ZM93.2485 131.635L94.1147 132.05L105.045 123.234L93.2485 131.635ZM94.1147 132.05L94.9722 132.413L105.911 123.648L94.1147 132.05ZM94.9722 132.413L95.8208 132.723L106.768 124.011L94.9722 132.413ZM134.119 149.326L145.892 140.911L147.404 138.711L134.119 149.326ZM95.8208 132.723L96.6607 132.981L107.616 124.321L95.8208 132.723ZM96.6607 132.981L97.4918 133.188L108.455 124.579L96.6607 132.981ZM97.4918 133.188L98.3141 133.342L109.286 124.785L97.4918 133.188ZM98.3141 133.342L99.1276 133.444L110.108 124.939L98.3141 133.342ZM135.631 147.124L147.404 138.711L148.878 136.374L135.631 147.124ZM99.1276 133.444L100.462 133.528L110.921 125.041L99.1276 133.444ZM100.462 133.528L101.719 133.52L112.254 125.125L100.462 133.528ZM101.719 133.52L102.901 133.42L113.511 125.117L101.719 133.52ZM137.106 144.786L148.878 136.374L150.314 133.902L137.106 144.786ZM102.901 133.42L104.006 133.229L114.692 125.017L102.901 133.42ZM104.006 133.229L105.035 132.947L115.797 124.826L104.006 133.229ZM138.543 142.312L150.314 133.902L151.712 131.292L138.543 142.312ZM105.035 132.947L105.988 132.572L116.826 124.544L105.035 132.947ZM105.988 132.572L106.865 132.107L117.778 124.17L105.988 132.572ZM125.985 158.29L124.244 159.674L137.762 149.871L125.985 158.29ZM106.865 132.107L107.666 131.549L118.654 123.704L106.865 132.107ZM139.941 139.702L151.712 131.292L153.072 128.547L139.941 139.702ZM127.688 156.77L125.985 158.29L139.464 148.351L127.688 156.77ZM141.302 136.955L153.072 128.547L154.395 125.666L141.302 136.955ZM129.352 155.113L127.688 156.77L141.128 146.696L129.352 155.113ZM130.979 153.32L129.352 155.113L142.754 144.904L130.979 153.32ZM132.568 151.391L130.979 153.32L144.342 142.976L132.568 151.391ZM134.119 149.326L132.568 151.391L145.892 140.911L134.119 149.326ZM135.631 147.124L134.119 149.326L147.404 138.711L135.631 147.124ZM137.106 144.786L135.631 147.124L148.878 136.374L137.106 144.786ZM138.543 142.312L137.106 144.786L150.314 133.902L138.543 142.312ZM86.6837 12.8958L98.4916 4.56438L60.2995 1L86.6837 12.8958ZM139.941 139.702L138.543 142.312L151.712 131.292L139.941 139.702ZM128.276 91.0503L140.056 82.6704L98.4916 4.56438L128.276 91.0503ZM141.302 136.955L139.941 139.702L153.072 128.547L141.302 136.955ZM142.625 134.072L141.302 136.955L154.395 125.666L142.625 134.072ZM77.8822 137.868L89.6959 129.457L88.7857 128.782L77.8822 137.868ZM78.784 138.491L90.5972 130.08L89.6959 129.457L78.784 138.491ZM48.4707 9.32689L86.6837 12.8958L60.2995 1L48.4707 9.32689ZM79.6771 139.062L91.4898 130.65L90.5972 130.08L79.6771 139.062ZM80.5614 139.581L92.3735 131.169L91.4898 130.65L80.5614 139.581ZM81.4369 140.048L93.2485 131.635L92.3735 131.169L81.4369 140.048ZM82.3036 140.462L94.1147 132.05L93.2485 131.635L82.3036 140.462ZM83.1615 140.825L94.9722 132.413L94.1147 132.05L83.1615 140.825ZM84.0106 141.136L95.8208 132.723L94.9722 132.413L84.0106 141.136ZM84.851 141.395L96.6607 132.981L95.8208 132.723L84.851 141.395ZM85.6825 141.601L97.4918 133.188L96.6607 132.981L85.6825 141.601ZM86.5053 141.756L98.3141 133.342L97.4918 133.188L86.5053 141.756ZM87.3193 141.858L99.1276 133.444L98.3141 133.342L87.3193 141.858ZM88.6539 141.942L100.462 133.528L99.1276 133.444L88.6539 141.942ZM89.9123 141.934L101.719 133.52L100.462 133.528L89.9123 141.934ZM142.625 134.072L154.395 125.666L204.102 14.4208L142.625 134.072ZM91.0945 141.834L102.901 133.42L101.719 133.52L91.0945 141.834ZM92.2005 141.643L104.006 133.229L102.901 133.42L92.2005 141.643ZM93.2302 141.36L105.035 132.947L104.006 133.229L93.2302 141.36ZM94.1836 140.986L105.988 132.572L105.035 132.947L94.1836 140.986ZM112.451 168.105L124.244 159.674L125.985 158.29L112.451 168.105ZM95.0608 140.52L106.865 132.107L105.988 132.572L95.0608 140.52ZM95.8618 139.962L107.666 131.549L106.865 132.107L95.8618 139.962ZM114.193 166.72L125.985 158.29L127.688 156.77L114.193 166.72ZM115.896 165.199L127.688 156.77L129.352 155.113L115.896 165.199ZM86.6837 12.8958L128.276 91.0503L98.4916 4.56438L86.6837 12.8958ZM117.562 163.541L129.352 155.113L130.979 153.32L117.562 163.541ZM119.189 161.748L130.979 153.32L132.568 151.391L119.189 161.748ZM76.9715 137.192L77.8822 137.868L88.7857 128.782L76.9715 137.192ZM77.8822 137.868L78.784 138.491L89.6959 129.457L77.8822 137.868ZM120.779 159.817L132.568 151.391L134.119 149.326L120.779 159.817ZM78.784 138.491L79.6771 139.062L90.5972 130.08L78.784 138.491ZM79.6771 139.062L80.5614 139.581L91.4898 130.65L79.6771 139.062ZM80.5614 139.581L81.4369 140.048L92.3735 131.169L80.5614 139.581ZM81.4369 140.048L82.3036 140.462L93.2485 131.635L81.4369 140.048ZM82.3036 140.462L83.1615 140.825L94.1147 132.05L82.3036 140.462ZM83.1615 140.825L84.0106 141.136L94.9722 132.413L83.1615 140.825ZM122.33 157.751L134.119 149.326L135.631 147.124L122.33 157.751ZM84.0106 141.136L84.851 141.395L95.8208 132.723L84.0106 141.136ZM84.851 141.395L85.6825 141.601L96.6607 132.981L84.851 141.395ZM85.6825 141.601L86.5053 141.756L97.4918 133.188L85.6825 141.601ZM86.5053 141.756L87.3193 141.858L98.3141 133.342L86.5053 141.756ZM123.844 155.548L135.631 147.124L137.106 144.786L123.844 155.548ZM87.3193 141.858L88.6539 141.942L99.1276 133.444L87.3193 141.858ZM88.6539 141.942L89.9123 141.934L100.462 133.528L88.6539 141.942ZM89.9123 141.934L91.0945 141.834L101.719 133.52L89.9123 141.934ZM125.319 153.209L137.106 144.786L138.543 142.312L125.319 153.209ZM91.0945 141.834L92.2005 141.643L102.901 133.42L91.0945 141.834ZM92.2005 141.643L93.2302 141.36L104.006 133.229L92.2005 141.643ZM126.756 150.733L138.543 142.312L139.941 139.702L126.756 150.733ZM93.2302 141.36L94.1836 140.986L105.035 132.947L93.2302 141.36ZM94.1836 140.986L95.0608 140.52L105.988 132.572L94.1836 140.986ZM114.193 166.72L112.451 168.105L125.985 158.29L114.193 166.72ZM95.0608 140.52L95.8618 139.962L106.865 132.107L95.0608 140.52ZM128.156 148.121L139.941 139.702L141.302 136.955L128.156 148.121ZM115.896 165.199L114.193 166.72L127.688 156.77L115.896 165.199ZM129.517 145.373L141.302 136.955L142.625 134.072L129.517 145.373ZM117.562 163.541L115.896 165.199L129.352 155.113L117.562 163.541ZM119.189 161.748L117.562 163.541L130.979 153.32L119.189 161.748ZM120.779 159.817L119.189 161.748L132.568 151.391L120.779 159.817ZM122.33 157.751L120.779 159.817L134.119 149.326L122.33 157.751ZM123.844 155.548L122.33 157.751L135.631 147.124L123.844 155.548ZM125.319 153.209L123.844 155.548L137.106 144.786L125.319 153.209ZM126.756 150.733L125.319 153.209L138.543 142.312L126.756 150.733ZM74.861 21.2377L86.6837 12.8958L48.4707 9.32689L74.861 21.2377ZM128.156 148.121L126.756 150.733L139.941 139.702L128.156 148.121ZM116.481 99.4408L128.276 91.0503L86.6837 12.8958L116.481 99.4408ZM129.517 145.373L128.156 148.121L141.302 136.955L129.517 145.373ZM130.84 142.488L129.517 145.373L142.625 134.072L130.84 142.488ZM192.352 22.7646L142.625 134.072L204.102 14.4208L192.352 22.7646ZM66.0535 146.289L77.8822 137.868L76.9715 137.192L66.0535 146.289ZM66.9559 146.912L78.784 138.491L77.8822 137.868L66.9559 146.912ZM36.627 17.6643L74.861 21.2377L48.4707 9.32689L36.627 17.6643ZM67.8495 147.484L79.6771 139.062L78.784 138.491L67.8495 147.484ZM192.352 22.7646L204.102 14.4208L170.078 11.2454L192.352 22.7646ZM68.7343 148.003L80.5614 139.581L79.6771 139.062L68.7343 148.003ZM69.6103 148.47L81.4369 140.048L80.5614 139.581L69.6103 148.47ZM70.4775 148.885L82.3036 140.462L81.4369 140.048L70.4775 148.885ZM71.3359 149.248L83.1615 140.825L82.3036 140.462L71.3359 149.248ZM72.1855 149.559L84.0106 141.136L83.1615 140.825L72.1855 149.559ZM73.0263 149.818L84.851 141.395L84.0106 141.136L73.0263 149.818ZM73.8584 150.025L85.6825 141.601L84.851 141.395L73.8584 150.025ZM74.6816 150.18L86.5053 141.756L85.6825 141.601L74.6816 150.18ZM75.496 150.282L87.3193 141.858L86.5053 141.756L75.496 150.282ZM76.8314 150.366L88.6539 141.942L87.3193 141.858L76.8314 150.366ZM78.0905 150.358L89.9123 141.934L88.6539 141.942L78.0905 150.358ZM130.84 142.488L142.625 134.072L192.352 22.7646L130.84 142.488ZM79.2733 150.258L91.0945 141.834L89.9123 141.934L79.2733 150.258ZM80.3798 150.067L92.2005 141.643L91.0945 141.834L80.3798 150.067ZM81.4101 149.784L93.2302 141.36L92.2005 141.643L81.4101 149.784ZM82.364 149.41L94.1836 140.986L93.2302 141.36L82.364 149.41ZM100.643 176.546L112.451 168.105L114.193 166.72L100.643 176.546ZM83.2417 148.944L95.0608 140.52L94.1836 140.986L83.2417 148.944ZM84.0431 148.386L95.8618 139.962L95.0608 140.52L84.0431 148.386ZM102.386 175.161L114.193 166.72L115.896 165.199L102.386 175.161ZM158.31 19.5853L192.352 22.7646L170.078 11.2454L158.31 19.5853ZM104.09 173.639L115.896 165.199L117.562 163.541L104.09 173.639ZM74.861 21.2377L116.481 99.4408L86.6837 12.8958L74.861 21.2377ZM105.756 171.98L117.562 163.541L119.189 161.748L105.756 171.98ZM107.385 170.186L119.189 161.748L120.779 159.817L107.385 170.186ZM65.1423 145.613L66.0535 146.289L76.9715 137.192L65.1423 145.613ZM66.0535 146.289L66.9559 146.912L77.8822 137.868L66.0535 146.289ZM108.975 168.254L120.779 159.817L122.33 157.751L108.975 168.254ZM66.9559 146.912L67.8495 147.484L78.784 138.491L66.9559 146.912ZM67.8495 147.484L68.7343 148.003L79.6771 139.062L67.8495 147.484ZM68.7343 148.003L69.6103 148.47L80.5614 139.581L68.7343 148.003ZM69.6103 148.47L70.4775 148.885L81.4369 140.048L69.6103 148.47ZM70.4775 148.885L71.3359 149.248L82.3036 140.462L70.4775 148.885ZM71.3359 149.248L72.1855 149.559L83.1615 140.825L71.3359 149.248ZM110.527 166.187L122.33 157.751L123.844 155.548L110.527 166.187ZM72.1855 149.559L73.0263 149.818L84.0106 141.136L72.1855 149.559ZM73.0263 149.818L73.8584 150.025L84.851 141.395L73.0263 149.818ZM73.8584 150.025L74.6816 150.18L85.6825 141.601L73.8584 150.025ZM74.6816 150.18L75.496 150.282L86.5053 141.756L74.6816 150.18ZM112.041 163.983L123.844 155.548L125.319 153.209L112.041 163.983ZM75.496 150.282L76.8314 150.366L87.3193 141.858L75.496 150.282ZM76.8314 150.366L78.0905 150.358L88.6539 141.942L76.8314 150.366ZM78.0905 150.358L79.2733 150.258L89.9123 141.934L78.0905 150.358ZM113.517 161.642L125.319 153.209L126.756 150.733L113.517 161.642ZM79.2733 150.258L80.3798 150.067L91.0945 141.834L79.2733 150.258ZM80.3798 150.067L81.4101 149.784L92.2005 141.643L80.3798 150.067ZM114.955 159.165L126.756 150.733L128.156 148.121L114.955 159.165ZM81.4101 149.784L82.364 149.41L93.2302 141.36L81.4101 149.784ZM82.364 149.41L83.2417 148.944L94.1836 140.986L82.364 149.41ZM102.386 175.161L100.643 176.546L114.193 166.72L102.386 175.161ZM83.2417 148.944L84.0431 148.386L95.0608 140.52L83.2417 148.944ZM116.355 156.552L128.156 148.121L129.517 145.373L116.355 156.552ZM104.09 173.639L102.386 175.161L115.896 165.199L104.09 173.639ZM117.717 153.802L129.517 145.373L130.84 142.488L117.717 153.802ZM105.756 171.98L104.09 173.639L117.562 163.541L105.756 171.98ZM107.385 170.186L105.756 171.98L119.189 161.748L107.385 170.186ZM108.975 168.254L107.385 170.186L120.779 159.817L108.975 168.254ZM110.527 166.187L108.975 168.254L122.33 157.751L110.527 166.187ZM112.041 163.983L110.527 166.187L123.844 155.548L112.041 163.983ZM113.517 161.642L112.041 163.983L125.319 153.209L113.517 161.642ZM114.955 159.165L113.517 161.642L126.756 150.733L114.955 159.165ZM63.0232 29.5903L74.861 21.2377L36.627 17.6643L63.0232 29.5903ZM116.355 156.552L114.955 159.165L128.156 148.121L116.355 156.552ZM104.671 107.842L116.481 99.4408L74.861 21.2377L104.671 107.842ZM117.717 153.802L116.355 156.552L129.517 145.373L117.717 153.802ZM119.04 150.916L117.717 153.802L130.84 142.488L119.04 150.916ZM180.587 31.1191L130.84 142.488L192.352 22.7646L180.587 31.1191ZM54.2099 154.721L66.0535 146.289L65.1423 145.613L54.2099 154.721ZM55.1128 155.345L66.9559 146.912L66.0535 146.289L55.1128 155.345ZM24.7683 26.0123L63.0232 29.5903L36.627 17.6643L24.7683 26.0123ZM56.0069 155.916L67.8495 147.484L66.9559 146.912L56.0069 155.916ZM180.587 31.1191L192.352 22.7646L158.31 19.5853L180.587 31.1191ZM56.8923 156.436L68.7343 148.003L67.8495 147.484L56.8923 156.436ZM57.7688 156.904L69.6103 148.47L68.7343 148.003L57.7688 156.904ZM58.6365 157.319L70.4775 148.885L69.6103 148.47L58.6365 157.319ZM59.4954 157.682L71.3359 149.248L70.4775 148.885L59.4954 157.682ZM60.3454 157.994L72.1855 149.559L71.3359 149.248L60.3454 157.994ZM61.1867 158.253L73.0263 149.818L72.1855 149.559L61.1867 158.253ZM62.0192 158.46L73.8584 150.025L73.0263 149.818L62.0192 158.46ZM62.8429 158.614L74.6816 150.18L73.8584 150.025L62.8429 158.614ZM63.6578 158.717L75.496 150.282L74.6816 150.18L63.6578 158.717ZM64.9939 158.801L76.8314 150.366L75.496 150.282L64.9939 158.801ZM66.2537 158.793L78.0905 150.358L76.8314 150.366L66.2537 158.793ZM119.04 150.916L130.84 142.488L180.587 31.1191L119.04 150.916ZM67.4371 158.694L79.2733 150.258L78.0905 150.358L67.4371 158.694ZM68.5442 158.502L80.3798 150.067L79.2733 150.258L68.5442 158.502ZM69.575 158.219L81.4101 149.784L80.3798 150.067L69.575 158.219ZM70.5295 157.845L82.364 149.41L81.4101 149.784L70.5295 157.845ZM88.8201 184.998L100.643 176.546L102.386 175.161L88.8201 184.998ZM71.4076 157.378L83.2417 148.944L82.364 149.41L71.4076 157.378ZM72.2093 156.82L84.0431 148.386L83.2417 148.944L72.2093 156.82ZM90.5635 183.612L102.386 175.161L104.09 173.639L90.5635 183.612ZM146.526 27.9357L180.587 31.1191L158.31 19.5853L146.526 27.9357ZM92.2688 182.089L104.09 173.639L105.756 171.98L92.2688 182.089ZM63.0232 29.5903L104.671 107.842L74.861 21.2377L63.0232 29.5903ZM93.9359 180.43L105.756 171.98L107.385 170.186L93.9359 180.43ZM95.565 178.634L107.385 170.186L108.975 168.254L95.565 178.634ZM53.2982 154.045L54.2099 154.721L65.1423 145.613L53.2982 154.045ZM54.2099 154.721L55.1128 155.345L66.0535 146.289L54.2099 154.721ZM97.156 176.702L108.975 168.254L110.527 166.187L97.156 176.702ZM55.1128 155.345L56.0069 155.916L66.9559 146.912L55.1128 155.345ZM56.0069 155.916L56.8923 156.436L67.8495 147.484L56.0069 155.916ZM56.8923 156.436L57.7688 156.904L68.7343 148.003L56.8923 156.436ZM57.7688 156.904L58.6365 157.319L69.6103 148.47L57.7688 156.904ZM58.6365 157.319L59.4954 157.682L70.4775 148.885L58.6365 157.319ZM59.4954 157.682L60.3454 157.994L71.3359 149.248L59.4954 157.682ZM98.7089 174.633L110.527 166.187L112.041 163.983L98.7089 174.633ZM60.3454 157.994L61.1867 158.253L72.1855 149.559L60.3454 157.994ZM61.1867 158.253L62.0192 158.46L73.0263 149.818L61.1867 158.253ZM62.0192 158.46L62.8429 158.614L73.8584 150.025L62.0192 158.46ZM62.8429 158.614L63.6578 158.717L74.6816 150.18L62.8429 158.614ZM100.224 172.428L112.041 163.983L113.517 161.642L100.224 172.428ZM63.6578 158.717L64.9939 158.801L75.496 150.282L63.6578 158.717ZM64.9939 158.801L66.2537 158.793L76.8314 150.366L64.9939 158.801ZM66.2537 158.793L67.4371 158.694L78.0905 150.358L66.2537 158.793ZM101.7 170.086L113.517 161.642L114.955 159.165L101.7 170.086ZM67.4371 158.694L68.5442 158.502L79.2733 150.258L67.4371 158.694ZM68.5442 158.502L69.575 158.219L80.3798 150.067L68.5442 158.502ZM103.139 167.608L114.955 159.165L116.355 156.552L103.139 167.608ZM69.575 158.219L70.5295 157.845L81.4101 149.784L69.575 158.219ZM70.5295 157.845L71.4076 157.378L82.364 149.41L70.5295 157.845ZM90.5635 183.612L88.8201 184.998L102.386 175.161L90.5635 183.612ZM71.4076 157.378L72.2093 156.82L83.2417 148.944L71.4076 157.378ZM104.539 164.993L116.355 156.552L117.717 153.802L104.539 164.993ZM92.2688 182.089L90.5635 183.612L104.09 173.639L92.2688 182.089ZM105.902 162.242L117.717 153.802L119.04 150.916L105.902 162.242ZM93.9359 180.43L92.2688 182.089L105.756 171.98L93.9359 180.43ZM95.565 178.634L93.9359 180.43L107.385 170.186L95.565 178.634ZM97.156 176.702L95.565 178.634L108.975 168.254L97.156 176.702ZM98.7089 174.633L97.156 176.702L110.527 166.187L98.7089 174.633ZM100.224 172.428L98.7089 174.633L112.041 163.983L100.224 172.428ZM101.7 170.086L100.224 172.428L113.517 161.642L101.7 170.086ZM103.139 167.608L101.7 170.086L114.955 159.165L103.139 167.608ZM51.1705 37.9533L63.0232 29.5903L24.7683 26.0123L51.1705 37.9533ZM104.539 164.993L103.139 167.608L116.355 156.552L104.539 164.993ZM92.8456 116.254L104.671 107.842L63.0232 29.5903L92.8456 116.254ZM105.902 162.242L104.539 164.993L117.717 153.802L105.902 162.242ZM107.226 159.354L105.902 162.242L119.04 150.916L107.226 159.354ZM168.808 39.4841L119.04 150.916L180.587 31.1191L168.808 39.4841ZM42.3513 163.163L54.2099 154.721L53.2982 154.045L42.3513 163.163ZM43.2547 163.788L55.1128 155.345L54.2099 154.721L43.2547 163.788ZM12.8945 34.3709L51.1705 37.9533L24.7683 26.0123L12.8945 34.3709ZM44.1494 164.36L56.0069 155.916L55.1128 155.345L44.1494 164.36ZM168.808 39.4841L180.587 31.1191L146.526 27.9357L168.808 39.4841ZM45.0352 164.88L56.8923 156.436L56.0069 155.916L45.0352 164.88ZM45.9122 165.348L57.7688 156.904L56.8923 156.436L45.9122 165.348ZM46.7804 165.764L58.6365 157.319L57.7688 156.904L46.7804 165.764ZM47.6398 166.127L59.4954 157.682L58.6365 157.319L47.6398 166.127ZM48.4904 166.438L60.3454 157.994L59.4954 157.682L48.4904 166.438ZM49.3321 166.698L61.1867 158.253L60.3454 157.994L49.3321 166.698ZM50.1651 166.905L62.0192 158.46L61.1867 158.253L50.1651 166.905ZM50.9892 167.06L62.8429 158.614L62.0192 158.46L50.9892 167.06ZM51.8045 167.162L63.6578 158.717L62.8429 158.614L51.8045 167.162ZM53.1414 167.246L64.9939 158.801L63.6578 158.717L53.1414 167.246ZM54.4019 167.239L66.2537 158.793L64.9939 158.801L54.4019 167.239ZM107.226 159.354L119.04 150.916L168.808 39.4841L107.226 159.354ZM55.5859 167.139L67.4371 158.694L66.2537 158.793L55.5859 167.139ZM56.6937 166.948L68.5442 158.502L67.4371 158.694L56.6937 166.948ZM57.725 166.665L69.575 158.219L68.5442 158.502L57.725 166.665ZM58.6799 166.29L70.5295 157.845L69.575 158.219L58.6799 166.29ZM76.9822 193.461L88.8201 184.998L90.5635 183.612L76.9822 193.461ZM59.5585 165.823L71.4076 157.378L70.5295 157.845L59.5585 165.823ZM60.3606 165.265L72.2093 156.82L71.4076 157.378L60.3606 165.265ZM78.7265 192.074L90.5635 183.612L92.2688 182.089L78.7265 192.074ZM134.728 36.2967L168.808 39.4841L146.526 27.9357L134.728 36.2967ZM80.4326 190.55L92.2688 182.089L93.9359 180.43L80.4326 190.55ZM51.1705 37.9533L92.8456 116.254L63.0232 29.5903L51.1705 37.9533ZM82.1006 188.89L93.9359 180.43L95.565 178.634L82.1006 188.89Z" fill="#323232"/>
<path d="M30.1523 191.415L30.7515 191.897L31.3977 192.378L30.1523 191.415ZM31.3977 192.378L32.0909 192.857L32.8311 193.335L31.3977 192.378ZM31.3977 192.378L32.8311 193.335L34.4524 194.285L31.3977 192.378ZM32.8311 193.335L33.6183 193.811L34.4524 194.285L32.8311 193.335Z" fill="#323232"/>
<path d="M83.7227 187.093L95.5573 178.634L97.1482 176.702L83.7227 187.093Z" fill="#323232"/>
<path d="M31.3867 192.377L34.4414 194.285L38.2481 196.167L31.3867 192.377ZM34.4414 194.285L35.3226 194.758L36.2508 195.229L34.4414 194.285ZM34.4414 194.285L36.2508 195.229L38.2481 196.167L34.4414 194.285ZM36.2508 195.229L37.2259 195.699L38.2481 196.167L36.2508 195.229Z" fill="#323232"/>
<path d="M41.4375 162.487L42.3498 163.164L53.2967 154.045L41.4375 162.487Z" fill="#323232"/>
<path d="M101.493 121.057L100.584 120.382M53.2967 154.044L41.4375 162.486L53.2967 154.044ZM65.1408 145.613L53.2967 154.044L65.1408 145.613ZM76.97 137.192L65.1408 145.613L76.97 137.192ZM88.7842 128.782L76.97 137.192L88.7842 128.782ZM88.7842 128.782L100.584 120.382L88.7842 128.782Z" stroke="#707070" stroke-linecap="round"/>
<path d="M42.3516 163.163L43.255 163.788L54.2102 154.721L42.3516 163.163Z" fill="#323232"/>
<path d="M102.389 121.679L101.488 121.057" stroke="#707070" stroke-linecap="round"/>
<path d="M85.3174 185.16L97.1512 176.702L98.7041 174.633L85.3174 185.16ZM43.25 163.787L44.1446 164.36L55.1081 155.344L43.25 163.787Z" fill="#323232"/>
<path d="M103.279 122.249L102.387 121.679" stroke="#707070" stroke-linecap="round"/>
<path d="M38.2481 196.167L39.3172 196.633L40.407 197.049L38.2481 196.167ZM31.3867 192.377L38.2481 196.167L46.8222 198.961L31.3867 192.377Z" fill="#323232"/>
<path d="M44.1445 164.36L45.0304 164.88L56.0021 155.917L44.1445 164.36Z" fill="#323232"/>
<path d="M104.165 122.768L103.281 122.25" stroke="#707070" stroke-linecap="round"/>
<path d="M45.0273 164.88L45.9044 165.347L56.8844 156.436L45.0273 164.88Z" fill="#323232"/>
<path d="M105.039 123.234L104.164 122.768" stroke="#707070" stroke-linecap="round"/>
<path d="M38.2578 196.167L40.4167 197.049L42.5786 197.797L38.2578 196.167Z" fill="#323232"/>
<path d="M45.9062 165.347L46.7744 165.763L57.7628 156.903L45.9062 165.347Z" fill="#323232"/>
<path d="M105.909 123.649L105.043 123.234" stroke="#707070" stroke-linecap="round"/>
<path d="M40.4062 197.05L41.4901 197.438L42.5681 197.798L40.4062 197.05Z" fill="#323232"/>
<path d="M46.7695 165.763L47.6289 166.127L58.6256 157.319L46.7695 165.763Z" fill="#323232"/>
<path d="M106.763 124.01L105.906 123.648" stroke="#707070" stroke-linecap="round"/>
<path d="M47.6328 166.127L48.4834 166.439L59.4884 157.683L47.6328 166.127Z" fill="#323232"/>
<path d="M107.618 124.321L106.77 124.01" stroke="#707070" stroke-linecap="round"/>
<path d="M38.2578 196.167L42.5786 197.797L46.8319 198.96L38.2578 196.167Z" fill="#323232"/>
<path d="M86.8619 183.09L98.6951 174.633L100.21 172.428L86.8619 183.09ZM48.4766 166.439L49.3183 166.698L60.3316 157.994L48.4766 166.439Z" fill="#323232"/>
<path d="M108.453 124.579L107.613 124.32" stroke="#707070" stroke-linecap="round"/>
<path d="M42.5742 197.797L43.6463 198.13L44.7126 198.434L42.5742 197.797Z" fill="#323232"/>
<path d="M49.3242 166.698L50.1572 166.905L61.1788 158.253L49.3242 166.698Z" fill="#323232"/>
<path d="M109.272 124.785L108.441 124.578" stroke="#707070" stroke-linecap="round"/>
<path d="M42.5742 197.797L44.7126 198.434L46.8276 198.961L42.5742 197.797Z" fill="#323232"/>
<path d="M50.1523 166.905L50.9765 167.06L62.0065 158.46L50.1523 166.905Z" fill="#323232"/>
<path d="M110.095 124.939L109.273 124.785" stroke="#707070" stroke-linecap="round"/>
<path d="M44.7119 198.435L45.7723 198.712L46.8268 198.961L44.7119 198.435ZM41.4308 162.487L29.5938 190.931L30.146 191.415L41.4308 162.487Z" fill="#323232"/>
<path d="M50.9805 167.06L51.7958 167.162L62.8342 158.614L50.9805 167.06Z" fill="#323232"/>
<path d="M110.915 125.041L110.102 124.939" stroke="#707070" stroke-linecap="round"/>
<path d="M41.4371 162.487L30.1523 191.415L31.3977 192.378L41.4371 162.487Z" fill="#323232"/>
<path d="M88.3796 180.884L100.212 172.428L101.689 170.086L88.3796 180.884ZM51.793 167.162L53.1298 167.246L63.6462 158.717L51.793 167.162Z" fill="#323232"/>
<path d="M112.247 125.125L110.914 125.042" stroke="#707070" stroke-linecap="round"/>
<path d="M46.8359 198.96L47.8846 199.182L48.9274 199.376L46.8359 198.96Z" fill="#323232"/>
<path d="M53.1328 167.246L54.3933 167.238L64.9853 158.801L53.1328 167.246Z" fill="#323232"/>
<path d="M112.25 125.125L113.507 125.117" stroke="#707070" stroke-linecap="round"/>
<path d="M46.8359 198.96L48.9274 199.376L50.9954 199.681L46.8359 198.96ZM48.9274 199.376L49.9644 199.542L50.9954 199.681L48.9274 199.376Z" fill="#323232"/>
<path d="M54.3984 167.239L55.5825 167.139L66.2503 158.793L54.3984 167.239Z" fill="#323232"/>
<path d="M113.504 125.117L114.685 125.017" stroke="#707070" stroke-linecap="round"/>
<path d="M89.8685 178.541L101.7 170.086L103.139 167.608L89.8685 178.541ZM55.5859 167.139L56.6936 166.948L67.4371 158.694L55.5859 167.139Z" fill="#323232"/>
<path d="M114.688 125.017L115.792 124.826" stroke="#707070" stroke-linecap="round"/>
<path d="M50.9954 199.681L52.0207 199.791L54.4237 199.959L50.9954 199.681ZM46.8359 198.96L50.9954 199.681L59.0536 199.914L46.8359 198.96Z" fill="#323232"/>
<path d="M56.6836 166.948L57.7149 166.665L68.5342 158.502L56.6836 166.948Z" fill="#323232"/>
<path d="M115.785 124.826L116.814 124.543" stroke="#707070" stroke-linecap="round"/>
<path d="M91.2975 176.062L103.129 167.609L104.529 164.994L91.2975 176.062ZM57.7148 166.666L58.6698 166.291L69.5649 158.22L57.7148 166.666Z" fill="#323232"/>
<path d="M116.82 124.543L117.773 124.169" stroke="#707070" stroke-linecap="round"/>
<path d="M31.3867 192.377L46.8222 198.961L75.212 194.683L31.3867 192.377ZM50.9817 199.681L54.4099 199.959L59.0398 199.914L50.9817 199.681Z" fill="#323232"/>
<path d="M58.6797 166.29L59.5582 165.823L70.5292 157.844L58.6797 166.29Z" fill="#323232"/>
<path d="M117.766 124.169L118.642 123.704" stroke="#707070" stroke-linecap="round"/>
<path d="M78.7169 192.074L76.9727 193.461L90.5539 183.612L78.7169 192.074Z" fill="#323232"/>
<path d="M136.023 151.254L137.763 149.871" stroke="#707070" stroke-linecap="round"/>
<path d="M59.5625 165.823L60.3647 165.265L71.4116 157.378L59.5625 165.823Z" fill="#323232"/>
<path d="M118.645 123.704L119.445 123.146" stroke="#707070" stroke-linecap="round"/>
<path d="M54.418 199.959L56.7623 200L59.0479 199.914L54.418 199.959Z" fill="#323232"/>
<path d="M92.707 173.445L104.538 164.993L105.9 162.242L92.707 173.445Z" fill="#323232"/>
<path d="M42.3384 163.163L41.4261 162.487L31.3867 192.378L42.3384 163.163ZM43.2418 163.788L42.3384 163.163L31.3867 192.378L43.2418 163.788Z" fill="#323232"/>
<path d="M80.421 190.55L78.7148 192.073L92.2571 182.089L80.421 190.55Z" fill="#323232"/>
<path d="M137.75 149.871L139.452 148.351" stroke="#707070" stroke-linecap="round"/>
<path d="M44.1365 164.36L43.2418 163.788L31.3867 192.378L44.1365 164.36Z" fill="#323232"/>
<path d="M94.061 170.692L105.891 162.242L107.215 159.354L94.061 170.692ZM82.0898 188.89L80.4219 190.55L93.9252 180.43L82.0898 188.89Z" fill="#323232"/>
<path d="M139.457 148.352L141.121 146.696" stroke="#707070" stroke-linecap="round"/>
<path d="M59.0398 199.915L61.2668 199.703L63.435 199.365L59.0398 199.915ZM44.1365 164.36L31.3867 192.378L75.212 194.683L44.1365 164.36ZM46.8222 198.961L59.0398 199.915L75.212 194.683L46.8222 198.961ZM59.0398 199.915L63.435 199.365L67.5954 198.31L59.0398 199.915Z" fill="#323232"/>
<path d="M83.7275 187.093L82.0977 188.89L95.5621 178.634L83.7275 187.093Z" fill="#323232"/>
<path d="M141.117 146.696L142.743 144.904" stroke="#707070" stroke-linecap="round"/>
<path d="M63.4336 199.365L65.5432 198.901L67.594 198.31L63.4336 199.365Z" fill="#323232"/>
<path d="M85.3144 185.16L83.7227 187.093L97.1482 176.702L85.3144 185.16Z" fill="#323232"/>
<path d="M142.738 144.904L144.326 142.976" stroke="#707070" stroke-linecap="round"/>
<path d="M59.0547 199.914L67.6103 198.309L75.2268 194.683L59.0547 199.914Z" fill="#323232"/>
<path d="M86.8661 183.091L85.3125 185.16L98.6993 174.634L86.8661 183.091Z" fill="#323232"/>
<path d="M144.332 142.976L145.882 140.912" stroke="#707070" stroke-linecap="round"/>
<path d="M67.6035 198.31L69.5957 197.593L71.5291 196.749L67.6035 198.31ZM45.0304 164.88L44.1445 164.36L75.22 194.683L45.0304 164.88Z" fill="#323232"/>
<path d="M88.3866 180.883L86.8711 183.09L100.219 172.427L88.3866 180.883Z" fill="#323232"/>
<path d="M145.887 140.911L147.399 138.711" stroke="#707070" stroke-linecap="round"/>
<path d="M45.9044 165.348L45.0273 164.88L75.217 194.683L45.9044 165.348ZM46.7726 165.764L45.9044 165.348L75.217 194.683L46.7726 165.764ZM67.6005 198.31L71.5261 196.749L75.217 194.683L67.6005 198.31ZM47.6319 166.127L46.7726 165.764L75.217 194.683L47.6319 166.127ZM48.4825 166.439L47.6319 166.127L75.217 194.683L48.4825 166.439ZM49.3243 166.698L48.4825 166.439L75.217 194.683L49.3243 166.698ZM50.1572 166.905L49.3243 166.698L75.217 194.683L50.1572 166.905ZM50.9813 167.06L50.1572 166.905L75.217 194.683L50.9813 167.06ZM51.7967 167.163L50.9813 167.06L75.217 194.683L51.7967 167.163Z" fill="#323232"/>
<path d="M89.8679 178.541L88.3906 180.884L101.7 170.086L89.8679 178.541Z" fill="#323232"/>
<path d="M147.395 138.71L148.869 136.374" stroke="#707070" stroke-linecap="round"/>
<path d="M71.5224 196.749L73.3972 195.779L75.2133 194.683L71.5224 196.749ZM53.1298 167.246L51.793 167.162L75.2133 194.683L53.1298 167.246ZM75.2133 194.683L54.3903 167.238L53.1298 167.246L75.2133 194.683ZM75.2133 194.683L55.5744 167.139L54.3903 167.238L75.2133 194.683ZM75.2133 194.683L56.6821 166.948L55.5744 167.139L75.2133 194.683Z" fill="#323232"/>
<path d="M91.3025 176.061L89.8633 178.54L103.134 167.607L91.3025 176.061Z" fill="#323232"/>
<path d="M148.863 136.374L150.299 133.901" stroke="#707070" stroke-linecap="round"/>
<path d="M75.2148 194.683L57.7149 166.665L56.6836 166.948L75.2148 194.683ZM75.2148 194.683L58.6699 166.29L57.7149 166.665L75.2148 194.683Z" fill="#323232"/>
<path d="M39.3027 46.327L51.1705 37.9533L12.8945 34.3708L39.3027 46.327Z" fill="#323232"/>
<path d="M75.2246 194.683L76.982 193.461L78.7262 192.074L75.2246 194.683ZM75.2246 194.683L59.5582 165.824L58.6797 166.29L75.2246 194.683ZM75.2246 194.683L60.3604 165.265L59.5582 165.824L75.2246 194.683Z" fill="#323232"/>
<path d="M92.7057 173.445L91.3047 176.061L104.536 164.993L92.7057 173.445Z" fill="#323232"/>
<path d="M150.305 133.902L151.703 131.292" stroke="#707070" stroke-linecap="round"/>
<path d="M75.2197 194.683L61.0812 164.615L60.3555 165.265L75.2197 194.683Z" fill="#323232"/>
<path d="M81.003 124.676L92.8431 116.254L51.168 37.9536L81.003 124.676Z" fill="#323232"/>
<path d="M75.2205 194.684L61.7314 163.873L61.082 164.615L75.2205 194.684ZM75.2205 194.684L78.7221 192.074L82.0962 188.89L75.2205 194.684ZM75.2205 194.684L62.3044 163.039L61.7314 163.873L75.2205 194.684ZM75.2205 194.684L62.801 162.114L62.3044 163.039L75.2205 194.684Z" fill="#323232"/>
<path d="M94.07 170.692L92.707 173.445L105.9 162.242L94.07 170.692Z" fill="#323232"/>
<path d="M151.707 131.293L153.067 128.547" stroke="#707070" stroke-linecap="round"/>
<path d="M78.7148 192.073L80.421 190.55L82.0889 188.89L78.7148 192.073Z" fill="#323232"/>
<path d="M95.3873 167.802L94.0625 170.692L107.217 159.354L95.3873 167.802Z" fill="#323232"/>
<path d="M75.2109 194.684L82.0866 188.891L88.3772 180.885L75.2109 194.684ZM82.0866 188.891L83.7165 187.094L85.3082 185.161L82.0866 188.891Z" fill="#323232"/>
<path d="M157.014 47.8595L107.227 159.353L168.808 39.4839L157.014 47.8595Z" fill="#323232"/>
<path d="M82.0977 188.891L85.3192 185.161L88.3883 180.885L82.0977 188.891Z" fill="#323232"/>
<path d="M1 42.74L39.297 46.327L12.8888 34.3708L1 42.74Z" fill="#323232"/>
<path d="M98.4858 4.56438L60.2938 1M12.8888 34.3709L1 42.74L12.8888 34.3709ZM24.7625 26.0123L12.8888 34.3709L24.7625 26.0123ZM36.6213 17.6643L24.7625 26.0123L36.6213 17.6643ZM48.465 9.32689L36.6213 17.6643L48.465 9.32689ZM48.465 9.32689L60.2938 1L48.465 9.32689Z" stroke="#707070" stroke-linecap="round"/>
<path d="M157.004 47.8595L168.799 39.4838L134.719 36.2964L157.004 47.8595Z" fill="#323232"/>
<path d="M85.3097 185.16L86.8633 183.09L88.3788 180.884L85.3097 185.16ZM75.2125 194.683L80.9932 124.676L62.793 162.113L75.2125 194.683ZM88.3788 180.884L89.8561 178.54L91.2953 176.061L88.3788 180.884ZM75.2125 194.683L88.3788 180.884L80.9932 124.676L75.2125 194.683Z" fill="#323232"/>
<path d="M95.3984 167.802L107.228 159.353L157.015 47.8594L95.3984 167.802Z" fill="#323232"/>
<path d="M80.9932 124.676L64.697 157.726L62.793 162.113L80.9932 124.676ZM88.3788 180.884L91.2953 176.061L94.0593 170.692L88.3788 180.884ZM91.2953 176.061L92.6964 173.445L94.0593 170.692L91.2953 176.061Z" fill="#323232"/>
<path d="M122.901 44.668L157 47.8595L134.714 36.2964L122.901 44.668ZM39.2891 46.3267L80.9919 124.676L51.1568 37.953L39.2891 46.3267Z" fill="#323232"/>
<path d="M39 46.5L98.5 4.5L120.5 46" stroke="#707070"/>
<path d="M88.3854 180.884L94.0659 170.692L80.9998 124.676L88.3854 180.884ZM39.297 46.327L1 42.74L64.7037 157.726L39.297 46.327ZM80.9998 124.676L39.297 46.327L64.7037 157.726L80.9998 124.676ZM94.0659 170.692L95.3907 167.802L145.198 56.246L94.0659 170.692ZM94.0659 170.692L145.198 56.246L80.9998 124.676L94.0659 170.692Z" fill="#323232"/>
<path d="M145.206 56.2456L95.3984 167.802L157.015 47.8594L145.206 56.2456Z" fill="#323232"/>
<path d="M153.062 128.547L154.385 125.666M154.385 125.666L204.092 14.4209L154.385 125.666Z" stroke="#707070" stroke-linecap="round"/>
<path d="M145.199 56.2465L157.009 47.8602L122.91 44.6687L145.199 56.2465ZM111.082 53.0509L145.199 56.2465L122.91 44.6687L111.082 53.0509Z" fill="#323232"/>
<path d="M192.348 22.7644L204.098 14.4205M122.91 44.668L111.082 53.0502L122.91 44.668ZM157.009 47.8595L145.199 56.2457L157.009 47.8595ZM134.724 36.2964L122.91 44.668L134.724 36.2964ZM168.804 39.4838L157.009 47.8595L168.804 39.4838ZM146.522 27.9354L134.724 36.2964L146.522 27.9354ZM180.583 31.1188L168.804 39.4838L180.583 31.1188ZM158.305 19.585L146.522 27.9354L158.305 19.585ZM192.348 22.7644L180.583 31.1188L192.348 22.7644ZM158.305 19.585L170.074 11.2451L158.305 19.585ZM204.098 14.4205L170.074 11.2451L204.098 14.4205Z" stroke="#707070" stroke-linecap="round"/>
<path d="M145.198 56.2461L111.081 53.0505L81 124.676L145.198 56.2461Z" fill="#323232"/>
<path d="M53.1356 167.246L51.7988 167.162M111.08 53.0504L145.198 56.246L111.08 53.0504ZM80.9998 124.676L111.08 53.0504L80.9998 124.676ZM95.3907 167.802L94.0659 170.692L95.3907 167.802ZM95.3907 167.802L145.198 56.246L95.3907 167.802ZM92.703 173.445L91.3019 176.061L92.703 173.445ZM92.703 173.445L94.0659 170.692L92.703 173.445ZM89.8627 178.541L88.3854 180.884L89.8627 178.541ZM89.8627 178.541L91.3019 176.061L89.8627 178.541ZM86.87 183.09L85.3164 185.16L86.87 183.09ZM86.87 183.09L88.3854 180.884L86.87 183.09ZM83.7247 187.093L82.0948 188.89L83.7247 187.093ZM83.7247 187.093L85.3164 185.16L83.7247 187.093ZM80.4268 190.55L78.7207 192.074L80.4268 190.55ZM80.4268 190.55L82.0948 188.89L80.4268 190.55ZM76.9765 193.461L75.2191 194.683L76.9765 193.461ZM76.9765 193.461L78.7207 192.074L76.9765 193.461ZM73.403 195.779L71.5282 196.749L73.403 195.779ZM73.403 195.779L75.2191 194.683L73.403 195.779ZM69.5948 197.593L67.6026 198.31L69.5948 197.593ZM69.5948 197.593L71.5282 196.749L69.5948 197.593ZM65.5517 198.9L63.4422 199.365L65.5517 198.9ZM65.5517 198.9L67.6026 198.31L65.5517 198.9ZM61.2739 199.703L59.047 199.915L61.2739 199.703ZM61.2739 199.703L63.4422 199.365L61.2739 199.703ZM56.7613 200L54.417 199.959L56.7613 200ZM56.7613 200L59.047 199.915L56.7613 200ZM52.014 199.792L50.9888 199.681L52.014 199.792ZM52.014 199.792L54.417 199.959L52.014 199.792ZM49.9577 199.543L48.9208 199.376L49.9577 199.543ZM49.9577 199.543L50.9888 199.681L49.9577 199.543ZM47.878 199.183L46.8293 198.961L47.878 199.183ZM47.878 199.183L48.9208 199.376L47.878 199.183ZM45.7748 198.712L44.7144 198.435L45.7748 198.712ZM45.7748 198.712L46.8293 198.961L45.7748 198.712ZM43.6481 198.13L42.576 197.797L43.6481 198.13ZM43.6481 198.13L44.7144 198.435L43.6481 198.13ZM41.498 197.437L40.4141 197.049L41.498 197.437ZM41.498 197.437L42.576 197.797L41.498 197.437ZM39.3244 196.633L38.2552 196.167L39.3244 196.633ZM39.3244 196.633L40.4141 197.049L39.3244 196.633ZM37.2331 195.699L36.2579 195.229L37.2331 195.699ZM37.2331 195.699L38.2552 196.167L37.2331 195.699ZM35.3297 194.758L34.4486 194.285L35.3297 194.758ZM35.3297 194.758L36.2579 195.229L35.3297 194.758ZM33.6144 193.811L32.8272 193.335L33.6144 193.811ZM33.6144 193.811L34.4486 194.285L33.6144 193.811ZM32.0871 192.857L31.3939 192.378L32.0871 192.857ZM32.0871 192.857L32.8272 193.335L32.0871 192.857ZM30.7477 191.897L30.1485 191.415L30.7477 191.897ZM30.7477 191.897L31.3939 192.378L30.7477 191.897ZM29.5963 190.931L41.4333 162.487L29.5963 190.931ZM29.5963 190.931L30.1485 191.415L29.5963 190.931ZM1 42.74L39.297 46.327L1 42.74ZM64.7037 157.726L1 42.74L64.7037 157.726ZM39.297 46.327L80.9998 124.676L39.297 46.327ZM42.3455 163.163L41.4333 162.487L42.3455 163.163ZM62.7996 162.113L64.7037 157.726L62.7996 162.113ZM43.249 163.788L42.3455 163.163L43.249 163.788ZM44.1436 164.36L43.249 163.788L44.1436 164.36ZM62.303 163.039L62.7996 162.113L62.303 163.039ZM61.73 163.873L62.303 163.039L61.73 163.873ZM45.0295 164.88L44.1436 164.36L45.0295 164.88ZM61.0807 164.615L61.73 163.873L61.0807 164.615ZM45.9065 165.348L45.0295 164.88L45.9065 165.348ZM60.3549 165.265L61.0807 164.615L60.3549 165.265ZM46.7747 165.763L45.9065 165.348L46.7747 165.763ZM59.5527 165.823L60.3549 165.265L59.5527 165.823ZM47.6341 166.127L46.7747 165.763L47.6341 166.127ZM58.6742 166.29L59.5527 165.823L58.6742 166.29ZM48.4846 166.438L47.6341 166.127L48.4846 166.438ZM57.7192 166.665L58.6742 166.29L57.7192 166.665ZM49.3264 166.698L48.4846 166.438L49.3264 166.698ZM56.6879 166.948L57.7192 166.665L56.6879 166.948ZM50.1593 166.905L49.3264 166.698L50.1593 166.905ZM55.5802 167.139L56.6879 166.948L55.5802 167.139ZM50.9835 167.06L50.1593 166.905L50.9835 167.06ZM54.3961 167.239L55.5802 167.139L54.3961 167.239ZM51.7988 167.162L50.9835 167.06L51.7988 167.162ZM53.1356 167.246L54.3961 167.239L53.1356 167.246Z" stroke="#707070" stroke-linecap="round"/>
<path d="M136 151L76.5 194" stroke="#707070"/>
</svg>
